<svg width="120" height="30" fill="none" xmlns="http://www.w3.org/2000/svg"><path d="M12 6h17.544v8.952H12V6z" fill="#E7002A"/><path d="M40.8 14.736a1.296 1.296 0 001.368-1.368 1.435 1.435 0 00-1.464-1.56h-3.768v2.904l3.864.024zm-.072-4.344a2.868 2.868 0 013.096 3c0 1.8-1.2 2.832-3.096 2.832H36.96v2.928h-1.632v-8.76h5.4zm9.096 1.2c-2.016 0-3.408 1.368-3.408 3.144s1.32 3.144 3.408 3.144 3.384-1.344 3.384-3.144-1.296-3.144-3.384-3.144zm0 7.752c-2.784 0-5.088-1.848-5.088-4.608s2.304-4.632 5.088-4.632c2.784 0 5.088 1.896 5.088 4.656s-2.256 4.608-5.064 4.608l-.024-.024zm11.808.024c-2.928 0-5.136-1.848-5.136-4.632s2.232-4.608 5.136-4.608a6.528 6.528 0 014.08 1.296l-.864 1.296a4.956 4.956 0 00-3.144-1.08c-2.136 0-3.456 1.344-3.456 3.096s1.344 3.096 3.48 3.096a5.16 5.16 0 003.216-1.056L65.808 18a6.601 6.601 0 01-4.2 1.32l.024.048zM80.4 15.6h3.36L82.104 12 80.4 15.6zm-.672 1.416l-1.008 2.112h-1.752l4.248-8.736h1.704l4.272 8.736H85.44l-1.008-2.112h-4.704zm16.032 2.136v-3.768h-5.712v3.744H88.44v-8.736h1.608v3.552h5.712v-3.552h1.632v8.736l-1.632.024zm4.032 0v-8.76h1.608v4.056l4.392-4.056h1.992l-4.512 4.2L108 19.128h-2.184L101.4 14.88v4.248l-1.608.024zm-26.688-1.488h-3.888V15h3.888c1.008 0 1.584.528 1.584 1.32s-.456 1.32-1.584 1.32v.024zm-.096-4.104h-3.792v-1.824h6.24v-1.368h-7.872v8.736h5.4c1.896 0 3.216-1.032 3.216-2.76 0-1.728-1.32-2.76-3.216-2.76M12 14.784h17.544v8.784H12v-8.784z" fill="#000"/><path d="M15.047 14.232h11.4v1.08h-11.4v-1.08z" fill="#fff"/></svg>