<svg width="120" height="30" fill="none" xmlns="http://www.w3.org/2000/svg"><path d="M34.871 13.42l.387-1.214-1.257.04a2.937 2.937 0 01-1.633-.571h.17a2.028 2.028 0 001.806-1.127l.553-1.181A9.725 9.725 0 0133.6 9.29a2.026 2.026 0 01-1.059-.64 1.993 1.993 0 00-1.444-.632c-.213 0-.427.037-.633.102a2.73 2.73 0 00.073-.297 2.682 2.682 0 00-.55-1.975l-.953-1.174-.585 1.372a1.233 1.233 0 01-.415.488 2.548 2.548 0 00-.694-1.293 3.111 3.111 0 00-2.254-.94 3.06 3.06 0 00-.44.033l-1.142.224c.098-.383.253-.748.462-1.083l.629-.98-1.582.149-.506-1.084-.975.531-.903-.892-.903.892-.975-.506-.506 1.059-1.582-.18.628.982c.21.336.365.7.463 1.083l-1.084-.213h-.036a3.214 3.214 0 00-.455-.032 3.111 3.111 0 00-2.254.939 2.547 2.547 0 00-.7 1.31 1.232 1.232 0 01-.409-.472l-.589-1.384-.96 1.178a2.71 2.71 0 00-.539 1.968c.018.102.044.2.073.297a2.104 2.104 0 00-.633-.102 1.993 1.993 0 00-1.444.633c-.275.314-.64.538-1.048.639-.433.065-.874.09-1.315.076l.539 1.199a2.028 2.028 0 001.806 1.127h.17a2.95 2.95 0 01-1.612.567L6 12.206l.387 1.213a2.53 2.53 0 002.095 1.774 2.008 2.008 0 01-1.084 1.481l-.968.394.52.906a2.305 2.305 0 001.962 1.059c.205 0 .411-.022.614-.065.05.22.115.44.187.653.18.477.192.997.036 1.481l-.47.986 1.052.278c.235.062.48.09.722.09.174 0 .344-.017.513-.057.123-.029.246-.065.361-.112.134.242.304.466.495.665.672.69 1.626 1.04 2.836 1.04h.863l-1.78.74 1.35.669c.546.267 1.102.509 1.669.722l-.162.47.465.213a7.331 7.331 0 002.424.502h1.109a7.275 7.275 0 002.413-.506l.451-.21-.159-.469a18 18 0 001.687-.748l1.326-.643-1.777-.722h.867c1.21 0 2.167-.361 2.835-1.04a3.06 3.06 0 00.495-.665c.116.047.238.083.361.112.17.04.34.058.513.058.242 0 .488-.033.723-.09l1.054-.279-.459-.968a2.213 2.213 0 01.018-1.517c.076-.22.138-.444.188-.668.203.044.412.065.618.065a2.292 2.292 0 001.965-1.083l.513-.896-.954-.39a2.008 2.008 0 01-1.083-1.481 2.534 2.534 0 002.095-1.777l-.015.028z" fill="#fff"/><path d="M24.971 17.256h-8.669v3.25c0 1.337.965 2.168 2.391 2.168 1.192 0 1.506.047 1.947.487.278-.3.672-.47 1.084-.462v-.05l.274-.846-.466-.51c-.188.059-.383.08-.578.07a4.644 4.644 0 01-.867-.09h-.09c-.04 0-.04 0-.05.02l-.055.091-.097.163-.188-.044-.834-.195-.116.188v.022l.101.112-.043.144a1.506 1.506 0 01-.322.473l-.21.224-.19-.238-.141-.177a.724.724 0 01-.102-.694l-.234.098-.105-.231-.058-.163a.793.793 0 01.264-.957l.672-.361.639.126c0-.061.04-.281.058-.335h-.036l-.361.137-.362-.246a.188.188 0 010-.267l.343-.52-.87-1.084 1.304.513.09-.108.18-.217.207.195c.054.054.09.12.108.195.361.145 1.03.567 1.084 1.253l-.206.083a.24.24 0 00.097.084l.954.093.087-.025c.162-.061.335-.094.509-.097.173 0 .343.04.498.115a.745.745 0 01.217-.043h.047c.51 0 .766.383.968.686l.105.152c.177.253.411.621.422.636l.105.162-.13.152a.63.63 0 01-.506.249 1.393 1.393 0 01-.173 0 .809.809 0 01-.152-.047c0 .05 0 .112-.029.163l-.148.852a2.042 2.042 0 001.637-2.084l-.004-3.265zm-8.68-.264h6.751a1.086 1.086 0 01-.245-1.084 1.174 1.174 0 01-.253-.166c-.264.195-1.084.78-1.279.928l-.043.03-2.652-.47h-.054a3.131 3.131 0 01-.26 0 .255.255 0 01-.25.202h-.042a.266.266 0 01-.217-.3v-.058a1.054 1.054 0 01-.416-1.083v-.047l.04-.029s.05-.036.12-.076l-.192-.029a.134.134 0 01-.108-.151.128.128 0 01.148-.109h.003l.46.072.042-1.614.683-.722.426.895-.448 1.553.405.065c.072.015.12.08.108.152a.129.129 0 01-.13.108h-.021l-.33-.054v.026a.359.359 0 00.16.148l2.019.032.517-.51a1.081 1.081 0 01-.723-.899 1.054 1.054 0 01-.574-.527 1.08 1.08 0 01-.047-.722 2.382 2.382 0 01-.842-.564H16.05c.145.354.228.73.242 1.11v3.893z" fill="#FCE527"/><path d="M39.593 14.203h2.976v5.057h2.167v-5.057h2.977v-1.835h-8.12v1.835zm10.98 2.168v-3.974h-2.095v6.863h1.85l3.612-4.016v4.016h2.095v-6.892h-1.85l-3.612 4.003zm12.437-1.445h-3.367v-2.529h-2.095v6.863h2.095v-2.572h3.367v2.572h2.095v-6.863H63.01v2.529zm9.402-.535a4.486 4.486 0 00-1.532-.188h-2.167v-1.806h-2.095v6.863l4.248-.029c.444.007.885-.043 1.315-.159a2.372 2.372 0 001.806-2.384 2.32 2.32 0 00-1.575-2.297zm-1.07 3.106c-.263.09-.545.127-.823.102h-1.806V15.85h1.806c.271-.018.545.015.81.087a.764.764 0 01.548.751.86.86 0 01-.534.81zm11.422-5.1h-2.63l-2.528 2.587h-.578v-2.587h-2.095v6.863h2.095v-2.6h.578l2.5 2.6h2.788l-3.482-3.612 3.352-3.25z" fill="#222220"/><path d="M87.272 12.18c-2.832 0-4.522 1.59-4.522 3.642 0 2.051 1.705 3.64 4.507 3.64 2.804 0 4.494-1.589 4.494-3.64 0-2.052-1.647-3.641-4.479-3.641zm-.015 5.606c-1.4 0-2.296-.838-2.296-1.965 0-1.126.91-1.95 2.296-1.95 1.388 0 2.298.824 2.298 1.95 0 1.127-.896 1.965-2.298 1.965zm11.397-5.114v-.694h-2.095v.694c-2.63.058-4.205 1.17-4.205 3.135 0 1.965 1.575 2.99 4.205 3.049v.693h2.095v-.693c2.643-.058 4.218-1.084 4.218-3.049 0-1.965-1.571-3.077-4.218-3.135zm-2.095 4.71c-1.445-.058-2.081-.65-2.081-1.575 0-.925.636-1.59 2.08-1.647v3.222zm2.095 0V14.16c1.459.058 2.08.722 2.08 1.647h.004c0 .925-.621 1.517-2.084 1.575zm11.128-4.71v-.694h-2.095v.694c-2.629.058-4.204 1.17-4.204 3.135 0 1.965 1.575 2.99 4.204 3.049v.693h2.095v-.693c2.644-.058 4.219-1.084 4.219-3.049 0-1.965-1.575-3.077-4.219-3.135zm-2.095 4.71c-1.444-.058-2.08-.65-2.08-1.575 0-.925.636-1.59 2.08-1.647v3.222zm4.172-1.575c0 .925-.617 1.517-2.077 1.575V14.16c1.46.058 2.081.722 2.081 1.647h-.004zm-92.797 2.868c-.043 0-.083.033-.086.076v.003a.088.088 0 00.079.094h.004c.05 0 .086-.04.086-.086 0-.05-.036-.087-.083-.087zm-.003-.004c.003 0 .003.004.003.004.004 0 .004-.004.008-.004h-.011zm5.902 5.924l-.499-.191.137-.517.152-.563c-.683.35-1.398.632-2.135.841-.36.101-.62.148-.62.148v.365a8.79 8.79 0 01-1.344.116h-.04a8.79 8.79 0 01-1.344-.116v-.361s-.264-.05-.625-.152a11.655 11.655 0 01-2.134-.841l.148.563.14.517-.502.191-.541.206c.744.387 1.52.708 2.322.96l-.191.521c.87.332 1.802.495 2.734.473h.022a7.213 7.213 0 002.734-.473l-.188-.52a14.58 14.58 0 002.32-.961l-.546-.206zm-8.604.239l.809-.271-.242-.795c.53.264 1.08.484 1.647.657l-.397 1.084a10.177 10.177 0 01-1.817-.675zm4.295 1.665l-.018-.015a9.073 9.073 0 01-2.352-.321l.488-1.322a7.862 7.862 0 001.86.238h.04a8.053 8.053 0 001.86-.238l.487 1.322a9.04 9.04 0 01-2.365.336zm2.463-.968v-.011l-.397-1.084a10.799 10.799 0 001.647-.657l-.242.794.82.275c-.585.285-1.2.517-1.828.683zM20.63 3.978a3.766 3.766 0 012.283.697A4.586 4.586 0 0123.5 3.16l-.82.094-.426-.914-.827.427-.798-.791-.798.79-.828-.426-.426.914-.82-.094c.286.466.484.98.589 1.514a3.766 3.766 0 012.283-.697zm-2.088-.405l.228.025.097-.206.285-.614.531.275.206.105.166-.152.575-.582.574.582.166.163.206-.105.528-.275.288.614.098.206.228-.025.216-.025a5.187 5.187 0 00-.224.614 4.562 4.562 0 00-4.157 0 5.187 5.187 0 00-.224-.614l.213.014zm12.801 7.86l-.097-.12c-.672-.855-1.311-1.668-2.453-2.04a1.24 1.24 0 01.145-.108 2.15 2.15 0 001.047-1.445 2.142 2.142 0 00-.433-1.546l-.362-.452-.227.538c0 .033-.401.896-1.21.896h-.239a1.965 1.965 0 00-.563-1.531 2.58 2.58 0 00-2.243-.744l-.553.108.343.452c.268.36.51.986.224 1.322a1.543 1.543 0 01-.462.278c-.361.17-.881.411-.881 1.018 0 .394.307.806.86 1.156 1.628 1.033 2.636 2.099 3.073 3.298.676 1.828-.206 2.868-1.062 3.417l-.383.245.336.308c.3.256.669.415 1.062.455h.329c.336 0 .668-.047.99-.145a2.56 2.56 0 01-.282.398 2.414 2.414 0 01-1.958.838h-.321l-.026.321a1.52 1.52 0 00.539 1.17c.09.08.191.145.3.195a2.815 2.815 0 00-.85 1.98c0 .408-.093.812-.27 1.18l-.362.543h.643c1.062 0 1.875-.293 2.439-.874a2.78 2.78 0 00.635-1.084 1.707 1.707 0 001.11.404c.194 0 .39-.025.577-.068l.412-.108-.18-.383a2.719 2.719 0 010-1.897c.133-.397.227-.809.277-1.228.325.166.687.25 1.052.246a1.741 1.741 0 001.484-.791l.199-.361-.362-.152c-1.21-.502-1.477-1.853-1.531-2.583.12.026.238.04.361.044l.101.068c1.315 0 1.756-1.34 1.774-1.398l.148-.473h-.495a3.527 3.527 0 01-2.655-1.347zm1.232 2.853h-.05a1.397 1.397 0 01-.748-.205s-.192 2.611 1.755 3.42v.01a1.366 1.366 0 01-1.163.615 1.635 1.635 0 01-1.369-.6c.01.614-.09 1.229-.296 1.806a3.068 3.068 0 000 2.168c-.163.04-.325.061-.491.061-.102 0-.206-.01-.304-.036a1.423 1.423 0 01-1.018-.936s.076 2.507-2.847 2.507h-.021a2.87 2.87 0 00.332-1.358c.126-1.853 1.383-2.117 1.383-2.117a2.209 2.209 0 01-.964-.36 1.189 1.189 0 01-.423-.89 2.762 2.762 0 002.215-.957c.332-.379.552-.841.646-1.336-.466.35-1.04.527-1.622.502h-.296a1.567 1.567 0 01-.856-.361c1.113-.723 1.893-1.958 1.203-3.833-.556-1.502-1.89-2.625-3.23-3.47-.444-.275-.71-.586-.71-.853 0-.629.891-.647 1.26-1.084.422-.491.159-1.286-.21-1.762a2.196 2.196 0 011.922.643c.426.404.589 1.014.426 1.578l.195.04a2.4 2.4 0 00.361.036h.08c1.058 0 1.535-1.11 1.535-1.11s1.127 1.388-.531 2.472c-.285.184-.412.36-.361.541l.025.12.12.021c1.202.325 1.805 1.156 2.553 2.099a3.89 3.89 0 002.922 1.48h.022s-.362 1.15-1.445 1.15z" fill="#222220"/><path d="M30.256 9.435c.404.232.755.546 1.029.921.206.318.498.571.845.723.13.043.271.065.408.065a1.48 1.48 0 001.312-.806l.209-.47-.51-.028a2.438 2.438 0 01-1.408-.806 1.45 1.45 0 00-1.051-.466c-.31.004-.61.098-.87.264l-.47.329.506.274zm.845-.516l-.011.003c.307 0 .596.134.802.362.422.484 1 .805 1.636.91a1.13 1.13 0 01-.99.596.947.947 0 01-.3-.05c-.584-.2-.79-1.084-1.805-1.619.198-.13.43-.199.668-.202zm-.607 5.172l-.007-.007c-.296-2.384-2.027-4.107-3.952-5.15a9.348 9.348 0 00-.502-.254 2.775 2.775 0 002.261-.53s-1.116.82-3.399.075c.633.412 1.86.99 2.984 1.93 2.803 2.463.798 4.868.798 4.868a2.949 2.949 0 00.755-3.099c.592.986.878 2.128.816 3.276-.08 1.893-1.13 3.547-2.214 4.866a3.25 3.25 0 00-.643 1.423c.184-.517.463-.994.824-1.405 1.174-1.377 2.167-2.803 2.308-4.858.123.36.621 1.412 1.416 1.806 0 0-.997-.6-1.445-2.94zm-14.954 8.81a2.84 2.84 0 01-.27-1.181 2.819 2.819 0 00-.853-1.98c.108-.05.21-.115.3-.194.343-.293.541-.72.538-1.17l-.022-.322h-.325a2.422 2.422 0 01-1.954-.838 2.826 2.826 0 01-.282-.398c.322.098.654.145.99.145h.329a1.94 1.94 0 001.065-.455l.336-.307-.383-.246c-.86-.549-1.737-1.59-1.062-3.417.437-1.188 1.445-2.261 3.088-3.294.553-.361.857-.762.857-1.156 0-.607-.51-.849-.882-1.019a1.549 1.549 0 01-.462-.278c-.289-.336-.047-.975.224-1.322l.361-.451-.556-.108a2.293 2.293 0 00-.387-.03 2.56 2.56 0 00-1.882.745c-.408.4-.62.964-.581 1.535h-.217c-.813 0-1.195-.86-1.21-.896l-.227-.538-.362.451c-.336.441-.49.994-.43 1.546.123.61.503 1.138 1.044 1.445.051.033.102.069.145.108-1.142.362-1.78 1.185-2.453 2.041l-.097.123a3.534 3.534 0 01-2.659 1.347h-.495l.152.473c0 .058.455 1.398 1.774 1.398h.065c.123-.003.242-.018.36-.043-.053.722-.32 2.08-1.534 2.583l-.361.151.198.362c.325.502.885.798 1.485.79a2.24 2.24 0 001.047-.245c.05.419.145.83.278 1.228a2.72 2.72 0 010 1.896l-.18.383.412.109c.187.043.383.068.578.068a1.706 1.706 0 001.109-.405c.126.405.343.777.635 1.084.567.582 1.38.87 2.438.874h.643l-.325-.592zm-.31.202c-2.923 0-2.85-2.506-2.85-2.506-.156.465-.539.82-1.019.935a1.223 1.223 0 01-.303.036c-.167 0-.33-.021-.488-.061a3.068 3.068 0 000-2.167 5.12 5.12 0 01-.293-1.806 1.635 1.635 0 01-1.369.6H8.89c-.47.006-.91-.228-1.166-.619 1.947-.809 1.755-3.42 1.755-3.42-.224.137-.484.21-.748.206h-.04c-1.083 0-1.444-1.149-1.444-1.149h.022a3.882 3.882 0 002.925-1.477c.744-.943 1.351-1.774 2.554-2.099l.12-.021.024-.12c.033-.184-.093-.36-.36-.541C10.872 7.81 12 6.423 12 6.423s.47 1.109 1.535 1.109h.051a2.4 2.4 0 00.361-.036l.195-.04c-.166-.564 0-1.174.427-1.578a2.196 2.196 0 011.921-.643c-.361.48-.628 1.275-.206 1.762.361.423 1.257.44 1.257 1.084 0 .267-.249.578-.693.856-1.344.845-2.677 1.969-3.23 3.471-.69 1.875.09 3.12 1.203 3.833a1.594 1.594 0 01-.856.36h-.3a2.518 2.518 0 01-1.621-.501c.094.494.314.957.643 1.336a2.78 2.78 0 002.217.957 1.188 1.188 0 01-.422.889 2.208 2.208 0 01-.965.361s1.261.256 1.398 2.117c-.003.473.112.939.333 1.358l-.018-.015z" fill="#222220"/><path d="M8.716 11.14h.003c.138 0 .279-.021.409-.065a1.93 1.93 0 00.845-.722c.27-.376.621-.69 1.026-.921l.505-.271-.47-.329a1.65 1.65 0 00-.866-.263c-.401.003-.78.173-1.051.47-.361.418-.86.704-1.405.805l-.51.025.206.47c.253.49.755.798 1.308.801zm.65-1.856c.202-.228.491-.361.798-.361.235.003.466.075.665.202-1.022.545-1.235 1.42-1.806 1.618a.912.912 0 01-.296.05c-.42 0-.802-.23-.997-.599a2.768 2.768 0 001.636-.91zm1.65 5.93a5.739 5.739 0 01.817-3.275 2.95 2.95 0 00.755 3.099s-2.008-2.406.798-4.87c1.124-.938 2.348-1.516 2.98-1.928-2.283.744-3.399-.076-3.399-.076.64.499 1.463.694 2.258.531-.16.076-.325.159-.502.253-1.926 1.047-3.666 2.77-3.952 5.154v-.018c-.448 2.34-1.445 2.94-1.445 2.94.791-.39 1.293-1.444 1.413-1.806.133 2.06 1.137 3.486 2.311 4.859.358.411.64.888.824 1.405a3.237 3.237 0 00-.65-1.416c-1.084-1.319-2.131-2.973-2.207-4.851zm8.951-4.348a.587.587 0 01.48-.16v.684a.998.998 0 01-.13.48H21a1.018 1.018 0 01-.13-.48v-.683a.583.583 0 01.477.159v-.473h-1.38v.473zm-.285-3.276h-.007c.105.09.227.162.361.206l.087.04v-.449l-.802-.335a.8.8 0 00.361.538zm1.904-.004l-.004.004a.795.795 0 00.361-.538l-.802.335v.445l.083-.04c.134-.043.257-.116.362-.206z" fill="#222220"/><path d="M23.024 5.776c0-.675-1.137-1.282-2.39-1.282-1.254 0-2.392.607-2.392 1.282l.025.167.502 2.89-.502.292-1.311.744s-.293.152-.43.242c-.495.361-.6.845-.314 1.055a.982.982 0 011-.838c.416.01.802.22 1.037.563.072.087.137.18.195.275.076.122.152.23.228.335h-3.345c.282.485.444 1.03.48 1.59v7.43c0 1.806 1.384 2.655 2.89 2.655 1.156 0 1.311-.055 1.947.581.636-.636.791-.581 1.947-.581 1.495 0 2.89-.856 2.89-2.655v-7.423a3.61 3.61 0 01.48-1.59H22.58a5.36 5.36 0 00.228-.335c.06-.094.126-.188.195-.275a1.31 1.31 0 011.04-.563.983.983 0 011 .838c.29-.206.185-.723-.314-1.055a4.793 4.793 0 00-.426-.242l-1.3-.766-.503-.292.503-2.89.021-.152zm-4.298.333l1.763.596v2.767l-1.297-.687-.466-2.676zm-2.677 5.88h3.038c.235.246.524.44.842.564a1.08 1.08 0 00.047.722c.115.242.321.43.574.527.047.416.329.763.722.9-.216.22-.43.426-.516.509l-2.02-.032a.35.35 0 01-.158-.149v-.025l.329.054h.021c.065 0 .12-.043.13-.108a.133.133 0 00-.108-.152l-.405-.065.448-1.553-.426-.896-.683.723-.043 1.614-.459-.072a.128.128 0 00-.152.105v.003a.133.133 0 00.109.152l.191.029a.759.759 0 00-.119.076l-.04.029v.047c-.09.412.076.838.416 1.083v.058a.266.266 0 00.216.3h.044a.256.256 0 00.25-.202c.086.003.169.003.255 0h.055l2.647.48.044-.029c.21-.148 1.015-.722 1.278-.928.076.065.163.123.253.166-.123.38-.029.795.246 1.084H16.29v-3.905a3.27 3.27 0 00-.242-1.109zm6.3 3.572c-.275.203-.95.694-1.196.867l-2.402-.419v-.065c.04-.162.062-.328.065-.495l2.023.033.04-.04c.032-.032.671-.65.997-1.008.086.109.187.2.303.271-.058.297.004.604.17.856zm-4.013-.433v.01a.63.63 0 00.231.246 2.934 2.934 0 01-.043.438c0 .032 0 .065-.026.097v.05c-.166 0-.328-.025-.487-.075a.78.78 0 01-.405-.799c.13-.09.278-.148.434-.17a.3.3 0 01.296.203zm-.25-.48l.04-1.528.361-.361.22.458-.429 1.488-.191-.057zm4.245 8.047h-.347l.27-.885c.044-.123-.18-.281-.274-.422.22.133.448.252.683.36 0 .03-.332.947-.332.947zm.928-.99l-.029-.025-.188.976c-.119 0-.245.025-.36.032l.198-.94c.058-.277-.69-.36-1.059-.913a1.156 1.156 0 01-.863.264 4.369 4.369 0 01-.813-.087.92.92 0 00-.14 0 .303.303 0 00-.278.148l-.055.09-1.03-.249-.245.426a.148.148 0 00.018.188l.069.076a1.434 1.434 0 01-.26.361l-.152-.188a.546.546 0 01.025-.606l.405-.683.863.13-.133-.307c-.181-.405.094-.921.122-1.217 0 .09-.093.108-.187.108h-.25a.157.157 0 00-.058 0l-.234.14-.184-.169a.131.131 0 01.025-.159l.426-.48-.506-.589.723.361.216-.26c.058.058.033.21.033.21.524.13.889.607.874 1.148v.105a.523.523 0 00.318.228l.979.097a3.38 3.38 0 01.596-.126.91.91 0 01.491.148.457.457 0 01.235-.08h.032c.437 0 .622.398.856.723.177.249.416.625.416.625a.366.366 0 01-.304.162.741.741 0 01-.126 0c-.47-.087-.538-1.055-.806-1.13h-.043a.14.14 0 00-.123.076c.123.328.05.462.184.722.098.155.22.296.362.415 0 0-.018.145-.04.25zm-5.263-.946h-.007l.043.112c-.029.098-.36.239-.36.239l-.073-.16a.534.534 0 01.173-.635l.546-.332.581.122a.515.515 0 00.101.322l-.61-.116-.361.253a.155.155 0 00-.033.195zm6.986-.235a2.039 2.039 0 01-1.643 2.08l.166-.873c0-.05.018-.112.025-.163.05.022.101.036.152.047.057.004.115.004.173 0a.63.63 0 00.506-.249l.13-.152-.109-.148s-.242-.383-.422-.636l-.101-.151c-.203-.304-.46-.686-.968-.686h-.047a.745.745 0 00-.217.043 1.135 1.135 0 00-.499-.116 1.537 1.537 0 00-.509.098l-.087.025-.953-.094a.24.24 0 01-.098-.083l.206-.083c-.058-.69-.722-1.113-1.083-1.253a.4.4 0 00-.109-.195l-.206-.195-.18.216-.09.109-1.337-.55.87 1.084-.343.52a.188.188 0 000 .268l.362.245.36-.137h.037c0 .054-.04.274-.058.336l-.628-.108-.672.36a.795.795 0 00-.257.983l.076.163.105.23.235-.097a.724.724 0 00.1.694l.142.18.188.239.209-.224a1.51 1.51 0 00.322-.473l.043-.145-.101-.112V21.5l.115-.188.835.195.188.043.1-.166.055-.09c0-.018 0-.022.05-.022h.09c.286.058.575.087.864.09.195.011.39-.01.578-.068l.462.527-.274.845v.05a1.444 1.444 0 00-1.084.463c-.444-.44-.758-.487-1.947-.487-1.427 0-2.39-.835-2.39-2.168v-3.25h8.668v3.25zm.235-8.535a3.14 3.14 0 00-.242 1.109v2.434a.726.726 0 01-.571-.657v-.112h-.108a.77.77 0 01-.492-.235 1.025 1.025 0 01-.249-.657.725.725 0 00.04.816c.14.177.347.296.57.325.066.42.402.745.82.799v1.192h-1.517a.838.838 0 01-.386-1.084l.058-.13-.134-.05a.852.852 0 01-.534-1.059l.028-.108-.1-.047a1.08 1.08 0 01-.528-1.084.665.665 0 00-.123.762c-.072.083-.166.18-.27.29a.843.843 0 01-.669-.795v-.09l-.083-.033a.834.834 0 01-.506-.42.825.825 0 01-.036-.526c.072.014.145.025.217.032.072.004.148.004.22 0 .585 0 1.142-.253 1.532-.686l3.063.014zm-2.34-2.463l.591.36.149.088a1.74 1.74 0 00-.806.48l-.025.022a3.06 3.06 0 00-.145.166l-.028.036c-.047.058-.09.12-.13.184l-.022.033a3.93 3.93 0 00-.145.23 2.13 2.13 0 01-1.694 1.164 2.13 2.13 0 01-1.694-1.163 13.03 13.03 0 00-.14-.231l-.03-.04-.115-.188-.033-.04a3.223 3.223 0 00-.14-.162l-.026-.025a1.74 1.74 0 00-.805-.48l.151-.088.596-.36.61-.362 1.63.885 1.629-.856.621.347zm-.803-.723l-1.297.683V6.708l1.76-.596-.463 2.691zM20.63 6.416l-1.928-.773c.162-.39.92-.723 1.928-.723s1.767.333 1.93.723l-1.93.773z" fill="#222220"/></svg>