<svg width="120" height="30" fill="none" xmlns="http://www.w3.org/2000/svg"><path d="M14.471 5.472h18.834v18.834H14.471V5.472z" fill="#FFED00"/><path d="M56.118 16.914l-.486 3h2.928l.486-3H61.2l-1.32 8.07h-2.136l.558-3.462h-2.928l-.558 3.462h-2.16L54 16.914h2.142-.024zm8.532 0H62.4l-1.35 8.07h2.208l.6-3.486 2.28 3.51H69l-3-4.254 4.02-3.816h-2.7l-3.234 3.324.564-3.348zm-15.3 5.046l-.468-2.58-1.35 2.58h1.818zm.324 1.602h-3.048l-.81 1.398h-2.352l4.602-8.07h2.4l1.86 8.07H49.98l-.306-1.398zm-5.79-1.026A2.706 2.706 0 0143.236 24c-.858.882-2.16.93-3 .954h-3.234l1.398-8.04h5.508l-.258 1.578h-3.342l-.258 1.602h.954a3.468 3.468 0 012.28.654 1.915 1.915 0 01.6 1.8v-.012zm-3.486-.936h-.6l-.3 1.722h.558c1.254 0 1.512-.348 1.584-.816.072-.468 0-.906-1.254-.906h.012zM96.186 9.438h2.232a1.075 1.075 0 00-1.092-.858 1.05 1.05 0 00-1.14.858zm4.014.918v.21h-4.044a1.074 1.074 0 00.309.891 1.078 1.078 0 00.89.309.923.923 0 00.907-.51h1.86c-.3 1.302-1.512 1.884-2.742 1.884-1.8 0-3.138-1.02-3.138-2.928a2.773 2.773 0 01.832-2.147 2.779 2.779 0 012.168-.78c1.884-.001 2.952 1.199 2.952 3.071h.006zM46.86 8.892a1.2 1.2 0 00-1.26 1.23 1.201 1.201 0 001.23 1.23 1.157 1.157 0 001.23-1.23 1.201 1.201 0 00-1.23-1.23h.03zm3.06-1.512v5.49H48v-.6a1.866 1.866 0 01-1.626.792 2.79 2.79 0 01-2.718-2.928A2.786 2.786 0 0146.35 7.2a2.148 2.148 0 011.65.714V7.38h1.92zm28.11 1.512a1.201 1.201 0 00-1.23 1.23 1.194 1.194 0 00.35.879 1.205 1.205 0 00.88.351 1.158 1.158 0 001.23-1.23 1.194 1.194 0 00-.351-.879 1.205 1.205 0 00-.88-.351zm3.072-1.512v5.49H79.2v-.6a1.866 1.866 0 01-1.626.792 2.791 2.791 0 01-2.718-2.928 2.786 2.786 0 012.7-2.928 2.15 2.15 0 011.674.72V7.38h1.872zm-43.8 5.49V4.8h3.258c2.184 0 2.814 1.56 2.814 2.652a2.58 2.58 0 01-2.814 2.676h-1.2v2.742h-2.058zm2.07-6.324V8.4h.696c.954 0 1.044-.6 1.044-.906 0-.306-.138-.906-1.044-.906h-.6l-.072-.042h-.024zm11.766.84v5.49h1.86l1.908-3v3h1.932V7.38h-1.86l-1.908 2.952V7.38l-1.932.006zm3-.696a2.202 2.202 0 002.184-1.29l-1.254-.468a.87.87 0 01-.906.672.858.858 0 01-.906-.672l-1.254.468a2.22 2.22 0 002.16 1.278l-.024.012zm6.672 8.568V12.96c-1.14 0-3.048-.468-3.048-2.838s1.884-2.814 3.048-2.814v-2.4h1.932v2.4c1.164 0 3 .468 3 2.814s-1.884 2.838-3 2.838v2.328l-1.932-.03zm1.8-6.6v3.048c.654 0 1.302-.468 1.302-1.536s-.654-1.536-1.302-1.512zm-1.674 3v-3c-.654 0-1.302.468-1.302 1.536s.654 1.512 1.302 1.488v-.024zm8.532 3.624V12.96c-1.14 0-3.048-.468-3.048-2.838s1.884-2.814 3.048-2.814v-2.4H71.4v2.4c1.164 0 3.048.468 3.048 2.814S72.564 12.96 71.4 12.96v2.328h-1.932v-.006zm1.8-6.6v3.048c.654 0 1.302-.468 1.302-1.536s-.654-1.536-1.302-1.512zm-1.698 3v-3c-.654 0-1.326.468-1.326 1.536a1.331 1.331 0 00.35 1.036 1.336 1.336 0 001.006.428h-.03zM82.362 7.38v5.49h1.86l1.908-3v3h1.932V7.38h-1.86l-1.932 2.928V7.38h-1.908zm3-.696A2.203 2.203 0 0087.504 5.4l-1.254-.468a.87.87 0 01-.906.672.847.847 0 01-.906-.672l-1.26.468a2.22 2.22 0 002.16 1.278l.024.006zm4.14 2.274a2.64 2.64 0 011.416-.468c.234 0 .768.048.768.486s-.468.468-.648.468h-.954v1.2h.84c.282 0 .792 0 .792.468 0 .186-.114.534-.792.534a2.945 2.945 0 01-1.65-.51L88.8 12.45a4.89 4.89 0 002.466.648c2.208 0 2.49-1.278 2.49-1.698a1.362 1.362 0 00-1.116-1.35 1.347 1.347 0 00.792-1.278c0-1.278-1.35-1.536-2.184-1.536a5.459 5.459 0 00-2.256.534l.51 1.188zm11.67 3.906h1.932V10.68h1.77v2.184h1.926V7.38h-1.932v1.932h-1.77V7.38h-1.932l.006 5.484zM33.96 24.96H13.8V4.8h20.16v20.16zm-.654-19.488H14.472v18.834h18.834V5.472z" fill="#000"/><path d="M23.891 17.19l-5.79 5.79-2.304-2.304 5.802-5.784-1.2-1.2v-2.4l-.84-.84v2.07l-.72.72-2.952-2.904-.72.72a4.896 4.896 0 011.464-3.462 2.544 2.544 0 013.558-.234l2.928 2.952-.744.744 1.518 1.542 1.536-1.536-.744-.744L27.6 7.356a2.538 2.538 0 013.558.234 4.896 4.896 0 011.464 3.462l-.72-.72-2.952 2.928-.72-.72v-2.088l-.834.84v2.4l-1.2 1.2 5.79 5.79-2.304 2.298-5.79-5.79z" fill="#000"/></svg>