<svg width="140" height="34" fill="none" xmlns="http://www.w3.org/2000/svg"><path d="M29.8 5.78c-1.917 0-3.79.552-5.383 1.586a9.475 9.475 0 00-3.568 4.224 9.162 9.162 0 00-.551 5.437 9.332 9.332 0 002.651 4.819 9.78 9.78 0 004.96 2.576 9.953 9.953 0 005.598-.536 9.633 9.633 0 004.348-3.466 9.221 9.221 0 001.633-5.229c0-1.236-.25-2.46-.736-3.602a9.392 9.392 0 00-2.1-3.054 9.705 9.705 0 00-3.144-2.04A9.93 9.93 0 0029.8 5.78zm-1.4 13.403l-.7 2.04a6.649 6.649 0 01-3.246-2.372 6.346 6.346 0 01-1.225-3.763 6.349 6.349 0 011.25-3.754 6.652 6.652 0 013.262-2.351l.7 2.04a4.325 4.325 0 00-2.147 1.551 4.127 4.127 0 00-.8 2.481 3.993 3.993 0 00.732 2.55 4.192 4.192 0 002.188 1.578h-.015zm3.303 2.128l-.7-2.08a4.392 4.392 0 002.195-1.543 4.19 4.19 0 00.848-2.499 4.188 4.188 0 00-.822-2.507 4.39 4.39 0 00-2.178-1.564l.7-2.08a6.633 6.633 0 013.303 2.367 6.327 6.327 0 011.24 3.801 6.331 6.331 0 01-1.296 3.784 6.64 6.64 0 01-3.339 2.321h.05z" fill="#00BEF0"/><path d="M46.368 30.9h-1.52v-4.34h2.633v.436h-2.1v1.36h.98c.896 0 1.477.347 1.477 1.217v.041c0 .85-.581 1.285-1.47 1.285zm0-.388c.7 0 .938-.306.938-.823v-.04c0-.524-.315-.824-.98-.824h-.945v1.694l.987-.007zm1.967-.476c0-.735.805-1 1.652-1h.49v-.218c0-.523-.182-.734-.7-.734s-.7.177-.756.564h-.54a1.132 1.132 0 01.43-.765 1.167 1.167 0 01.866-.234 1.093 1.093 0 01.884.28 1.03 1.03 0 01.32.849v2.08H50.4v-.394c-.115.16-.27.287-.45.37-.18.083-.38.12-.58.106-.545 0-1.07-.258-1.07-.911l.035.007zm2.142-.218v-.388h-.448c-.7 0-1.113.177-1.113.606 0 .428.182.523.623.523.44 0 .938-.272.938-.748v.007zm3.5-.306h-1.61v1.428H51.8v-3.169h.539v1.36h1.61v-1.36h.539v3.17h-.54l.029-1.429zm1.967-.218V30.9h-.54v-3.17h.54v1.476l1.337-1.476h.623l-1.4 1.476 1.519 1.693H57.4l-1.456-1.605zm62.538-12.41l1.071 1.258a4.922 4.922 0 01-1.656 1.084 5.03 5.03 0 01-1.963.351 5.797 5.797 0 01-2.499-.476 4.019 4.019 0 01-1.643-1.583 3.867 3.867 0 01-.492-2.198c0-2.556 1.785-4.467 4.424-4.467 2.947 0 4.375 2.128 4.151 4.903h-6.699c.022.34.127.671.306.966.179.294.427.543.723.727a3.353 3.353 0 001.834.435 3.43 3.43 0 001.328-.254c.42-.172.799-.426 1.115-.745zm-5.222-2.645h4.732a2.149 2.149 0 00-.789-1.371 2.267 2.267 0 00-1.535-.492 2.41 2.41 0 00-1.559.5 2.288 2.288 0 00-.849 1.363zm-45.01 5.12h2.408l-3.794-4.297 3.752-4.032H68.25l-2.856 3.21h-.854v-3.21h-1.827v8.282h1.827v-3.291h.847l2.863 3.339zm7.903-6.8a2.63 2.63 0 00-1.027.198c-.324.133-.618.33-.86.578a2.49 2.49 0 00-.552.864 2.43 2.43 0 00-.151 1.006 2.448 2.448 0 00.702 1.87c.243.248.537.445.861.578.325.133.674.2 1.027.197.351.006.7-.06 1.024-.193.323-.133.614-.33.854-.58a2.388 2.388 0 00.67-1.872 2.38 2.38 0 00-.126-1.01 2.439 2.439 0 00-.538-.872 2.51 2.51 0 00-.857-.583 2.58 2.58 0 00-1.027-.194v.014zm.315-1.692c2.408 0 4.2 1.822 4.2 4.338s-1.743 4.38-4.2 4.38a3.76 3.76 0 01-1.52-.249 3.672 3.672 0 01-1.28-.833v4.338H71.82V11.03h1.834v1a3.385 3.385 0 011.262-.9 3.48 3.48 0 011.545-.25l.007-.014zm24.29.176H93.1v1.646h2.905v6.623h1.876v-6.596h2.919V11.03l-.042.013zm-39.34 0H53.78v1.646h2.92v6.623h1.876v-6.596h2.884V11.03l-.042.013zm-9.92 4.148c0-.69-.282-1.353-.785-1.841a2.722 2.722 0 00-1.895-.763 2.72 2.72 0 00-1.896.763 2.567 2.567 0 00-.785 1.841c0 .691.282 1.353.785 1.842a2.722 2.722 0 001.896.763c.71 0 1.393-.275 1.895-.763a2.569 2.569 0 00.786-1.842zm-7.23 0a4.373 4.373 0 01.73-2.505A4.567 4.567 0 0147.043 11a4.723 4.723 0 012.664-.29c.898.162 1.726.58 2.378 1.201a4.432 4.432 0 011.285 2.286c.184.87.099 1.772-.246 2.593a4.497 4.497 0 01-1.693 2.02c-.758.495-1.65.76-2.564.76a4.543 4.543 0 01-1.767-.285 4.44 4.44 0 01-1.506-.94c-.43-.41-.77-.902-.999-1.445a4.188 4.188 0 01-.327-1.71zm65.555-4.161v8.282h-1.834v-5.331l-4.466 5.338h-1.477v-8.29h1.834v5.38l4.466-5.338h1.477v-.041zm-17.955 8.33h-1.834v-8.33h1.834v8.33zm-4.781-2.863a1.168 1.168 0 00-.346-.894 1.263 1.263 0 00-.908-.364H84v2.557h1.876a1.276 1.276 0 00.896-.395 1.206 1.206 0 00.322-.904h-.007zm1.876 0c.008.384-.066.765-.217 1.12a2.766 2.766 0 01-.663.94 2.86 2.86 0 01-.996.602 2.927 2.927 0 01-1.162.16H82.13v-8.29H84v2.72h2.1c.379-.022.76.034 1.115.163.355.13.68.33.95.59.27.259.482.57.62.914.14.344.202.712.185 1.08h-.007z" fill="#000"/></svg>