<svg width="120" height="30" fill="none" xmlns="http://www.w3.org/2000/svg"><path d="M38.659 4.008l-7.332 7.326h7.332v14.658l7.326-7.308V4.008h-7.326z" fill="#EA5616"/><path d="M31.326 25.992l7.332-7.326h-7.332V4.008L24 11.316v14.676h7.326zm21.99-3.666h3.846V10.968H63v11.358h3.846V7.674h-13.53v14.652zm37.374-9.168h-3.288v-2.19h7.32v-3.3H83.55v14.658h7.32c2.934 0 5.13-1.47 5.13-4.584s-2.196-4.584-5.316-4.584h.006zm-.372 6.042h-2.922v-2.916h2.922c.906 0 1.8.36 1.8 1.458 0 1.098-.918 1.458-1.8 1.458zm-14.034 0c-2.568 0-4.014-1.884-4.014-4.2 0-1.866 1.05-4.2 3.936-4.2a4.423 4.423 0 013.378 1.614l2.34-2.34a7.676 7.676 0 00-5.898-2.754A7.432 7.432 0 0068.4 15a7.63 7.63 0 009.968 7.325 7.632 7.632 0 003.832-2.77l-2.352-2.353a4.153 4.153 0 01-3.6 2.01" fill="#2C2D84"/></svg>