<svg width="104" height="23" fill="none" xmlns="http://www.w3.org/2000/svg"><path d="M35.93 5.332c-.2-.517-.44-.636-1.037-.636h-1.556c-.558 0-.797.119-.997.676l-4.865 12.893c-.199.557-.08.796.559.796h1.395c.997 0 1.277-.16 1.476-.756l.638-1.91h5.025l.638 1.91c.199.596.478.756 1.515.756h1.515c.598 0 .758-.279.559-.796L35.928 5.332zm-3.51 8.396l1.077-3.143c.478-1.433.478-2.467.478-2.467h.2s.04 1.034.518 2.507l1.037 3.143h-3.31v-.04zm17.347-9.072h-9.65c-.639 0-.838.199-.838.835v1.353c0 .597.2.796.838.796h3.19v10.545c0 .637.2.836.797.836h1.635c.638 0 .838-.2.838-.836V7.68h3.15c.638 0 .837-.199.837-.796V5.531c0-.636-.199-.875-.797-.875zm8.653 5.292h-3.27V7.6h6.102c.598 0 .837-.238.837-.835V5.49c0-.636-.24-.835-.837-.835h-8.614c-.598 0-.837.199-.837.835v12.774c0 .597.239.796.797.796h5.782c2.792 0 4.626-1.751 4.626-4.537.04-2.825-1.794-4.576-4.586-4.576zm-.478 6.168H55.11v-3.223h2.832c1.076 0 1.675.636 1.675 1.631.04.955-.599 1.592-1.675 1.592zm11.484 5.452h.24V2.148h-.24v19.42zM76.923 7.72c-.2 0-.518-.08-.678-.239l-.12.2c.16.158.56.278.838.278.519 0 .878-.24.878-.637a.516.516 0 00-.479-.517c.28-.12.399-.319.399-.518 0-.358-.28-.557-.798-.557-.319 0-.638.12-.797.279l.12.199a1.05 1.05 0 01.677-.239c.32 0 .559.12.559.358 0 .239-.2.398-.44.398h-.358v.199h.359c.319 0 .518.12.518.358-.04.279-.279.438-.678.438zM87.77 5.77h-.24v2.149h.24V5.77zm5.623.836h-1.117v.238h1.117v-.238zm-4.028 1.313l-1.156-1.114 1.076-1.035h-.319L87.93 6.805l1.116 1.114h.319zm-9.251-1.79v1.79h.239V5.77h-.24l-1.435 1.79V5.77h-.24v2.149h.24l1.436-1.79zm-6.74.636h1.595l.479 1.154h.279l-1.476-3.383h-.199L72.577 7.92h.279l.518-1.154zm.798-1.87l.678 1.631h-1.396l.718-1.631zm9.61 3.024h.24v-1.91h.877V5.77h-1.954v.239h.877v1.91h-.04zm6.86-2.229c-.679 0-1.117.478-1.117 1.115a1.09 1.09 0 001.116 1.114c.678 0 1.117-.478 1.117-1.114 0-.637-.439-1.115-1.117-1.115zm0 2.03c-.52 0-.878-.358-.878-.876 0-.517.359-.875.877-.875s.877.358.877.875c-.04.518-.398.876-.877.876zm-8.893-2.03c-.24 0-.48.08-.678.2l.08.198a1.04 1.04 0 01.598-.159c.558 0 .558.319.558.836-.16-.12-.399-.16-.598-.16-.479 0-.838.24-.838.677 0 .398.28.637.678.637.399 0 .598-.16.758-.358v.318h.239V6.526c0-.517-.2-.836-.797-.836zm.558 1.672c-.12.159-.28.358-.678.358-.28 0-.479-.16-.479-.438 0-.318.28-.438.599-.438.239 0 .398.04.558.16v.358zm4.745.238l-.12-.198a.963.963 0 01-.677.278c-.519 0-.918-.358-.918-.875 0-.518.4-.876.838-.876.24 0 .478.08.678.239l.12-.199c-.2-.199-.519-.279-.838-.279-.598 0-1.077.478-1.077 1.115 0 .676.479 1.114 1.157 1.114a.94.94 0 00.837-.319zm3.669 3.502c-.24 0-.479.08-.678.2l.08.198c.2-.12.359-.159.598-.159.558 0 .558.318.558.836-.16-.12-.399-.16-.598-.16-.478 0-.837.24-.837.677 0 .398.279.637.678.637.398 0 .598-.16.757-.358v.318h.24v-1.353c.04-.517-.16-.836-.798-.836zm.558 1.671c-.12.16-.279.359-.678.359-.279 0-.478-.16-.478-.438 0-.318.279-.438.598-.438.24 0 .399.04.558.16v.357zm-4.028-1.631h-.319l-1.036 1.035 1.116 1.114h.32l-1.157-1.114 1.076-1.035zm6.62.955h-1.395v-.955h-.24v2.149h.24v-.955h1.395v.995h.24v-2.189h-.24v.955zm-5.343-.995c-.718 0-1.077.478-1.077 1.114 0 .677.479 1.115 1.156 1.115.28 0 .599-.12.798-.319l-.08-.199a.99.99 0 01-.718.279c-.518 0-.877-.319-.877-.836h1.794v-.199c0-.557-.438-.955-.996-.955zm-.838.955c.04-.438.32-.716.798-.716.438 0 .757.279.757.716H87.69zm11.963.876v-1.791h-.239v2.149h.24l1.435-1.79v1.79h.239v-2.149h-.239l-1.436 1.79zm4.108-1.791l-1.436 1.79v-1.79h-.239v2.149h.239l1.436-1.79v1.79H104v-2.149h-.239zm-.718-.517c.399 0 .638-.279.638-.597h-.239c0 .239-.16.438-.439.438s-.439-.2-.439-.438h-.239c.08.358.319.597.718.597zm-29.19 2.666h.279v-3.104h1.236v-.239h-2.751v.239h1.236v3.104zm21.972-.16c-.518 0-.917-.357-.917-.875 0-.517.399-.875.837-.875.24 0 .479.08.678.239l.12-.2c-.2-.198-.519-.278-.838-.278-.598 0-1.076.478-1.076 1.114 0 .677.478 1.114 1.156 1.114.32 0 .638-.119.798-.358l-.12-.199c-.08.16-.359.319-.638.319zm3.07-1.989h-.318l-1.037 1.035 1.116 1.114h.32l-1.157-1.114 1.077-1.035zm-1.794 2.149h.24v-2.149h-.24v2.149zm-13.319-2.189c-.678 0-1.116.478-1.116 1.114a1.09 1.09 0 001.116 1.115c.678 0 1.117-.478 1.117-1.115 0-.636-.439-1.114-1.117-1.114zm0 2.03c-.518 0-.877-.358-.877-.876 0-.517.359-.875.877-.875.519 0 .877.358.877.875a.884.884 0 01-.877.876zm-1.595-.916a1.09 1.09 0 00-1.116-1.114c-.678 0-1.117.478-1.117 1.114a1.09 1.09 0 001.117 1.115c.678 0 1.116-.438 1.116-1.115zm-1.994 0c0-.517.36-.875.878-.875s.877.358.877.875c0 .518-.359.876-.877.876-.519.04-.878-.358-.878-.876zm5.264 1.075h.24v-2.149h-.24v2.149zm-6.021 0h.319l-.878-1.114.798-1.035h-.28l-.677.875-.678-.875h-.32l.798 1.035-.877 1.114h.28l.757-.955.758.955zm-2.513 0h.24v-2.149h-.24l-1.435 1.79v-1.79h-.24v2.149h.24l1.435-1.79v1.79zm5.424 3.263h-.32l-1.036 1.034 1.116 1.115h.32l-1.157-1.115 1.077-1.034zm-5.822-.08c-.24 0-.479.08-.678.2l.08.198c.199-.12.358-.16.597-.16.519 0 .559.32.559.837-.16-.12-.399-.16-.598-.16-.479 0-.838.24-.838.677 0 .398.28.637.678.637.399 0 .598-.16.758-.359v.359h.24V17.35c0-.558-.2-.876-.798-.876zm.518 1.671c-.12.16-.28.359-.678.359-.28 0-.478-.16-.478-.438 0-.319.279-.438.598-.438.239 0 .398.04.558.16v.357zm3.549.558h.24v-2.15h-.24v2.15zm-.957-1.234h-1.396v-.955H78v2.189h.24v-.995h1.395v.995h.24v-2.15h-.24v.916zm-5.663-.756c-.12 0-.358 0-.558.04v-1.154h1.595v-.239h-1.834v3.343h.758c.797 0 1.276-.359 1.276-1.035-.04-.597-.44-.955-1.237-.955zm-.04 1.75h-.518v-1.472c.2-.04.399-.04.558-.04.638 0 .958.28.958.717 0 .517-.36.796-.998.796z" fill="#373A36"/><path d="M19.22 0H3.829A3.825 3.825 0 000 3.82v15.36A3.825 3.825 0 003.828 23h15.353a3.825 3.825 0 003.828-3.82V3.82C23.05 1.711 21.334 0 19.221 0zm2.633 18.782c-.04.04-.12.08-.16.04a19.612 19.612 0 00-10.169-2.825 19.611 19.611 0 00-10.168 2.825c-.04.04-.12 0-.16-.04-.04-.08 0-.12.04-.16 2.712-2.068 5.025-4.695 6.82-7.799a26.482 26.482 0 003.349-9.788c0-.04.04-.12.12-.12.08 0 .12.04.12.12a26.482 26.482 0 003.349 9.788 26.245 26.245 0 006.819 7.76c.08.08.08.12.04.199z" fill="#FE5000"/></svg>