<svg width="140" height="36" fill="none" xmlns="http://www.w3.org/2000/svg"><g clip-path="url(#clip0)"><path d="M65.31 12.744l-4.41 4.608h-1.75v-4.608H57.4V23.76h1.75v-4.608h1.75l4.41 4.608h2.31l-5.25-5.472 5.32-5.544h-2.38zM23.8 15.912c.35-.504.84-.936 1.4-1.224a3.913 3.913 0 014.41.576l1.4-1.44c-.7-.648-1.54-1.152-2.45-1.368-.91-.216-1.89-.288-2.8 0-.91.216-1.75.648-2.52 1.296-.7.648-1.26 1.44-1.61 2.376-.35.936-.49 1.872-.35 2.88.14.936.42 1.872.98 2.664s1.26 1.44 2.1 1.944c.84.504 1.75.72 2.73.72 1.4 0 2.8-.504 3.85-1.512l-1.4-1.368c-.49.432-1.05.72-1.68.792-.63.144-1.26.144-1.82-.072-.63-.144-1.12-.504-1.61-.936-.49-.432-.77-1.008-.98-1.584a4.184 4.184 0 01-.21-1.872c0-.72.21-1.368.56-1.872zm-21.28-3.96C.91 13.608 0 15.912 0 18.216c0 2.304.91 4.608 2.52 6.264 1.61 1.656 3.85 2.592 6.09 2.592h.35V23.76h-.35c-1.4-.072-2.73-.648-3.64-1.656-.98-1.008-1.47-2.376-1.47-3.816s.56-2.808 1.47-3.816c.98-1.008 2.31-1.656 3.64-1.656h.35V9.36h-.35c-2.24 0-4.48.936-6.09 2.592zm39.62 2.016c-1.12-1.152-2.59-1.728-4.13-1.728-1.12 0-2.31.36-3.22 1.008-.98.648-1.68 1.584-2.17 2.664a6.462 6.462 0 00-.35 3.456 5.997 5.997 0 001.61 3.096c.84.864 1.82 1.44 3.01 1.656 1.12.216 2.31.144 3.36-.36 1.05-.432 1.96-1.224 2.59-2.232.63-1.008.98-2.16.98-3.312.07-1.584-.56-3.096-1.68-4.248zm-.49 5.832c-.21.504-.49.936-.84 1.296s-.77.648-1.26.864c-.49.216-.98.288-1.47.288-.77 0-1.54-.216-2.17-.648-.63-.432-1.12-1.08-1.47-1.8a4.28 4.28 0 01-.21-2.304c.14-.792.49-1.512 1.05-2.088a3.761 3.761 0 012.03-1.08 3.947 3.947 0 012.24.216c.7.288 1.33.792 1.75 1.512.42.648.63 1.44.63 2.232 0 .504-.14 1.008-.28 1.512z" fill="#FF4B5F"/><path d="M77.63 13.968c-1.12-1.152-2.59-1.728-4.13-1.728-1.12 0-2.31.36-3.22 1.008-.98.648-1.68 1.584-2.17 2.664a6.462 6.462 0 00-.35 3.456 5.997 5.997 0 001.61 3.096c.84.864 1.82 1.44 3.01 1.656 1.12.216 2.31.144 3.36-.36 1.05-.432 1.96-1.224 2.59-2.232.63-1.008.98-2.16.98-3.312.07-1.584-.56-3.096-1.68-4.248zm-.49 5.832c-.21.504-.49.936-.84 1.296s-.77.648-1.26.864c-.49.216-.98.288-1.47.288-.77 0-1.54-.216-2.17-.648-.63-.432-1.12-1.08-1.47-1.8a4.28 4.28 0 01-.21-2.304c.14-.792.49-1.512 1.05-2.088a3.761 3.761 0 012.03-1.08 3.947 3.947 0 012.24.216c.7.288 1.33.792 1.75 1.512.42.648.63 1.44.63 2.232 0 .504-.07 1.008-.28 1.512zm14.42-7.056l-4.34 5.328-4.34-5.328v.072-.072h-1.75V23.76h1.75v-8.064l4.34 5.328 4.34-5.256v7.992h1.68V12.744h-1.68zm-37.31 5.472c.28-.288.56-.648.7-1.08.14-.432.28-.792.28-1.224 0-.432-.07-.864-.21-1.224-.14-.36-.35-.72-.7-1.008-.28-.288-.63-.504-.98-.72a3.189 3.189 0 00-1.19-.216h-6.3V23.76h6.3c.84 0 1.61-.36 2.17-.936.56-.576.91-1.368.91-2.232 0-.432-.07-.864-.28-1.296-.14-.432-.42-.792-.7-1.08zM53.13 21.6c-.28.288-.63.432-.98.432H47.6v-2.88h4.55c.35 0 .7.144.98.432.28.288.42.648.42 1.008s-.14.72-.42 1.008zm.56-5.04c-.07.216-.21.36-.35.504-.14.144-.35.216-.56.288a.946.946 0 01-.63 0H47.6v-2.808h4.55a.946.946 0 01.63 0c.21.072.42.144.56.288.14.144.28.288.35.504.07.216.14.432.14.648 0 .216-.07.36-.14.576z" fill="#FF4B5F"/><path d="M10.36 9.576v4.608H8.61c-1.05 0-2.03.432-2.8 1.224s-1.19 1.8-1.19 2.88c0 1.08.42 2.088 1.19 2.88.77.792 1.75 1.224 2.8 1.224h1.75V27a8.731 8.731 0 004.97-3.096 9.104 9.104 0 001.96-5.616c0-2.016-.7-4.032-1.96-5.616-1.26-1.656-3.01-2.736-4.97-3.096zm101.569 3.168h-1.959l-4.691 11.016h1.821l1.049-2.376h5.53l1.05 2.376h1.891l-4.691-11.016zm-3.009 6.912l2.03-4.68 2.029 4.68h-4.059zm31.079-6.912h-2.31l-4.479 4.608h-1.75v-4.608h-1.75V23.76h1.75v-4.608h1.75l4.41 4.608h2.309l-5.18-5.472 5.25-5.544zm-35.629 6.552c-.14-.36-.42-.72-.7-1.008-.28-.288-.63-.504-1.05-.72a3.194 3.194 0 00-1.191-.216h-4.55v-2.88h6.65v-1.8h-8.33V23.76h6.23c.84 0 1.61-.36 2.171-.936.56-.576.91-1.44.91-2.232.14-.432.07-.864-.14-1.296zm-1.891 2.304c-.28.288-.629.432-.979.432h-4.48v-2.88h4.48c.35 0 .699.144.979.432.28.288.42.648.42 1.008s-.14.72-.42 1.008zm23.381-4.248h-6.231v-4.608h-1.75V23.76h1.75v-4.608h6.231v4.608h1.75V12.744h-1.75v4.608z" fill="#003791"/></g><defs><clipPath id="clip0"><path fill="#fff" d="M0 0h140v36H0z"/></clipPath></defs></svg>