<svg width="2091" height="1514" fill="none" xmlns="http://www.w3.org/2000/svg"><rect width="216.889" height="216.889" rx="64" transform="matrix(.86603 .5 -.86603 .5 474.831 18)" fill="#F2F2F2"/><rect width="359" height="359" rx="63" transform="matrix(.86603 .5 -.86603 .5 743.903 1155)" fill="#F2F2F2"/><path d="M804.209 672.163L643.418 579.33l-160.79 92.833 321.581 185.665 321.581-185.665L965 579.33l-160.791 92.833zM965 950.661l160.79-92.833 160.79 92.833-160.79 92.829L965 950.661zm-481.836 92.519l160.254-92.519L965 1136.33l-160.255 92.52-321.581-185.67zm1124.996-92.519l-321.58-185.665 160.79-92.833 482.37 278.498-321.58 185.669-160.79-92.84 160.79-92.829zM965 1321.99l321.58-185.66 160.79 92.83-321.58 185.66L965 1321.99zM643.418 393.665l160.791 92.833L965 393.665l160.79 92.833 160.79-92.833L965 208 643.418 393.665z" stroke="#B4B4B4" stroke-width=".619"/><rect width="148" height="148" rx="46" transform="matrix(.86603 .5 -.86603 .5 1616.17 0)" fill="#F2F2F2"/></svg>