<svg width="32" height="32" fill="none" xmlns="http://www.w3.org/2000/svg"><path fill-rule="evenodd" clip-rule="evenodd" d="M25.333 2.667a4 4 0 014 4v18.666a4 4 0 01-4 4H6.667a4 4 0 01-4-4V6.667a4 4 0 014-4h18.666zm0 2.666H6.667c-.737 0-1.334.597-1.334 1.334v18.666c0 .737.597 1.334 1.334 1.334h18.666c.737 0 1.334-.597 1.334-1.334V6.667c0-.737-.597-1.334-1.334-1.334zM10.667 18.667c.736 0 1.333.597 1.333 1.333v2.667a1.333 1.333 0 11-2.667 0V20c0-.736.597-1.333 1.334-1.333zM16 8c.736 0 1.333.597 1.333 1.333v13.334a1.333 1.333 0 01-2.666 0V9.333C14.667 8.597 15.264 8 16 8zm5.333 5.333c.737 0 1.334.597 1.334 1.334v8a1.333 1.333 0 11-2.667 0v-8c0-.737.597-1.334 1.333-1.334z" fill="#6A69A9"/></svg>