<svg width="91" height="106" fill="none" xmlns="http://www.w3.org/2000/svg"><path transform="matrix(.86603 .5 -.86603 .5 45.5 0)" fill="url(#paint0_linear)" d="M0 0h52.539v52.539H0z"/><path transform="matrix(.86603 .5 0 1 0 26.269)" fill="url(#paint1_linear)" d="M0 0h52.539v52.539H0z"/><path transform="matrix(.86603 -.5 0 1 45.461 52.54)" fill="url(#paint2_linear)" d="M0 0h52.539v52.539H0z"/><path fill-rule="evenodd" clip-rule="evenodd" d="M57.655 19.198c6.467 3.734 6.467 9.787 0 13.52-6.466 3.734-16.95 3.734-23.417 0-6.466-3.733-6.466-9.786 0-13.52 6.467-3.733 16.95-3.733 23.417 0zm-2.342 1.352c-5.173-2.987-13.56-2.987-18.733 0s-5.173 7.829 0 10.816c5.173 2.986 13.56 2.986 18.733 0 5.174-2.987 5.174-7.83 0-10.816zm-1.17 5.128H41.748V23.93c0-.528-.741-.956-1.656-.956-.914 0-1.655.428-1.655.956v2.704c0 .528.74.956 1.655.956h14.05c.915 0 1.656-.428 1.656-.956s-.74-.956-1.655-.956zM22.162 51.376c6.467 3.733 11.709 12.813 11.709 20.28 0 7.466-5.242 10.493-11.709 6.76-6.466-3.734-11.708-12.814-11.708-20.28 0-7.467 5.242-10.494 11.708-6.76zm0 2.704c-5.173-2.987-9.367-.566-9.367 5.408 0 5.973 4.194 13.237 9.367 16.223 5.173 2.987 9.367.566 9.367-5.408 0-5.973-4.194-13.237-9.367-16.223zm3.856 8.03l-6.198 3.578-1.513-2.622c-.458-.792-1.199-1.22-1.656-.956-.457.264-.457 1.12 0 1.912l2.341 4.056c.458.792 1.2 1.22 1.656.956l7.026-4.056c.457-.264.457-1.12 0-1.912-.458-.792-1.2-1.22-1.656-.956zm41.571-10.735c6.466-3.733 11.708-.707 11.708 6.76s-5.242 16.547-11.708 20.28c-6.467 3.733-11.709.707-11.709-6.76s5.242-16.546 11.709-20.28zm0 2.705c-5.173 2.986-9.367 10.25-9.367 16.224 0 5.973 4.194 8.394 9.367 5.407 5.173-2.986 9.367-10.25 9.367-16.223 0-5.974-4.194-8.395-9.367-5.408zm3.855 3.577l-6.197 10.734-1.514-.874c-.457-.264-1.198.164-1.655.956-.458.792-.458 1.648 0 1.912l2.341 1.352c.457.264 1.199-.164 1.656-.956L73.1 58.613c.457-.792.457-1.648 0-1.912s-1.198.164-1.656.956z" fill="#fff"/><defs><linearGradient id="paint0_linear" x1="50.285" y1="2.254" x2="20.752" y2="61.32" gradientUnits="userSpaceOnUse"><stop stop-color="#4BA549"/><stop offset="1" stop-color="#89E387"/></linearGradient><linearGradient id="paint1_linear" x1="0" y1="3.829" x2="31.041" y2="63.686" gradientUnits="userSpaceOnUse"><stop stop-color="#8AE487"/><stop offset="1" stop-color="#5BC859"/></linearGradient><linearGradient id="paint2_linear" x1="0" y1="5.671" x2="45.658" y2="-.381" gradientUnits="userSpaceOnUse"><stop stop-color="#5DBC5B"/><stop offset=".927" stop-color="#3E973C"/></linearGradient></defs></svg>