<svg width="32" height="33" fill="none" xmlns="http://www.w3.org/2000/svg"><path d="M21 17.008V27.75c0 1.519-1.19 2.75-2.684 2.75H6.688C5.19 30.5 4 29.269 4 27.75v-16.5A2.766 2.766 0 016.75 8.5h5.883a1.534 1.534 0 011.093.46l6.821 6.938c.29.296.453.695.453 1.11v0z" stroke="#3B73CC" stroke-width="2" stroke-linejoin="round"/><path d="M12.5 8.5v6.75A1.771 1.771 0 0014.25 17H21" stroke="#3B73CC" stroke-width="2" stroke-linecap="round" stroke-linejoin="round"/><path d="M11 8.5V5.25a2.766 2.766 0 012.75-2.75h5.875a1.552 1.552 0 011.1.46l6.822 6.938c.29.293.453.69.453 1.102v10.75c0 1.519-1.19 2.75-2.684 2.75H21.5" stroke="#3B73CC" stroke-width="2" stroke-linejoin="round"/><path d="M19.5 2.5v6.75A1.771 1.771 0 0021.25 11H28" stroke="#3B73CC" stroke-width="2" stroke-linecap="round" stroke-linejoin="round"/></svg>