<svg width="32" height="32" fill="none" xmlns="http://www.w3.org/2000/svg"><path fill-rule="evenodd" clip-rule="evenodd" d="M16 26.398l11.26-7.507a1.333 1.333 0 011.604 2.125l-.124.094-12 8a1.333 1.333 0 01-1.326.088l-.154-.088-12-8a1.333 1.333 0 011.345-2.298l.135.079L16 26.398l11.26-7.507L16 26.398zm.74-23.507l12 8a1.333 1.333 0 010 2.219l-12 8a1.333 1.333 0 01-1.48 0l-12-8a1.333 1.333 0 010-2.22l12-8a1.333 1.333 0 011.48 0zM16 5.603L6.404 12 16 18.398 25.596 12 16 5.603z" fill="#6A69A9"/></svg>