<svg width="32" height="32" fill="none" xmlns="http://www.w3.org/2000/svg"><path d="M5.568 11H8.32v2.752c0 .072.072.128.16.128h1.92c.088 0 .16-.056.16-.132V11h2.752c.072 0 .128-.072.128-.16V8.92c0-.088-.056-.16-.132-.16H10.56V6.008c0-.072-.072-.128-.16-.128H8.48c-.088 0-.16.056-.16.128V8.76H5.568c-.072 0-.128.072-.128.16v1.92c0 .088.056.16.128.16zm13.12 0h7.744c.072 0 .128-.072.128-.16V8.92c0-.088-.056-.16-.132-.16h-7.74c-.072 0-.128.072-.128.16v1.92c0 .088.056.16.128.16zm0 10.6h7.744c.072 0 .128-.072.128-.16v-1.92c0-.088-.056-.16-.132-.16h-7.74c-.072 0-.128.072-.128.16v1.92c0 .088.056.16.128.16zm0 4.16h7.744c.072 0 .128-.072.128-.16v-1.92c0-.088-.056-.16-.132-.16h-7.74c-.072 0-.128.072-.128.16v1.92c0 .088.056.16.128.16zm-7.828-3.24l2.448-2.996c.172-.208.028-.524-.236-.524H11.04a.29.29 0 00-.236.116l-1.36 1.664-1.36-1.664A.314.314 0 007.848 19H5.812c-.264 0-.408.316-.236.524l2.448 2.996-2.508 3.072c-.176.208-.032.524.232.524H7.78A.29.29 0 008.016 26l1.42-1.74 1.42 1.74c.06.072.148.116.236.116h2.032c.264 0 .408-.316.236-.524l-2.5-3.072zM30.72 0H1.28C.572 0 0 .572 0 1.28v29.44C0 31.428.572 32 1.28 32h29.44c.708 0 1.28-.572 1.28-1.28V1.28C32 .572 31.428 0 30.72 0zm-1.44 29.28H2.72V2.72h26.56v26.56z" fill="#3B73CC"/></svg>