<svg width="32" height="32" fill="none" xmlns="http://www.w3.org/2000/svg"><path fill-rule="evenodd" clip-rule="evenodd" d="M14.53 2.67h2.83a1.4 1.4 0 01.266.036c.774.168 1.069.446 1.789 2.148l.117.281.453 1.122.037.015.583-.264c1.27-.568 1.925-.807 2.366-.874l.09-.012.167-.009c.396 0 .8.14 1.109.385l.146.13 1.81 1.803.125.133c.569.626.622 1.07-.007 2.687l-.21.522-.492 1.166.01.023 1.129.422.544.215c1.407.575 1.696.882 1.884 1.586.038.142.051.239.055.359l.002.13v2.544c0 .18-.006.282-.05.461-.188.752-.465 1.038-2.156 1.752l-.278.116-1.114.45-.008.019.403.88c1.001 2.226 1.036 2.714.378 3.447l-.082.089-1.858 1.856a1.806 1.806 0 01-1.264.52c-.39 0-1-.184-2.043-.602l-.558-.229-.635-.268-.037.015-.328.88c-.804 2.119-1.08 2.462-1.905 2.675a1.48 1.48 0 01-.309.05l-.163.004h-2.545a1.59 1.59 0 01-.406-.039c-.774-.167-1.07-.446-1.791-2.149l-.118-.28-.453-1.123-.035-.014-.847.38c-1.355.597-1.942.778-2.36.778-.392 0-.79-.137-1.108-.384l-.152-.132-1.806-1.805-.207-.225c-.495-.583-.52-1.035.089-2.59l.317-.78.386-.91-.008-.019-.876-.326c-1.757-.667-2.298-.974-2.555-1.535l-.07-.176-.058-.195a1.483 1.483 0 01-.053-.316l-.003-.168V14.78c0-.183.006-.286.051-.466.17-.672.41-.97 1.675-1.537l.524-.227 1.346-.544.01-.022-.504-1.111c-.83-1.886-.9-2.46-.375-3.102l.071-.085.17-.18 1.8-1.795c.33-.332.801-.519 1.26-.519.329 0 .81.13 1.582.423l.777.307.88.37.036-.016.33-.886c.812-2.134 1.102-2.49 1.958-2.682.108-.024.185-.034.272-.039zm2.167 2.663h-1.486l-.21.492c-.08.195-.17.423-.27.688l-.465 1.243a1.334 1.334 0 01-.594.69l-.14.069-1.093.454c-.276.115-.58.133-.865.055l-.168-.058-1.292-.545-.698-.278-.47-.174-1.053 1.052.124.313c.049.118.104.25.168.397l.215.487.538 1.177c.13.28.156.595.08.89l-.058.175-.447 1.085a1.334 1.334 0 01-.603.668l-.14.065-1.45.583-.725.31-.262.122V16.8l.313.135c.119.05.252.104.4.163l.495.192 1.202.446c.303.11.555.324.71.602l.07.144.447 1.082c.115.277.132.584.05.87l-.06.169-.518 1.216-.325.803-.158.426L9.013 24.1l.313-.124c.116-.047.243-.1.38-.159l.969-.426.697-.322a1.33 1.33 0 01.932-.081l.152.052 1.099.454c.29.12.528.338.673.615l.064.143.273.69.39.945.225.517.122.263h1.49l.213-.502.278-.709.451-1.21c.112-.297.324-.543.598-.696l.142-.068 1.094-.452c.273-.112.573-.13.855-.055l.166.057 1.03.437.752.306.411.159.272.098 1.055-1.053-.204-.502-.305-.695-.54-1.177a1.333 1.333 0 01-.08-.892l.06-.175.445-1.08c.117-.285.33-.52.598-.664l.139-.065 1.228-.494.627-.263.173-.075.417-.19V15.2l-.419-.179-.566-.224-1.43-.532a1.334 1.334 0 01-.708-.603l-.07-.144-.445-1.086a1.334 1.334 0 01-.05-.868l.06-.168.414-.968c.107-.256.201-.483.282-.684l.146-.367.158-.428-1.055-1.05-.313.124c-.174.07-.373.155-.599.253l-.234.103-1.23.558a1.34 1.34 0 01-.89.079l-.173-.058-1.098-.451a1.333 1.333 0 01-.668-.604l-.065-.14-.388-.97-.282-.681-.155-.362-.192-.418zm-.696 5.334a5.337 5.337 0 015.332 5.332 5.339 5.339 0 01-5.332 5.334A5.34 5.34 0 0110.667 16 5.337 5.337 0 0116 10.667zm0 2.666A2.67 2.67 0 0013.333 16a2.672 2.672 0 002.668 2.668A2.672 2.672 0 0018.667 16 2.67 2.67 0 0016 13.333z" fill="#6A69A9"/></svg>