<svg width="32" height="32" fill="none" xmlns="http://www.w3.org/2000/svg"><path d="M4.817 23.72l.126-.11 8.39-8.39 4.39 4.39c.482.48 1.238.517 1.76.11l.126-.11 5.724-5.723 1.724 1.723c.804.803 2.152.294 2.268-.792l.008-.151-.002-5.413-.012-.117-.033-.158-.033-.101-.045-.109-.07-.13-.089-.128-.106-.12a1.342 1.342 0 00-.15-.13l-.148-.095-.15-.071-.14-.047-.157-.033-.079-.01L28 8h-5.333c-1.137 0-1.73 1.314-1.045 2.163l.102.113L23.447 12l-4.78 4.78-4.39-4.39a1.334 1.334 0 00-1.76-.11l-.127.11-9.333 9.334a1.333 1.333 0 001.76 1.996z" fill="#6A69A9"/></svg>