<svg width="32" height="32" fill="none" xmlns="http://www.w3.org/2000/svg"><path fill-rule="evenodd" clip-rule="evenodd" d="M9.333 21.333h13.334A6.667 6.667 0 0129.333 28a1.333 1.333 0 01-2.657.156l-.016-.39a4 4 0 00-3.758-3.76L22.667 24H9.333a4 4 0 00-4 4 1.333 1.333 0 11-2.666 0 6.666 6.666 0 016.377-6.66l.29-.007zM16 2.667a8.03 8.03 0 011.6.16 1.333 1.333 0 11-.53 2.613 5.333 5.333 0 103.197 8.427 1.333 1.333 0 012.131 1.602A8 8 0 1116 2.666zm9.333 0c.737 0 1.334.597 1.334 1.333v1.333H28A1.333 1.333 0 0128 8h-1.333v1.333a1.333 1.333 0 11-2.667 0V8h-1.333a1.333 1.333 0 110-2.667H24V4c0-.736.597-1.333 1.333-1.333z" fill="#6A69A9"/></svg>