<svg width="32" height="33" fill="none" xmlns="http://www.w3.org/2000/svg"><path fill-rule="evenodd" clip-rule="evenodd" d="M9.333 19.167h1.334A6.657 6.657 0 0116 21.833a6.655 6.655 0 014.991-2.657l.342-.01h1.334a6.667 6.667 0 016.666 6.668 1.333 1.333 0 01-2.657.155l-.016-.39a4 4 0 00-3.758-3.759l-.235-.006h-1.334a4 4 0 00-4 4c0 .683-.514 1.247-1.177 1.324l-.156.009a1.334 1.334 0 01-1.324-1.178l-.016-.39a4 4 0 00-3.758-3.759l-.235-.006H9.333a4 4 0 00-4 4 1.333 1.333 0 11-2.666 0c0-3.585 2.83-6.51 6.377-6.661l.29-.006zm0-13.334a5.333 5.333 0 110 10.667 5.333 5.333 0 010-10.666zm13.334 0a5.333 5.333 0 110 10.667 5.333 5.333 0 010-10.666zM9.333 8.5a2.667 2.667 0 100 5.333 2.667 2.667 0 000-5.333zm13.334 0a2.667 2.667 0 100 5.333 2.667 2.667 0 000-5.333z" fill="#3B73CC"/></svg>