<svg width="2091" height="1209" viewBox="0 0 2091 1209" fill="none" xmlns="http://www.w3.org/2000/svg">
<rect width="216.889" height="216.889" rx="64" transform="matrix(0.866025 0.5 -0.866025 0.5 432.576 912)" fill="#F2F2F2"/>
<rect width="359" height="359" rx="63" transform="matrix(0.866025 0.5 -0.866025 0.5 1510.65 655)" fill="#F2F2F2"/>
<path d="M803.954 465.163L643.163 372.33L482.372 465.163L803.954 650.828L1125.54 465.163L964.744 372.33L803.954 465.163Z" stroke="#B4B4B4" stroke-width="0.618884"/>
<path d="M964.744 743.661L1125.54 650.828L1286.33 743.661L1125.54 836.493L964.744 743.661Z" stroke="#B4B4B4" stroke-width="0.618884"/>
<path d="M482.908 836.184L643.163 743.661L964.744 929.326L804.49 1021.85L482.908 836.184Z" stroke="#B4B4B4" stroke-width="0.618884"/>
<path d="M1607.91 743.661L1286.33 557.996L1447.12 465.163L1929.49 743.661L1607.91 929.326L1447.12 836.493L1607.91 743.661Z" stroke="#B4B4B4" stroke-width="0.618884"/>
<path d="M964.744 1114.99L1286.33 929.326L1447.12 1022.16L1125.54 1207.82L964.744 1114.99Z" stroke="#B4B4B4" stroke-width="0.618884"/>
<path d="M643.163 186.665L803.954 279.498L964.744 186.665L1125.54 279.498L1286.33 186.665L964.745 1L643.163 186.665Z" stroke="#B4B4B4" stroke-width="0.618884"/>
<rect width="148" height="148" rx="46" transform="matrix(0.866025 0.5 -0.866025 0.5 573.916 229)" fill="#F2F2F2"/>
</svg>
