<svg width="62" height="62" fill="none" xmlns="http://www.w3.org/2000/svg"><path fill="#C2D6F8" d="M29.96 6l9.958 5.75-9.959 5.749-9.958-5.75z"/><path fill="#88A8DD" d="M20 11.75l9.959 5.749v11.499L20 23.248z"/><path fill="#577BB4" d="M29.95 17.499l9.959-5.75v11.5l-9.959 5.749z"/><path fill="#C2D6F8" d="M16.96 30l9.958 5.75-9.959 5.749-9.958-5.75z"/><path fill="#88A8DD" d="M7 35.75l9.959 5.749v11.499L7 47.248z"/><path fill="#577BB4" d="M16.95 41.499l9.959-5.75v11.5l-9.959 5.749z"/><path fill="#C2D6F8" d="M42.96 30l9.958 5.75-9.959 5.749-9.958-5.75z"/><path fill="#88A8DD" d="M33 35.75l9.959 5.749v11.499L33 47.248z"/><path fill="#577BB4" d="M42.95 41.499l9.959-5.75v11.5l-9.959 5.749z"/><path fill="#C2D6F8" d="M29.96 37l9.958 5.75-9.959 5.749-9.958-5.75z"/><path fill="#88A8DD" d="M20 42.75l9.959 5.749v11.499L20 54.248z"/><path fill="#577BB4" d="M29.95 48.499l9.959-5.75v11.5l-9.959 5.749z"/><path fill="#C2D6F8" d="M42.96 14l9.958 5.75-9.959 5.749-9.958-5.75z"/><path fill="#88A8DD" d="M33 19.75l9.959 5.749v11.499L33 31.248z"/><path fill="#577BB4" d="M42.95 25.499l9.959-5.75v11.5l-9.959 5.749z"/><path fill="#C2D6F8" d="M16.96 14l9.958 5.75-9.959 5.749-9.958-5.75z"/><path fill="#88A8DD" d="M7 19.75l9.959 5.749v11.499L7 31.248z"/><path fill="#577BB4" d="M16.95 25.499l9.959-5.75v11.5l-9.959 5.749z"/><path fill="#FDA19C" d="M29.959 22l9.958 5.75-9.958 5.749-9.958-5.75z"/><path fill="#E9756F" d="M20 27.75l9.959 5.749v11.499l-9.958-5.75z"/><path fill="#B45757" d="M29.95 33.499l9.96-5.75v11.5l-9.96 5.749z"/></svg>