<svg width="2252" height="1407" fill="none" xmlns="http://www.w3.org/2000/svg"><rect width="148" height="148" rx="46" transform="matrix(.86603 .5 -.86603 .5 1075.96 489)" fill="#1E3966"/><rect width="359" height="359" rx="63" transform="matrix(.86603 .5 -.86603 .5 1388.69 0)" fill="#F2F2F2"/><rect width="312" height="312" rx="64" transform="matrix(.86603 .5 -.86603 .5 1535.99 998)" fill="#F2F2F2"/><path d="M964.744 571.163L803.953 478.33l-160.79 92.833 321.581 185.665 321.586-185.665-160.8-92.833-160.786 92.833zm160.786 278.498l160.8-92.833 160.79 92.833-160.79 92.832-160.8-92.832zm-481.831 92.523l160.254-92.523 321.577 185.669-160.25 92.52-321.581-185.666zM1768.7 849.661l-321.58-185.665 160.79-92.833 482.37 278.498-321.58 185.669-160.79-92.837 160.79-92.832zm-643.17 371.329l321.59-185.66 160.79 92.83-321.58 185.66-160.8-92.83zM803.953 292.665l160.791 92.833 160.786-92.833 160.8 92.833 160.79-92.833L1125.53 107 803.953 292.665zM321.581 942.493L160.79 849.66l321.582-185.665 160.791 92.833-321.582 185.665z" stroke="silver" stroke-width=".619"/></svg>