<svg width="32" height="32" viewBox="0 0 32 32" fill="none" xmlns="http://www.w3.org/2000/svg">
<path fill-rule="evenodd" clip-rule="evenodd" d="M25.3334 2.66675C27.5425 2.66675 29.3334 4.45761 29.3334 6.66675V25.3334C29.3334 27.5426 27.5425 29.3334 25.3334 29.3334H6.66669C4.45755 29.3334 2.66669 27.5426 2.66669 25.3334V6.66675C2.66669 4.45761 4.45755 2.66675 6.66669 2.66675H25.3334ZM25.3334 5.33341H6.66669C5.93031 5.33341 5.33335 5.93037 5.33335 6.66675V25.3334C5.33335 26.0698 5.93031 26.6667 6.66669 26.6667H25.3334C26.0697 26.6667 26.6667 26.0698 26.6667 25.3334V6.66675C26.6667 5.93037 26.0697 5.33341 25.3334 5.33341ZM10.6667 18.6667C11.4031 18.6667 12 19.2637 12 20.0001V22.6667C12 23.4031 11.4031 24.0001 10.6667 24.0001C9.93031 24.0001 9.33335 23.4031 9.33335 22.6667V20.0001C9.33335 19.2637 9.93031 18.6667 10.6667 18.6667ZM16 8.00008C16.7364 8.00008 17.3334 8.59703 17.3334 9.33341V22.6667C17.3334 23.4031 16.7364 24.0001 16 24.0001C15.2636 24.0001 14.6667 23.4031 14.6667 22.6667V9.33341C14.6667 8.59703 15.2636 8.00008 16 8.00008ZM21.3334 13.3334C22.0697 13.3334 22.6667 13.9304 22.6667 14.6667V22.6667C22.6667 23.4031 22.0697 24.0001 21.3334 24.0001C20.597 24.0001 20 23.4031 20 22.6667V14.6667C20 13.9304 20.597 13.3334 21.3334 13.3334Z" fill="#6A69A9"/>
</svg>
