<svg width="28" height="28" viewBox="0 0 28 28" fill="none" xmlns="http://www.w3.org/2000/svg">
<path d="M2.66667 0C1.18667 0 0 1.18667 0 2.66667V17.3333C0 18.8133 1.18667 20 2.66667 20H8V25.3333C8 26.8133 9.18667 28 10.6667 28H25.3333C26.8133 28 28 26.8133 28 25.3333V10.6667C28 9.18667 26.8133 8 25.3333 8H20V2.66667C20 1.18667 18.8133 0 17.3333 0H2.66667ZM2.66667 2.66667H17.3333V8H10.6667C9.18667 8 8 9.18667 8 10.6667V17.3333H2.66667V2.66667ZM10.6667 10.6667H17.3333V17.3333H10.6667V10.6667ZM20 10.6667H25.3333V25.3333H10.6667V20H17.3333C18.8133 20 20 18.8133 20 17.3333V10.6667Z" fill="#3B73CC"/>
</svg>
