<svg width="91" height="106" viewBox="0 0 91 106" fill="none" xmlns="http://www.w3.org/2000/svg">
<rect width="52.5386" height="52.5386" transform="matrix(0.866025 0.5 -0.866025 0.5 45.5004 0)" fill="url(#paint0_linear)"/>
<rect width="52.5386" height="52.5386" transform="matrix(0.866026 0.5 -2.20305e-08 1 0 26.2686)" fill="url(#paint1_linear)"/>
<rect width="52.5386" height="52.5386" transform="matrix(0.866025 -0.5 2.20305e-08 1 45.4611 52.5391)" fill="url(#paint2_linear)"/>
<path fill-rule="evenodd" clip-rule="evenodd" d="M57.6552 19.1984C64.1216 22.9318 64.1216 28.9848 57.6552 32.7182C51.1887 36.4517 40.7046 36.4517 34.2381 32.7182C27.7717 28.9848 27.7717 22.9318 34.2381 19.1984C40.7046 15.465 51.1887 15.465 57.6552 19.1984ZM55.3135 20.5499C50.1403 17.5632 41.753 17.5632 36.5798 20.5499C31.4067 23.5366 31.4067 28.379 36.5798 31.3658C41.753 34.3525 50.1403 34.3525 55.3135 31.3658C60.4866 28.379 60.4866 23.5366 55.3135 20.5499ZM54.1426 25.6783L41.7482 25.6783L41.7482 23.9304C41.7482 23.4024 41.0069 22.9744 40.0924 22.9744C39.1779 22.9744 38.4366 23.4024 38.4366 23.9304L38.4366 26.6343C38.4366 27.1623 39.1779 27.5903 40.0924 27.5903L54.1426 27.5903C55.0571 27.5903 55.7985 27.1623 55.7985 26.6343C55.7985 26.1064 55.0571 25.6783 54.1426 25.6783Z" fill="white"/>
<path fill-rule="evenodd" clip-rule="evenodd" d="M22.1621 51.3756C28.6286 55.1091 33.8707 64.1886 33.8707 71.6554C33.8707 79.1222 28.6286 82.1487 22.1621 78.4153C15.6957 74.6819 10.4536 65.6024 10.4536 58.1356C10.4536 50.6688 15.6957 47.6422 22.1621 51.3756ZM22.1621 54.0796C16.9889 51.0929 12.7953 53.5141 12.7953 59.4876C12.7953 65.461 16.9889 72.7247 22.1621 75.7114C27.3352 78.6981 31.5289 76.2769 31.5289 70.3034C31.5289 64.33 27.3352 57.0664 22.1621 54.0796ZM26.0176 62.1098L19.8204 65.6877L18.3067 63.0658C17.8494 62.2738 17.1081 61.8458 16.6508 62.1098C16.1936 62.3738 16.1936 63.2298 16.6508 64.0218L18.9925 68.0777C19.4498 68.8697 20.1911 69.2977 20.6484 69.0337L27.6735 64.9778C28.1307 64.7138 28.1307 63.8578 27.6735 63.0658C27.2162 62.2738 26.4749 61.8458 26.0176 62.1098Z" fill="white"/>
<path fill-rule="evenodd" clip-rule="evenodd" d="M67.5888 51.3753C74.0552 47.6419 79.2973 50.6684 79.2973 58.1353C79.2973 65.6021 74.0552 74.6816 67.5888 78.415C61.1223 82.1484 55.8802 79.1219 55.8802 71.6551C55.8802 64.1883 61.1223 55.1087 67.5888 51.3753ZM67.5888 54.0797C62.4156 57.0664 58.222 64.33 58.222 70.3035C58.222 76.2769 62.4156 78.6981 67.5888 75.7114C72.7619 72.7247 76.9556 65.4611 76.9556 59.4876C76.9556 53.5142 72.7619 51.0929 67.5888 54.0797ZM71.4443 57.6571L65.2471 68.391L63.7333 67.517C63.2761 67.253 62.5348 67.681 62.0775 68.473C61.6203 69.265 61.6203 70.121 62.0775 70.385L64.4192 71.737C64.8765 72.0009 65.6178 71.5729 66.0751 70.781L73.1002 58.6131C73.5574 57.8211 73.5574 56.9651 73.1002 56.7011C72.6429 56.4371 71.9016 56.8651 71.4443 57.6571Z" fill="white"/>
<defs>
<linearGradient id="paint0_linear" x1="50.2848" y1="2.25381" x2="20.7519" y2="61.3196" gradientUnits="userSpaceOnUse">
<stop stop-color="#4BA549"/>
<stop offset="1" stop-color="#89E387"/>
</linearGradient>
<linearGradient id="paint1_linear" x1="1.49578e-07" y1="3.82892" x2="31.0414" y2="63.686" gradientUnits="userSpaceOnUse">
<stop stop-color="#8AE487"/>
<stop offset="1" stop-color="#5BC859"/>
</linearGradient>
<linearGradient id="paint2_linear" x1="8.23468e-08" y1="5.67068" x2="45.6578" y2="-0.380774" gradientUnits="userSpaceOnUse">
<stop stop-color="#5DBC5B"/>
<stop offset="0.927083" stop-color="#3E973C"/>
</linearGradient>
</defs>
</svg>
