<svg width="32" height="33" viewBox="0 0 32 33" fill="none" xmlns="http://www.w3.org/2000/svg">
<path d="M21 17.0081V27.75C21 29.2687 19.8094 30.5 18.3156 30.5H6.6875C5.19062 30.5 4 29.2687 4 27.75V11.25C4.00426 10.522 4.29536 9.82497 4.81017 9.31017C5.32497 8.79536 6.02197 8.50426 6.75 8.5H12.6325C12.8361 8.50031 13.0376 8.54114 13.2253 8.62012C13.413 8.69909 13.5831 8.81463 13.7256 8.96L20.5475 15.8975C20.8377 16.1943 21.0002 16.593 21 17.0081V17.0081Z" stroke="#3B73CC" stroke-width="2" stroke-linejoin="round"/>
<path d="M12.5 8.5V15.25C12.5055 15.7124 12.6917 16.1543 13.0187 16.4813C13.3457 16.8083 13.7876 16.9945 14.25 17H21" stroke="#3B73CC" stroke-width="2" stroke-linecap="round" stroke-linejoin="round"/>
<path d="M11 8.5V5.25C11.0043 4.52197 11.2954 3.82497 11.8102 3.31017C12.325 2.79536 13.022 2.50426 13.75 2.5H19.625C19.8297 2.50028 20.0324 2.54108 20.2213 2.62002C20.4102 2.69897 20.5816 2.81452 20.7256 2.96L27.5475 9.8975C27.8375 10.1911 28.0001 10.5873 28 11V21.75C28 23.2687 26.8094 24.5 25.3156 24.5H21.5" stroke="#3B73CC" stroke-width="2" stroke-linejoin="round"/>
<path d="M19.5 2.5V9.25C19.5055 9.71242 19.6917 10.1543 20.0187 10.4813C20.3457 10.8083 20.7876 10.9945 21.25 11H28" stroke="#3B73CC" stroke-width="2" stroke-linecap="round" stroke-linejoin="round"/>
</svg>
