<svg width="78" height="26" viewBox="0 0 78 26" fill="none" xmlns="http://www.w3.org/2000/svg">
<path d="M42.9589 13H45.8676L41.8412 17.8869L46.6297 23.4007H43.3781L39.0596 18.3603V23.4007H36.4558V13H39.0596V17.7974L42.9589 13Z" fill="#929FB2"/>
<path d="M53.5638 23.4007H50.8691L55.4116 13H58.1577L62.7387 23.4007H60.0568L56.7975 15.5555L55.7709 18.047L53.5638 23.4007Z" fill="#929FB2"/>
<path d="M75.5464 13H77.9988V23.4007H75.7892L70.2652 16.9402V23.4007H67.8249V13H69.9981L75.5464 19.486V13Z" fill="#929FB2"/>
<path d="M20.5059 26H19.4811H8.02225H7.34941H0L13.819 0L27.7104 26H20.5059ZM10.8481 19.9259H16.6552L13.7569 13.672L10.8481 19.9259Z" fill="#929FB2"/>
<path d="M41.7601 7.99844L41.7521 4.63844L40.1041 7.40644H39.5201L37.8801 4.71044V7.99844H36.6641V2.39844H37.7361L39.8321 5.87844L41.8961 2.39844H42.9601L42.9761 7.99844H41.7601Z" fill="#929FB2"/>
<path d="M48.3927 6.79844H45.7927L45.2967 7.99844H43.9687L46.4647 2.39844H47.7447L50.2487 7.99844H48.8887L48.3927 6.79844ZM47.9847 5.81444L47.0967 3.67044L46.2087 5.81444H47.9847Z" fill="#929FB2"/>
<path d="M51.2297 2.39844H53.7737C54.3817 2.39844 54.9177 2.51577 55.3817 2.75044C55.851 2.97977 56.2137 3.3051 56.4697 3.72644C56.731 4.14777 56.8617 4.63844 56.8617 5.19844C56.8617 5.75844 56.731 6.2491 56.4697 6.67044C56.2137 7.09177 55.851 7.41977 55.3817 7.65444C54.9177 7.88377 54.3817 7.99844 53.7737 7.99844H51.2297V2.39844ZM53.7097 6.93444C54.2697 6.93444 54.715 6.77977 55.0457 6.47044C55.3817 6.15577 55.5497 5.73177 55.5497 5.19844C55.5497 4.6651 55.3817 4.24377 55.0457 3.93444C54.715 3.61977 54.2697 3.46244 53.7097 3.46244H52.5257V6.93444H53.7097Z" fill="#929FB2"/>
<path d="M62.5751 6.95844V7.99844H58.2391V2.39844H62.4711V3.43844H59.5271V4.65444H62.1271V5.66244H59.5271V6.95844H62.5751Z" fill="#929FB2"/>
<path d="M70.7839 5.08644C71.1039 5.18777 71.3545 5.35844 71.5359 5.59844C71.7172 5.8331 71.8079 6.12377 71.8079 6.47044C71.8079 6.9611 71.6159 7.33977 71.2319 7.60644C70.8532 7.86777 70.2985 7.99844 69.5679 7.99844H66.6719V2.39844H69.4079C70.0905 2.39844 70.6132 2.5291 70.9759 2.79044C71.3439 3.05177 71.5279 3.40644 71.5279 3.85444C71.5279 4.12644 71.4612 4.3691 71.3279 4.58244C71.1999 4.79577 71.0185 4.96377 70.7839 5.08644ZM67.9599 3.37444V4.69444H69.2479C69.5679 4.69444 69.8105 4.63844 69.9759 4.52644C70.1412 4.41444 70.2239 4.2491 70.2239 4.03044C70.2239 3.81177 70.1412 3.6491 69.9759 3.54244C69.8105 3.43044 69.5679 3.37444 69.2479 3.37444H67.9599ZM69.4719 7.02244C69.8132 7.02244 70.0692 6.96644 70.2399 6.85444C70.4159 6.74244 70.5039 6.5691 70.5039 6.33444C70.5039 5.87044 70.1599 5.63844 69.4719 5.63844H67.9599V7.02244H69.4719Z" fill="#929FB2"/>
<path d="M75.7599 6.01444V7.99844H74.4639V5.99844L72.2959 2.39844H73.6719L75.1679 4.88644L76.6639 2.39844H77.9359L75.7599 6.01444Z" fill="#929FB2"/>
</svg>
