<svg width="32" height="32" viewBox="0 0 32 32" fill="none" xmlns="http://www.w3.org/2000/svg">
<path fill-rule="evenodd" clip-rule="evenodd" d="M16 26.3976L27.2604 18.8907C27.8731 18.4822 28.701 18.6478 29.1094 19.2605C29.4887 19.8295 29.3731 20.5839 28.864 21.0158L28.7396 21.1095L16.7396 29.1095C16.3415 29.3749 15.8363 29.4044 15.4144 29.198L15.2604 29.1095L3.26044 21.1095C2.64773 20.701 2.48217 19.8732 2.89064 19.2605C3.26993 18.6916 4.01081 18.5082 4.60528 18.8119L4.73964 18.8907L16 26.3976L27.2604 18.8907L16 26.3976ZM16.7396 2.89068L28.7396 10.8907C29.5312 11.4184 29.5312 12.5817 28.7396 13.1095L16.7396 21.1095C16.2917 21.4081 15.7083 21.4081 15.2604 21.1095L3.2604 13.1095C2.46876 12.5817 2.46876 11.4184 3.2604 10.8907L15.2604 2.89068C15.7083 2.5921 16.2917 2.5921 16.7396 2.89068ZM16 5.60257L6.40369 12.0001L16 18.3976L25.5963 12.0001L16 5.60257Z" fill="#6A69A9"/>
</svg>
