<svg width="32" height="32" viewBox="0 0 32 32" fill="none" xmlns="http://www.w3.org/2000/svg">
<path d="M5.568 11H8.32V13.752C8.32 13.824 8.392 13.88 8.48 13.88H10.4C10.488 13.88 10.56 13.824 10.56 13.748V11H13.312C13.384 11 13.44 10.928 13.44 10.84V8.92C13.44 8.832 13.384 8.76 13.308 8.76H10.56V6.008C10.56 5.936 10.488 5.88 10.4 5.88H8.48C8.392 5.88 8.32 5.936 8.32 6.008V8.76H5.568C5.496 8.76 5.44 8.832 5.44 8.92V10.84C5.44 10.928 5.496 11 5.568 11ZM18.688 11H26.432C26.504 11 26.56 10.928 26.56 10.84V8.92C26.56 8.832 26.504 8.76 26.428 8.76H18.688C18.616 8.76 18.56 8.832 18.56 8.92V10.84C18.56 10.928 18.616 11 18.688 11ZM18.688 21.6H26.432C26.504 21.6 26.56 21.528 26.56 21.44V19.52C26.56 19.432 26.504 19.36 26.428 19.36H18.688C18.616 19.36 18.56 19.432 18.56 19.52V21.44C18.56 21.528 18.616 21.6 18.688 21.6ZM18.688 25.76H26.432C26.504 25.76 26.56 25.688 26.56 25.6V23.68C26.56 23.592 26.504 23.52 26.428 23.52H18.688C18.616 23.52 18.56 23.592 18.56 23.68V25.6C18.56 25.688 18.616 25.76 18.688 25.76ZM10.86 22.52L13.308 19.524C13.48 19.316 13.336 19 13.072 19H11.04C10.948 19 10.86 19.04 10.804 19.116L9.444 20.78L8.084 19.116C8.05539 19.0808 8.01947 19.0521 7.97873 19.0321C7.93799 19.0121 7.89338 19.0011 7.848 19H5.812C5.548 19 5.404 19.316 5.576 19.524L8.024 22.52L5.516 25.592C5.34 25.8 5.484 26.116 5.748 26.116H7.78C7.872 26.116 7.96 26.076 8.016 26L9.436 24.26L10.856 26C10.916 26.072 11.004 26.116 11.092 26.116H13.124C13.388 26.116 13.532 25.8 13.36 25.592L10.86 22.52ZM30.72 0H1.28C0.572 0 0 0.572 0 1.28V30.72C0 31.428 0.572 32 1.28 32H30.72C31.428 32 32 31.428 32 30.72V1.28C32 0.572 31.428 0 30.72 0ZM29.28 29.28H2.72V2.72H29.28V29.28Z" fill="#3B73CC"/>
</svg>
