<svg width="32" height="32" viewBox="0 0 32 32" fill="none" xmlns="http://www.w3.org/2000/svg">
<path d="M11.5334 4.46689L7.81337 8.18689C7.38671 8.60023 7.68004 9.32023 8.28004 9.32023H10.6667V17.3336C10.6667 18.0669 11.2667 18.6669 12 18.6669C12.7334 18.6669 13.3334 18.0669 13.3334 17.3336V9.32023H15.72C16.32 9.32023 16.6134 8.60023 16.1867 8.18689L12.4667 4.46689C12.3419 4.34506 12.1744 4.27686 12 4.27686C11.8256 4.27686 11.6582 4.34506 11.5334 4.46689ZM21.3334 22.6802V14.6669C21.3334 13.9336 20.7334 13.3336 20 13.3336C19.2667 13.3336 18.6667 13.9336 18.6667 14.6669V22.6802H16.28C15.68 22.6802 15.3867 23.4002 15.8134 23.8136L19.5334 27.5202C19.8 27.7736 20.2134 27.7736 20.48 27.5202L24.2 23.8136C24.6267 23.4002 24.32 22.6802 23.7334 22.6802H21.3334Z" fill="#3B73CC"/>
</svg>
