<svg width="32" height="32" viewBox="0 0 32 32" fill="none" xmlns="http://www.w3.org/2000/svg">
<path fill-rule="evenodd" clip-rule="evenodd" d="M20 2.66675C24.4183 2.66675 28 6.24847 28 10.6667C28 14.9846 24.5792 18.5035 20.2999 18.6612L20 18.6667H13.3333V21.3334H18.6667C19.403 21.3334 20 21.9304 20 22.6667C20 23.4031 19.403 24.0001 18.6667 24.0001H13.3333V28.0001C13.3333 28.7365 12.7364 29.3334 12 29.3334C11.2636 29.3334 10.6667 28.7365 10.6667 28.0001V24.0001H5.33333C4.59695 24.0001 4 23.4031 4 22.6667C4 21.9304 4.59695 21.3334 5.33333 21.3334H10.6667V18.6667H5.33333C4.59695 18.6667 4 18.0698 4 17.3334C4 16.6496 4.51472 16.0861 5.17784 16.0091L5.33333 16.0001H10.6667V4.00008C10.6667 3.2637 11.2636 2.66675 12 2.66675H20ZM20 5.33341H13.3333V16.0001H20C22.9455 16.0001 25.3333 13.6123 25.3333 10.6667C25.3333 7.81049 23.088 5.47864 20.2662 5.33994L20 5.33341Z" fill="#6A69A9"/>
</svg>
