<svg width="32" height="32" viewBox="0 0 32 32" fill="none" xmlns="http://www.w3.org/2000/svg">
<path fill-rule="evenodd" clip-rule="evenodd" d="M14.5301 2.66933L17.3601 2.66919C17.4457 2.67316 17.5208 2.68295 17.6263 2.70592C18.4003 2.87445 18.6945 3.15234 19.4148 4.85432L19.5322 5.13507L19.9848 6.25665L20.022 6.27195L20.6053 6.00794C21.8754 5.43995 22.5302 5.2007 22.9705 5.13395L23.0617 5.12222L23.2278 5.11326C23.6243 5.11326 24.028 5.25366 24.337 5.49813L24.4832 5.62887L26.2924 7.43061L26.4182 7.56354C26.9865 8.18957 27.0396 8.6334 26.411 10.251L26.2018 10.7728L25.7088 11.9394L25.7181 11.9622L26.8476 12.384L27.3921 12.5992C28.7987 13.1743 29.0877 13.4808 29.2757 14.1849C29.3136 14.3268 29.3271 14.4235 29.3315 14.5436L29.3334 14.674V17.2176C29.3334 17.3984 29.3272 17.5005 29.2827 17.6792C29.0955 18.4309 28.8177 18.7171 27.1273 19.4311L26.8485 19.5475L25.7346 19.997L25.7269 20.0157L26.1297 20.8956C27.1312 23.1216 27.1662 23.6096 26.5079 24.3427L26.4256 24.4319L24.5684 26.2878C24.2359 26.6239 23.7622 26.8089 23.3039 26.8089C22.9147 26.8089 22.3033 26.6239 21.2612 26.206L20.7033 25.9774L20.0678 25.7087L20.0315 25.7237L19.7031 26.6044C18.8992 28.7225 18.6238 29.0664 17.7979 29.2795C17.6758 29.311 17.5886 29.3244 17.4894 29.3299L17.3261 29.3333H14.7809C14.622 29.3333 14.5324 29.3286 14.3746 29.2944C13.601 29.1266 13.3055 28.8481 12.5839 27.1451L12.4662 26.8642L12.0128 25.7421L11.9779 25.7277L11.1309 26.1085C9.77602 26.7049 9.18908 26.8864 8.77076 26.8864C8.37903 26.8864 7.98013 26.7488 7.6628 26.502L7.51134 26.3696L5.7046 24.5652L5.49828 24.3402C5.0028 23.7573 4.97844 23.3052 5.5866 21.7492L5.90352 20.9703L6.29038 20.0609L6.28231 20.0413L5.40647 19.715C3.64947 19.0482 3.10799 18.7411 2.85068 18.1805L2.78108 18.0041L2.72295 17.8087C2.69005 17.6839 2.67601 17.5944 2.67031 17.4926L2.66669 17.3247V14.7796C2.66669 14.5973 2.673 14.4943 2.71838 14.3141C2.88757 13.6421 3.1277 13.3436 4.39264 12.7768L4.9169 12.5504L6.26312 12.006L6.27235 11.9836L5.76901 10.873C4.93846 8.98655 4.86967 8.41215 5.39369 7.77062L5.46539 7.68645L5.63517 7.50649L7.4349 5.71084C7.76464 5.37928 8.23629 5.19236 8.69535 5.19236C9.0237 5.19236 9.50581 5.32228 10.2774 5.61453L11.0537 5.92227L11.9337 6.2911L11.9698 6.27609L12.3007 5.38967C13.1121 3.25635 13.4017 2.89959 14.2576 2.70798C14.3656 2.68382 14.4426 2.67351 14.5301 2.66933ZM16.6974 5.33332H15.2108L15.0012 5.82468C14.9216 6.02003 14.8318 6.24821 14.7304 6.51306L14.2658 7.75589C14.1543 8.05014 13.9432 8.29385 13.6717 8.44628L13.5311 8.5147L12.439 8.96917C12.1632 9.08391 11.8587 9.10212 11.5739 9.02398L11.4058 8.96553L10.1137 8.42089L9.41576 8.14258L8.94666 7.96944L7.89304 9.02067L8.01704 9.33387C8.0655 9.45184 8.12127 9.58374 8.18486 9.73068L8.39963 10.2177L8.93823 11.3952C9.06725 11.6756 9.09422 11.9902 9.01806 12.2854L8.95997 12.4599L8.51339 13.5451C8.39515 13.8324 8.18102 14.0679 7.90991 14.2131L7.7698 14.278L6.3197 14.8609L5.59481 15.1716L5.33335 15.2927V16.7996L5.6462 16.9352C5.76464 16.9847 5.89764 17.0387 6.04638 17.0976L6.54107 17.2896L7.74311 17.736C8.04616 17.8453 8.29763 18.0598 8.4536 18.3376L8.52342 18.4816L8.97007 19.5637C9.08476 19.8415 9.10156 20.1482 9.0209 20.4342L8.96082 20.603L8.44244 21.8194L8.11735 22.6218L7.95897 23.0479L9.01266 24.1003L9.3264 23.9763C9.44197 23.9292 9.56863 23.8763 9.70669 23.8175L10.6745 23.3907L11.3724 23.0694C11.6645 22.9299 11.9955 22.9021 12.304 22.9877L12.456 23.04L13.5546 23.4936C13.8458 23.6138 14.0834 23.8325 14.2277 24.1088L14.2919 24.2516L14.5652 24.9414L14.9543 25.8875L15.1795 26.4045L15.3016 26.6666H16.7925L17.0055 26.1647L17.2828 25.4565L17.7343 24.2458C17.8457 23.949 18.0585 23.7032 18.3323 23.5502L18.4741 23.4816L19.568 23.0302C19.8406 22.9177 20.141 22.8993 20.4226 22.975L20.589 23.0317L21.6191 23.4686L22.3709 23.7748L22.7823 23.9335L23.0538 24.0318L24.1087 22.9787L23.9054 22.4771L23.6005 21.7817L23.0608 20.6052C22.9313 20.3243 22.9043 20.009 22.9808 19.7132L23.0391 19.5384L23.4849 18.4579C23.6025 18.1728 23.8146 17.9388 24.0832 17.7936L24.222 17.7286L25.4502 17.2348L26.0771 16.972L26.2496 16.8971L26.6667 16.7062V15.2008L26.2485 15.0223L25.682 14.7981L24.2521 14.2658C23.9498 14.1558 23.6992 13.9409 23.544 13.6631L23.4746 13.5191L23.0287 12.4327C22.9149 12.1555 22.8985 11.8498 22.9788 11.5647L23.0387 11.3965L23.4526 10.4287C23.5604 10.1727 23.6542 9.94573 23.7352 9.74512L23.8805 9.37827L24.0387 8.94959L22.9845 7.89974L22.6706 8.02396C22.4969 8.09476 22.298 8.17878 22.0723 8.2769L21.8376 8.37975L20.6072 8.93784C20.3272 9.06611 20.0134 9.09279 19.7188 9.01683L19.5448 8.95892L18.4469 8.50763C18.1595 8.3895 17.924 8.17543 17.7787 7.90436L17.7138 7.76426L17.3256 6.79307L17.0443 6.11268L16.8885 5.75082L16.6974 5.33332ZM16.0007 10.6667C18.9422 10.6667 21.3334 13.0573 21.3334 15.9988C21.3334 18.9405 18.942 21.3333 16.0007 21.3333C13.0585 21.3333 10.6667 18.9409 10.6667 15.9988C10.6667 13.0569 13.0583 10.6667 16.0007 10.6667ZM16.0006 13.3333C14.5307 13.3333 13.3334 14.53 13.3334 15.9988C13.3334 17.4683 14.5314 18.6666 16.0006 18.6666C17.4689 18.6666 18.6667 17.4681 18.6667 15.9988C18.6667 14.5302 17.4695 13.3333 16.0006 13.3333Z" fill="#6A69A9"/>
</svg>
