<svg width="32" height="32" viewBox="0 0 32 32" fill="none" xmlns="http://www.w3.org/2000/svg">
<path d="M4.81716 23.7204L4.94277 23.6095L13.3333 15.22L17.7238 19.6095C18.2045 20.0901 18.9608 20.1271 19.4838 19.7204L19.6094 19.6095L25.3333 13.8867L27.0571 15.6095C27.8606 16.4129 29.2095 15.9036 29.3253 14.8182L29.3333 14.6667L29.331 9.25415L29.319 9.1374L29.2857 8.97888L29.2534 8.87778L29.2084 8.76904L29.1386 8.63906L29.0494 8.51064L28.9427 8.39048C28.8956 8.34333 28.8457 8.30042 28.7937 8.26178L28.6454 8.16623L28.4951 8.09497L28.3546 8.04779L28.1979 8.01469L28.119 8.00529L28 8H22.6666C21.5304 8 20.9367 9.31402 21.6223 10.1634L21.7238 10.2761L23.4466 12L18.6666 16.78L14.2761 12.3905C13.7955 11.9099 13.0391 11.8729 12.5161 12.2796L12.3905 12.3905L3.05715 21.7239C2.53645 22.2446 2.53645 23.0888 3.05715 23.6095C3.5378 24.0901 4.2941 24.1271 4.81716 23.7204Z" fill="#6A69A9"/>
</svg>
