<svg width="32" height="33" viewBox="0 0 32 33" fill="none" xmlns="http://www.w3.org/2000/svg">
<path fill-rule="evenodd" clip-rule="evenodd" d="M9.33329 19.1668H10.6666C12.8476 19.1668 14.784 20.2141 16.0003 21.8332C17.152 20.2993 18.9505 19.2787 20.991 19.1755L21.3333 19.1668H22.6666C26.3485 19.1668 29.3333 22.1516 29.3333 25.8335C29.3333 26.5699 28.7363 27.1668 28 27.1668C27.3162 27.1668 26.7526 26.6521 26.6756 25.989L26.6598 25.5985C26.5427 23.5765 24.9236 21.9574 22.9017 21.8403L22.6666 21.8335H21.3333C19.1242 21.8335 17.3333 23.6244 17.3333 25.8335C17.3333 26.5173 16.8186 27.0808 16.1555 27.1579L16 27.1668C15.3162 27.1668 14.7526 26.6521 14.6756 25.989L14.6598 25.5985C14.5427 23.5765 12.9236 21.9574 10.9017 21.8403L10.6666 21.8335H9.33329C7.12415 21.8335 5.33329 23.6244 5.33329 25.8335C5.33329 26.5699 4.73634 27.1668 3.99996 27.1668C3.26358 27.1668 2.66663 26.5699 2.66663 25.8335C2.66663 22.2485 5.49637 19.3244 9.04411 19.173L9.33329 19.1668ZM9.33329 5.8335C12.2788 5.8335 14.6666 8.22131 14.6666 11.1668C14.6666 14.1123 12.2788 16.5002 9.33329 16.5002C6.38777 16.5002 3.99996 14.1123 3.99996 11.1668C3.99996 8.22131 6.38777 5.8335 9.33329 5.8335ZM22.6666 5.8335C25.6121 5.8335 28 8.22131 28 11.1668C28 14.1123 25.6121 16.5002 22.6666 16.5002C19.7211 16.5002 17.3333 14.1123 17.3333 11.1668C17.3333 8.22131 19.7211 5.8335 22.6666 5.8335ZM9.33329 8.50016C7.86053 8.50016 6.66663 9.69407 6.66663 11.1668C6.66663 12.6396 7.86053 13.8335 9.33329 13.8335C10.8061 13.8335 12 12.6396 12 11.1668C12 9.69407 10.8061 8.50016 9.33329 8.50016ZM22.6666 8.50016C21.1939 8.50016 20 9.69407 20 11.1668C20 12.6396 21.1939 13.8335 22.6666 13.8335C24.1394 13.8335 25.3333 12.6396 25.3333 11.1668C25.3333 9.69407 24.1394 8.50016 22.6666 8.50016Z" fill="#3B73CC"/>
</svg>
