<svg width="32" height="32" viewBox="0 0 32 32" fill="none" xmlns="http://www.w3.org/2000/svg">
<path fill-rule="evenodd" clip-rule="evenodd" d="M9.33329 21.3334H22.6666C26.3485 21.3334 29.3333 24.3182 29.3333 28.0001C29.3333 28.7365 28.7363 29.3334 28 29.3334C27.3162 29.3334 26.7526 28.8187 26.6756 28.1556L26.6598 27.7651C26.5427 25.7431 24.9236 24.124 22.9017 24.0069L22.6666 24.0001H9.33329C7.12415 24.0001 5.33329 25.7909 5.33329 28.0001C5.33329 28.7365 4.73634 29.3334 3.99996 29.3334C3.26358 29.3334 2.66663 28.7365 2.66663 28.0001C2.66663 24.4151 5.49637 21.491 9.04411 21.3396L9.33329 21.3334ZM16 2.66675C16.5416 2.66675 17.077 2.72076 17.6004 2.82714C18.3221 2.97381 18.7882 3.6777 18.6415 4.39932C18.4948 5.12095 17.7909 5.58704 17.0693 5.44038C16.7205 5.36948 16.3629 5.33341 16 5.33341C13.0544 5.33341 10.6666 7.72123 10.6666 10.6667C10.6666 13.6123 13.0544 16.0001 16 16.0001C17.6997 16.0001 19.2642 15.2012 20.2667 13.8673C20.7092 13.2786 21.545 13.1601 22.1337 13.6025C22.7223 14.0449 22.8409 14.8808 22.3984 15.4694C20.8974 17.4666 18.5472 18.6667 16 18.6667C11.5817 18.6667 7.99996 15.085 7.99996 10.6667C7.99996 6.24847 11.5817 2.66675 16 2.66675ZM25.3333 2.66675C26.0697 2.66675 26.6666 3.2637 26.6666 4.00008V5.33341H28C28.7363 5.33341 29.3333 5.93037 29.3333 6.66675C29.3333 7.40313 28.7363 8.00008 28 8.00008H26.6666V9.33342C26.6666 10.0698 26.0697 10.6667 25.3333 10.6667C24.5969 10.6667 24 10.0698 24 9.33342V8.00008H22.6666C21.9302 8.00008 21.3333 7.40313 21.3333 6.66675C21.3333 5.93037 21.9302 5.33341 22.6666 5.33341H24V4.00008C24 3.2637 24.5969 2.66675 25.3333 2.66675Z" fill="#6A69A9"/>
</svg>
