<svg width="34" height="34" viewBox="0 0 34 34" fill="none" xmlns="http://www.w3.org/2000/svg">
<path fill-rule="evenodd" clip-rule="evenodd" d="M16.4248 2.957C16.7387 2.81753 17.0907 2.7976 17.4154 2.89722L17.5752 2.957L30.3252 8.62193C30.838 8.84977 31.1631 9.3556 31.1667 9.90659L31.158 10.073L30.3471 17.3712C29.9326 21.1016 27.8969 24.4522 24.7952 26.5399L24.4326 26.7751L17.7509 30.9512C17.3425 31.2064 16.8366 31.2348 16.4066 31.0363L16.2492 30.9512L9.56746 26.7751C6.38458 24.7858 4.24631 21.4998 3.70792 17.7999L3.65293 17.3712L2.84203 10.073C2.78006 9.51531 3.05284 8.9795 3.52674 8.69839L3.67481 8.62193L16.4248 2.957ZM17 5.80182L5.77249 10.7903L6.46893 17.0583C6.78916 19.9403 8.35354 22.5308 10.7388 24.1568L11.0691 24.3725L17 28.0793L22.9309 24.3725C25.3899 22.8356 27.0473 20.3036 27.4798 17.4494L27.5311 17.0583L28.2276 10.7903L17 5.80182ZM20.136 11.8748C20.6194 11.2596 21.51 11.1527 22.1252 11.6361C22.6931 12.0823 22.8278 12.8755 22.465 13.4787L22.3639 13.6253L16.6973 20.7086C16.21 21.3287 15.3213 21.424 14.7159 20.9537L14.5816 20.835L11.7483 18.0018C11.195 17.4485 11.195 16.5515 11.7483 15.9983C12.259 15.4876 13.0625 15.4483 13.6183 15.8804L13.7517 15.9983L15.4559 17.7025L20.136 11.8748Z" fill="#3B73CC"/>
</svg>
