<svg width="1280" height="1868" fill="none" xmlns="http://www.w3.org/2000/svg"><path d="M477.209 444.163L316.418 351.33l-160.79 92.833 321.581 185.665 321.582-185.665L638 351.33l-160.791 92.833zM638 722.661l160.791-92.833 160.79 92.833-160.79 92.832L638 722.661zm-481.836 92.523l160.255-92.523L638 908.326l-160.255 92.524-321.581-185.666zm1124.996-92.523L959.581 536.996l160.789-92.833 482.37 278.498-321.58 185.665-160.79-92.833 160.79-92.832zM638 1093.99l321.581-185.664 160.789 92.834-321.579 185.66L638 1093.99zM316.418 165.665l160.791 92.833L638 165.665l160.791 92.833 160.79-92.833L638-20 316.418 165.665z" stroke="#3B73CC"/><path d="M-166.954 810.493l-160.79-92.832L-6.163 531.996l160.791 92.832-321.582 185.665z" stroke="#254B86" stroke-width=".619"/><g filter="url(#filter0_f)"><path d="M156.302 1324.41L-5 1231.29 146.186 1144l161.302 93.13-151.186 87.28z" stroke="#254B86"/></g><rect width="312" height="312" rx="64" transform="matrix(.86603 .5 -.86603 .5 29.2 1468)" fill="#1E3966"/><path d="M318.317 1719.46L146 1619.97 490.634 1421l172.318 99.49-344.635 198.97z" stroke="#254B86"/><g filter="url(#filter1_f)"><rect width="204" height="204" rx="59" transform="matrix(.86603 .5 -.86603 .5 597.669 1719)" fill="#1E3966"/></g><g filter="url(#filter2_f)"><rect width="148" height="148" rx="46" transform="matrix(.86603 .5 -.86603 .5 565.172 1225)" fill="#1E3966"/></g><defs><filter id="filter0_f" x="-19.866" y="1129.5" width="342.22" height="209.415" filterUnits="userSpaceOnUse" color-interpolation-filters="sRGB"><feFlood flood-opacity="0" result="BackgroundImageFix"/><feBlend in="SourceGraphic" in2="BackgroundImageFix" result="shape"/><feGaussianBlur stdDeviation="7" result="effect1_foregroundBlur"/></filter><filter id="filter1_f" x="436.931" y="1722.28" width="321.476" height="197.439" filterUnits="userSpaceOnUse" color-interpolation-filters="sRGB"><feFlood flood-opacity="0" result="BackgroundImageFix"/><feBlend in="SourceGraphic" in2="BackgroundImageFix" result="shape"/><feGaussianBlur stdDeviation="7" result="effect1_foregroundBlur"/></filter><filter id="filter2_f" x="436.336" y="1214.47" width="257.671" height="169.054" filterUnits="userSpaceOnUse" color-interpolation-filters="sRGB"><feFlood flood-opacity="0" result="BackgroundImageFix"/><feBlend in="SourceGraphic" in2="BackgroundImageFix" result="shape"/><feGaussianBlur stdDeviation="12" result="effect1_foregroundBlur"/></filter></defs></svg>