<svg width="2248" height="1944" fill="none" xmlns="http://www.w3.org/2000/svg"><path d="M960.914 465.163l-160.79-92.833-160.791 92.833 321.581 185.665L1282.5 465.163l-160.79-92.833-160.796 92.833zm160.796 278.498l160.79-92.833 160.79 92.833-160.79 92.832-160.79-92.832zm-481.841 92.523l160.255-92.523 321.586 185.665-160.26 92.524-321.581-185.666zm1125.001-92.523l-321.58-185.665 160.79-92.833 482.37 278.498-321.58 185.665-160.79-92.833 160.79-92.832zm-643.16 371.329l321.58-185.664 160.79 92.834-321.58 185.66-160.79-92.83zM800.124 186.665l160.79 92.833 160.796-92.833 160.79 92.833 160.79-92.833L1121.71 1 800.124 186.665z" stroke="#3B73CC"/><path d="M316.751 831.493l-160.79-92.832 321.581-185.665 160.791 92.832-321.582 185.665z" stroke="#254B86" stroke-width=".619"/><g filter="url(#filter0_f)"><path d="M640.007 1345.41l-161.302-93.12L629.891 1165l161.302 93.13-151.186 87.28z" stroke="#254B86"/></g><rect width="312" height="312" rx="64" transform="matrix(.86603 .5 -.86603 .5 512.905 1489)" fill="#1E3966"/><path d="M802.022 1740.46l-172.317-99.49L974.34 1442l172.32 99.49-344.638 198.97z" stroke="#254B86"/><g filter="url(#filter1_f)"><rect width="204" height="204" rx="59" transform="matrix(.86603 .5 -.86603 .5 1081.37 1740)" fill="#1E3966"/></g><g filter="url(#filter2_f)"><rect width="148" height="148" rx="46" transform="matrix(.86603 .5 -.86603 .5 1048.88 1246)" fill="#1E3966"/></g><defs><filter id="filter0_f" x="463.839" y="1150.5" width="342.22" height="209.415" filterUnits="userSpaceOnUse" color-interpolation-filters="sRGB"><feFlood flood-opacity="0" result="BackgroundImageFix"/><feBlend in="SourceGraphic" in2="BackgroundImageFix" result="shape"/><feGaussianBlur stdDeviation="7" result="effect1_foregroundBlur"/></filter><filter id="filter1_f" x="920.636" y="1743.28" width="321.476" height="197.439" filterUnits="userSpaceOnUse" color-interpolation-filters="sRGB"><feFlood flood-opacity="0" result="BackgroundImageFix"/><feBlend in="SourceGraphic" in2="BackgroundImageFix" result="shape"/><feGaussianBlur stdDeviation="7" result="effect1_foregroundBlur"/></filter><filter id="filter2_f" x="920.041" y="1235.47" width="257.671" height="169.054" filterUnits="userSpaceOnUse" color-interpolation-filters="sRGB"><feFlood flood-opacity="0" result="BackgroundImageFix"/><feBlend in="SourceGraphic" in2="BackgroundImageFix" result="shape"/><feGaussianBlur stdDeviation="12" result="effect1_foregroundBlur"/></filter></defs></svg>