<svg width="152" height="98" fill="none" xmlns="http://www.w3.org/2000/svg"><path d="M76 41.358l38-20.68v18.095L76 59.456V41.359z" fill="url(#paint0_linear)"/><path d="M38 20.679l38 20.68v18.094l-38-20.68V20.68z" fill="url(#paint1_linear)"/><path d="M75.972 0L114 20.68 76 41.36 38 20.68 75.972 0z" fill="url(#paint2_linear)"/><path d="M38 79.36l38-20.68v18.094L38 97.455V79.36z" fill="url(#paint3_linear)"/><path d="M0 58.68l38 20.68v18.094L0 76.774V58.68z" fill="url(#paint4_linear)"/><path d="M37.972 38L76 58.68 38 79.36 0 58.68 37.972 38z" fill="url(#paint5_linear)"/><path d="M114 79.27l38-20.68v18.094l-38 20.682V79.269z" fill="url(#paint6_linear)"/><path d="M76 58.59l38 20.68v18.094l-38-20.68V58.59z" fill="url(#paint7_linear)"/><path d="M113.972 37.91L152 58.59l-38 20.68-38-20.68 37.972-20.68z" fill="url(#paint8_linear)"/><defs><linearGradient id="paint0_linear" x1="114" y1="62.728" x2="75.928" y2="62.595" gradientUnits="userSpaceOnUse"><stop stop-color="#CF4D46"/><stop offset="1" stop-color="#FA8580"/></linearGradient><linearGradient id="paint1_linear" x1="38" y1="24.987" x2="72.898" y2="69.174" gradientUnits="userSpaceOnUse"><stop stop-color="#FED1D1"/><stop offset=".943" stop-color="#F69995"/></linearGradient><linearGradient id="paint2_linear" x1="114" y1="20.68" x2="36.882" y2="26.404" gradientUnits="userSpaceOnUse"><stop stop-color="#EC564E"/><stop offset="1" stop-color="#FFCACA"/></linearGradient><linearGradient id="paint3_linear" x1="76" y1="100.728" x2="37.928" y2="100.596" gradientUnits="userSpaceOnUse"><stop stop-color="#C4C4C4"/><stop offset="1" stop-color="#D6D6D6"/></linearGradient><linearGradient id="paint4_linear" x1="0" y1="62.988" x2="2.976" y2="119.629" gradientUnits="userSpaceOnUse"><stop stop-color="#F3F3F3"/><stop offset="1" stop-color="#DEDDDD"/></linearGradient><linearGradient id="paint5_linear" x1="76" y1="58.68" x2="21.377" y2="92.113" gradientUnits="userSpaceOnUse"><stop stop-color="#C4C4C4"/><stop offset="1" stop-color="#F3F3F3"/></linearGradient><linearGradient id="paint6_linear" x1="152" y1="100.639" x2="113.928" y2="100.506" gradientUnits="userSpaceOnUse"><stop stop-color="#C4C4C4"/><stop offset="1" stop-color="#D6D6D6"/></linearGradient><linearGradient id="paint7_linear" x1="76" y1="62.898" x2="78.976" y2="119.54" gradientUnits="userSpaceOnUse"><stop stop-color="#F3F3F3"/><stop offset="1" stop-color="#DEDDDD"/></linearGradient><linearGradient id="paint8_linear" x1="152" y1="58.59" x2="97.376" y2="92.023" gradientUnits="userSpaceOnUse"><stop stop-color="#C4C4C4"/><stop offset="1" stop-color="#F3F3F3"/></linearGradient></defs></svg>