<svg width="2248" height="1944" viewBox="0 0 2248 1944" fill="none" xmlns="http://www.w3.org/2000/svg">
<path d="M960.914 465.163L800.124 372.33L639.333 465.163L960.914 650.828L1282.5 465.163L1121.71 372.33L960.914 465.163Z" stroke="#3B73CC"/>
<path d="M1121.71 743.661L1282.5 650.828L1443.29 743.661L1282.5 836.493L1121.71 743.661Z" stroke="#3B73CC"/>
<path d="M639.869 836.184L800.124 743.661L1121.71 929.326L961.45 1021.85L639.869 836.184Z" stroke="#3B73CC"/>
<path d="M1764.87 743.661L1443.29 557.996L1604.08 465.163L2086.45 743.661L1764.87 929.326L1604.08 836.493L1764.87 743.661Z" stroke="#3B73CC"/>
<path d="M1121.71 1114.99L1443.29 929.326L1604.08 1022.16L1282.5 1207.82L1121.71 1114.99Z" stroke="#3B73CC"/>
<path d="M800.124 186.665L960.914 279.498L1121.71 186.665L1282.5 279.498L1443.29 186.665L1121.71 1L800.124 186.665Z" stroke="#3B73CC"/>
<path d="M316.751 831.493L155.961 738.661L477.542 552.996L638.333 645.828L316.751 831.493Z" stroke="#254B86" stroke-width="0.618884"/>
<g filter="url(#filter0_f)">
<path d="M640.007 1345.41L478.705 1252.29L629.891 1165L791.193 1258.13L640.007 1345.41Z" stroke="#254B86"/>
</g>
<rect width="312" height="312" rx="64" transform="matrix(0.866025 0.5 -0.866025 0.5 512.905 1489)" fill="#1E3966"/>
<path d="M802.022 1740.46L629.705 1640.97L974.34 1442L1146.66 1541.49L802.022 1740.46Z" stroke="#254B86"/>
<g filter="url(#filter1_f)">
<rect width="204" height="204" rx="59" transform="matrix(0.866025 0.5 -0.866025 0.5 1081.37 1740)" fill="#1E3966"/>
</g>
<g filter="url(#filter2_f)">
<rect width="148" height="148" rx="46" transform="matrix(0.866025 0.5 -0.866025 0.5 1048.88 1246)" fill="#1E3966"/>
</g>
<defs>
<filter id="filter0_f" x="463.839" y="1150.5" width="342.22" height="209.415" filterUnits="userSpaceOnUse" color-interpolation-filters="sRGB">
<feFlood flood-opacity="0" result="BackgroundImageFix"/>
<feBlend mode="normal" in="SourceGraphic" in2="BackgroundImageFix" result="shape"/>
<feGaussianBlur stdDeviation="7" result="effect1_foregroundBlur"/>
</filter>
<filter id="filter1_f" x="920.636" y="1743.28" width="321.476" height="197.439" filterUnits="userSpaceOnUse" color-interpolation-filters="sRGB">
<feFlood flood-opacity="0" result="BackgroundImageFix"/>
<feBlend mode="normal" in="SourceGraphic" in2="BackgroundImageFix" result="shape"/>
<feGaussianBlur stdDeviation="7" result="effect1_foregroundBlur"/>
</filter>
<filter id="filter2_f" x="920.041" y="1235.47" width="257.671" height="169.054" filterUnits="userSpaceOnUse" color-interpolation-filters="sRGB">
<feFlood flood-opacity="0" result="BackgroundImageFix"/>
<feBlend mode="normal" in="SourceGraphic" in2="BackgroundImageFix" result="shape"/>
<feGaussianBlur stdDeviation="12" result="effect1_foregroundBlur"/>
</filter>
</defs>
</svg>
