<svg width="2252" height="1407" viewBox="0 0 2252 1407" fill="none" xmlns="http://www.w3.org/2000/svg">
<rect width="148" height="148" rx="46" transform="matrix(0.866025 0.5 -0.866025 0.5 1075.96 489)" fill="#1E3966"/>
<rect width="359" height="359" rx="63" transform="matrix(0.866025 0.5 -0.866025 0.5 1388.69 0)" fill="#F2F2F2"/>
<rect width="312" height="312" rx="64" transform="matrix(0.866025 0.5 -0.866025 0.5 1535.99 998)" fill="#F2F2F2"/>
<path d="M964.744 571.163L803.953 478.33L643.163 571.163L964.744 756.828L1286.33 571.163L1125.53 478.33L964.744 571.163Z" stroke="#C0C0C0" stroke-width="0.618884"/>
<path d="M1125.53 849.661L1286.33 756.828L1447.12 849.661L1286.33 942.493L1125.53 849.661Z" stroke="#C0C0C0" stroke-width="0.618884"/>
<path d="M643.699 942.184L803.953 849.661L1125.53 1035.33L965.28 1127.85L643.699 942.184Z" stroke="#C0C0C0" stroke-width="0.618884"/>
<path d="M1768.7 849.661L1447.12 663.996L1607.91 571.163L2090.28 849.661L1768.7 1035.33L1607.91 942.493L1768.7 849.661Z" stroke="#C0C0C0" stroke-width="0.618884"/>
<path d="M1125.53 1220.99L1447.12 1035.33L1607.91 1128.16L1286.33 1313.82L1125.53 1220.99Z" stroke="#C0C0C0" stroke-width="0.618884"/>
<path d="M803.953 292.665L964.744 385.498L1125.53 292.665L1286.33 385.498L1447.12 292.665L1125.53 107L803.953 292.665Z" stroke="#C0C0C0" stroke-width="0.618884"/>
<path d="M321.581 942.493L160.79 849.66L482.372 663.995L643.163 756.828L321.581 942.493Z" stroke="#C0C0C0" stroke-width="0.618884"/>
</svg>
