<svg width="2107" height="2995" viewBox="0 0 2107 2995" fill="none" xmlns="http://www.w3.org/2000/svg">
<path d="M819.698 2251.16L658.908 2158.33L498.117 2251.16L819.698 2436.83L1141.28 2251.16L980.489 2158.33L819.698 2251.16Z" stroke="#B4B4B4" stroke-width="0.618884"/>
<path d="M980.489 2529.66L1141.28 2436.83L1302.07 2529.66L1141.28 2622.49L980.489 2529.66Z" stroke="#B4B4B4" stroke-width="0.618884"/>
<path d="M498.653 2622.18L658.908 2529.66L980.489 2715.33L820.234 2807.85L498.653 2622.18Z" stroke="#B4B4B4" stroke-width="0.618884"/>
<path d="M1623.65 2529.66L1302.07 2344L1462.86 2251.16L1945.23 2529.66L1623.65 2715.33L1462.86 2622.49L1623.65 2529.66Z" stroke="#B4B4B4" stroke-width="0.618884"/>
<path d="M980.489 2900.99L1302.07 2715.33L1462.86 2808.16L1141.28 2993.82L980.489 2900.99Z" stroke="#B4B4B4" stroke-width="0.618884"/>
<path d="M658.908 1972.67L819.698 2065.5L980.489 1972.67L1141.28 2065.5L1302.07 1972.67L980.489 1787L658.908 1972.67Z" stroke="#B4B4B4" stroke-width="0.618884"/>
<rect width="216.889" height="216.889" rx="64" transform="matrix(0.866025 0.5 -0.866025 0.5 721.576 2168)" fill="#F2F2F2"/>
<rect width="216.889" height="216.889" rx="64" transform="matrix(0.866025 0.5 -0.866025 0.5 454.576 314)" fill="#F2F2F2"/>
<rect width="216.889" height="216.889" rx="64" transform="matrix(0.866025 0.5 -0.866025 0.5 432.575 912)" fill="#F2F2F2"/>
<rect width="359" height="359" rx="63" transform="matrix(0.866025 0.5 -0.866025 0.5 1510.65 655)" fill="#F2F2F2"/>
<path d="M803.953 465.163L643.163 372.33L482.372 465.163L803.953 650.828L1125.53 465.163L964.744 372.33L803.953 465.163Z" stroke="#B4B4B4" stroke-width="0.618884"/>
<path d="M964.744 743.661L1125.53 650.828L1286.33 743.661L1125.53 836.493L964.744 743.661Z" stroke="#B4B4B4" stroke-width="0.618884"/>
<path d="M482.908 836.184L643.163 743.661L964.744 929.326L804.489 1021.85L482.908 836.184Z" stroke="#B4B4B4" stroke-width="0.618884"/>
<path d="M1607.91 743.661L1286.33 557.996L1447.12 465.163L1929.49 743.661L1607.91 929.326L1447.12 836.493L1607.91 743.661Z" stroke="#B4B4B4" stroke-width="0.618884"/>
<path d="M964.744 1114.99L1286.33 929.326L1447.12 1022.16L1125.53 1207.82L964.744 1114.99Z" stroke="#B4B4B4" stroke-width="0.618884"/>
<path d="M643.163 186.665L803.953 279.498L964.744 186.665L1125.53 279.498L1286.33 186.665L964.744 1L643.163 186.665Z" stroke="#B4B4B4" stroke-width="0.618884"/>
<rect width="148" height="148" rx="46" transform="matrix(0.866025 0.5 -0.866025 0.5 536.916 36)" fill="#F2F2F2"/>
</svg>
