<svg width="2248" height="1299" viewBox="0 0 2248 1299" fill="none" xmlns="http://www.w3.org/2000/svg">
<rect width="204" height="204" rx="59" transform="matrix(0.866025 0.5 -0.866025 0.5 540.839 387)" fill="#1E3966"/>
<rect width="312" height="312" rx="64" transform="matrix(0.866025 0.5 -0.866025 0.5 1436.37 751)" fill="#1E3966"/>
<rect width="148" height="148" rx="46" transform="matrix(0.866025 0.5 -0.866025 0.5 589.342 915)" fill="#1E3966"/>
<rect width="359" height="359" rx="63" transform="matrix(0.866025 0.5 -0.866025 0.5 1250.07 178)" fill="#1E3966"/>
<path d="M960.914 465.163L800.124 372.33L639.333 465.163L960.914 650.828L1282.5 465.163L1121.71 372.33L960.914 465.163Z" stroke="#254B86"/>
<path d="M1121.71 743.661L1282.5 650.828L1443.29 743.661L1282.5 836.493L1121.71 743.661Z" stroke="#254B86"/>
<path d="M639.869 836.184L800.124 743.661L1121.71 929.326L961.45 1021.85L639.869 836.184Z" stroke="#254B86"/>
<path d="M1764.87 743.661L1443.29 557.996L1604.08 465.163L2086.45 743.661L1764.87 929.326L1604.08 836.493L1764.87 743.661Z" stroke="#254B86"/>
<path d="M1121.71 1114.99L1443.29 929.326L1604.08 1022.16L1282.5 1207.82L1121.71 1114.99Z" stroke="#254B86"/>
<path d="M800.124 186.665L960.914 279.498L1121.71 186.665L1282.5 279.498L1443.29 186.665L1121.71 1L800.124 186.665Z" stroke="#254B86"/>
<path d="M316.751 831.493L155.96 738.661L477.542 552.996L638.333 645.828L316.751 831.493Z" stroke="#254B86" stroke-width="0.618884"/>
</svg>
