<svg width="603" height="637" viewBox="0 0 603 637" fill="none" xmlns="http://www.w3.org/2000/svg">
<rect width="62.8738" height="62.8738" transform="matrix(0.866026 0.5 -0.866026 0.5 275.451 223)" fill="#C2D6F8"/>
<rect width="62.8737" height="62.8737" transform="matrix(0.866025 0.5 -2.20305e-08 1 221 254.437)" fill="#88A8DD"/>
<rect width="62.8737" height="62.8738" transform="matrix(0.866025 -0.5 2.20305e-08 1 275.402 285.874)" fill="#577BB4"/>
<rect width="62.8738" height="62.8738" transform="matrix(0.866026 0.5 -0.866026 0.5 329.451 0)" fill="#C2D6F8"/>
<rect width="62.8737" height="62.8737" transform="matrix(0.866025 0.5 -2.20305e-08 1 275 31.437)" fill="#88A8DD"/>
<rect width="62.8737" height="62.8738" transform="matrix(0.866025 -0.5 2.20305e-08 1 329.402 62.8735)" fill="#577BB4"/>
<rect width="62.8738" height="62.8738" transform="matrix(0.866026 0.5 -0.866026 0.5 274.451 32)" fill="#C2D6F8"/>
<rect width="62.8737" height="62.8737" transform="matrix(0.866025 0.5 -2.20305e-08 1 220 63.437)" fill="#88A8DD"/>
<rect width="62.8737" height="62.8738" transform="matrix(0.866025 -0.5 2.20305e-08 1 274.402 94.8735)" fill="#577BB4"/>
<rect width="62.8738" height="62.8738" transform="matrix(0.866026 0.5 -0.866026 0.5 219.451 64)" fill="#C2D6F8"/>
<rect width="62.8737" height="62.8737" transform="matrix(0.866025 0.5 -2.20305e-08 1 165 95.437)" fill="#88A8DD"/>
<rect width="62.8737" height="62.8738" transform="matrix(0.866025 -0.5 2.20305e-08 1 219.402 126.874)" fill="#577BB4"/>
<rect width="62.8738" height="62.8738" transform="matrix(0.866026 0.5 -0.866026 0.5 274.451 96)" fill="#C2D6F8"/>
<rect width="62.8737" height="62.8737" transform="matrix(0.866025 0.5 -2.20305e-08 1 220 127.437)" fill="#88A8DD"/>
<rect width="62.8737" height="62.8738" transform="matrix(0.866025 -0.5 2.20305e-08 1 274.402 158.874)" fill="#577BB4"/>
<rect width="62.8738" height="62.8738" transform="matrix(0.866026 0.5 -0.866026 0.5 164.451 223)" fill="#C2D6F8"/>
<rect width="62.8737" height="62.8737" transform="matrix(0.866025 0.5 -2.20305e-08 1 110 254.437)" fill="#88A8DD"/>
<rect width="62.8737" height="62.8738" transform="matrix(0.866025 -0.5 2.20305e-08 1 164.402 285.874)" fill="#577BB4"/>
<rect width="62.8738" height="62.8738" transform="matrix(0.866026 0.5 -0.866026 0.5 109.451 255)" fill="#C2D6F8"/>
<rect width="62.8737" height="62.8737" transform="matrix(0.866025 0.5 -2.20305e-08 1 55 286.437)" fill="#88A8DD"/>
<rect width="62.8737" height="62.8738" transform="matrix(0.866025 -0.5 2.20305e-08 1 109.402 317.874)" fill="#577BB4"/>
<rect width="62.8738" height="62.8738" transform="matrix(0.866026 0.5 -0.866026 0.5 54.4507 287)" fill="#C2D6F8"/>
<rect width="62.8737" height="62.8737" transform="matrix(0.866025 0.5 -2.20305e-08 1 0 318.437)" fill="#88A8DD"/>
<rect width="62.8737" height="62.8738" transform="matrix(0.866025 -0.5 2.20305e-08 1 54.4023 349.874)" fill="#577BB4"/>
<rect width="62.8738" height="62.8738" transform="matrix(0.866026 0.5 -0.866026 0.5 329.451 128)" fill="#C2D6F8"/>
<rect width="62.8737" height="62.8737" transform="matrix(0.866025 0.5 -2.20305e-08 1 275 159.437)" fill="#88A8DD"/>
<rect width="62.8737" height="62.8738" transform="matrix(0.866025 -0.5 2.20305e-08 1 329.402 190.874)" fill="#577BB4"/>
<rect width="62.8738" height="62.8738" transform="matrix(0.866026 0.5 -0.866026 0.5 219.451 255)" fill="#C2D6F8"/>
<rect width="62.8737" height="62.8737" transform="matrix(0.866025 0.5 -2.20305e-08 1 165 286.437)" fill="#88A8DD"/>
<rect width="62.8737" height="62.8738" transform="matrix(0.866025 -0.5 2.20305e-08 1 219.402 317.874)" fill="#577BB4"/>
<rect width="62.8738" height="62.8738" transform="matrix(0.866026 0.5 -0.866026 0.5 274.451 160)" fill="#C2D6F8"/>
<rect width="62.8737" height="62.8737" transform="matrix(0.866025 0.5 -2.20305e-08 1 220 191.437)" fill="#88A8DD"/>
<rect width="62.8737" height="62.8738" transform="matrix(0.866025 -0.5 2.20305e-08 1 274.402 222.874)" fill="#577BB4"/>
<rect width="62.8738" height="62.8738" transform="matrix(0.866026 0.5 -0.866026 0.5 438.451 191)" fill="#C2D6F8"/>
<rect width="62.8737" height="62.8737" transform="matrix(0.866025 0.5 -2.20305e-08 1 384 222.437)" fill="#88A8DD"/>
<rect width="62.8737" height="62.8738" transform="matrix(0.866025 -0.5 2.20305e-08 1 438.402 253.874)" fill="#577BB4"/>
<rect width="62.8738" height="62.8738" transform="matrix(0.866026 0.5 -0.866026 0.5 383.451 223)" fill="#C2D6F8"/>
<rect width="62.8737" height="62.8737" transform="matrix(0.866025 0.5 -2.20305e-08 1 329 254.437)" fill="#88A8DD"/>
<rect width="62.8738" height="62.8738" transform="matrix(0.866025 -0.5 2.20305e-08 1 383.402 285.874)" fill="#577BB4"/>
<rect width="62.8738" height="62.8738" transform="matrix(0.866026 0.5 -0.866026 0.5 493.451 223)" fill="#C2D6F8"/>
<rect width="62.8737" height="62.8737" transform="matrix(0.866025 0.5 -2.20305e-08 1 439 254.437)" fill="#88A8DD"/>
<rect width="62.8738" height="62.8738" transform="matrix(0.866025 -0.5 2.20305e-08 1 493.402 285.874)" fill="#577BB4"/>
<rect width="62.8738" height="62.8738" transform="matrix(0.866026 0.5 -0.866026 0.5 548.451 255)" fill="#C2D6F8"/>
<rect width="62.8737" height="62.8737" transform="matrix(0.866025 0.5 -2.20305e-08 1 494 286.437)" fill="#88A8DD"/>
<rect width="62.8738" height="62.8738" transform="matrix(0.866025 -0.5 2.20305e-08 1 548.402 317.874)" fill="#577BB4"/>
<rect width="62.8738" height="62.8738" transform="matrix(0.866026 0.5 -0.866026 0.5 493.451 287)" fill="#C2D6F8"/>
<rect width="62.8737" height="62.8737" transform="matrix(0.866025 0.5 -2.20305e-08 1 439 318.437)" fill="#88A8DD"/>
<rect width="62.8738" height="62.8738" transform="matrix(0.866025 -0.5 2.20305e-08 1 493.402 349.874)" fill="#577BB4"/>
<rect width="62.8738" height="62.8738" transform="matrix(0.866025 0.5 -0.866025 0.5 384.45 287)" fill="#FDA19C"/>
<rect width="62.8738" height="62.8738" transform="matrix(0.866025 0.5 -2.20305e-08 1 330 318.437)" fill="#E9756F"/>
<rect width="62.8738" height="62.8738" transform="matrix(0.866026 -0.5 2.20305e-08 1 384.407 349.874)" fill="#B45757"/>
<rect width="62.8738" height="62.8738" transform="matrix(0.866026 0.5 -0.866026 0.5 329.451 319)" fill="#C2D6F8"/>
<rect width="62.8737" height="62.8737" transform="matrix(0.866025 0.5 -2.20305e-08 1 275 350.437)" fill="#88A8DD"/>
<rect width="62.8737" height="62.8738" transform="matrix(0.866025 -0.5 2.20305e-08 1 329.402 381.874)" fill="#577BB4"/>
<rect width="62.8738" height="62.8738" transform="matrix(0.866026 0.5 -0.866026 0.5 274.451 351)" fill="#C2D6F8"/>
<rect width="62.8737" height="62.8737" transform="matrix(0.866025 0.5 -2.20305e-08 1 220 382.437)" fill="#88A8DD"/>
<rect width="62.8737" height="62.8738" transform="matrix(0.866025 -0.5 2.20305e-08 1 274.402 413.874)" fill="#577BB4"/>
<rect width="62.8738" height="62.8738" transform="matrix(0.866026 0.5 -0.866026 0.5 219.451 383)" fill="#C2D6F8"/>
<rect width="62.8737" height="62.8737" transform="matrix(0.866025 0.5 -2.20305e-08 1 165 414.437)" fill="#88A8DD"/>
<rect width="62.8737" height="62.8738" transform="matrix(0.866025 -0.5 2.20305e-08 1 219.402 445.874)" fill="#577BB4"/>
<rect width="62.8738" height="62.8738" transform="matrix(0.866026 0.5 -0.866026 0.5 274.451 415)" fill="#C2D6F8"/>
<rect width="62.8737" height="62.8737" transform="matrix(0.866025 0.5 -2.20305e-08 1 220 446.437)" fill="#88A8DD"/>
<rect width="62.8737" height="62.8738" transform="matrix(0.866025 -0.5 2.20305e-08 1 274.402 477.874)" fill="#577BB4"/>
<rect width="62.8738" height="62.8738" transform="matrix(0.866026 0.5 -0.866026 0.5 329.451 447)" fill="#C2D6F8"/>
<rect width="62.8737" height="62.8737" transform="matrix(0.866025 0.5 -2.20305e-08 1 275 478.437)" fill="#88A8DD"/>
<rect width="62.8737" height="62.8738" transform="matrix(0.866025 -0.5 2.20305e-08 1 329.402 509.874)" fill="#577BB4"/>
<rect width="62.8738" height="62.8738" transform="matrix(0.866026 0.5 -0.866026 0.5 274.451 479)" fill="#C2D6F8"/>
<rect width="62.8737" height="62.8737" transform="matrix(0.866025 0.5 -2.20305e-08 1 220 510.437)" fill="#88A8DD"/>
<rect width="62.8738" height="62.8738" transform="matrix(0.866025 -0.5 2.20305e-08 1 274.402 541.874)" fill="#577BB4"/>
<rect width="62.8738" height="62.8738" transform="matrix(0.866026 0.5 -0.866026 0.5 219.451 511)" fill="#C2D6F8"/>
<rect width="62.8737" height="62.8737" transform="matrix(0.866025 0.5 -2.20305e-08 1 165 542.437)" fill="#88A8DD"/>
<rect width="62.8738" height="62.8738" transform="matrix(0.866025 -0.5 2.20305e-08 1 219.402 573.874)" fill="#577BB4"/>
</svg>
