<svg width="2252" height="1301" fill="none" xmlns="http://www.w3.org/2000/svg"><rect width="148" height="148" rx="46" transform="matrix(.86603 .5 -.86603 .5 736.172 897)" fill="#1E3966"/><rect width="359" height="359" rx="63" transform="matrix(.86603 .5 -.86603 .5 1310.9 144)" fill="#1E3966"/><rect width="312" height="312" rx="64" transform="matrix(.86603 .5 -.86603 .5 1513.2 587)" fill="#1E3966"/><path d="M964.745 465.163L803.954 372.33l-160.791 92.833 321.581 185.665 321.586-185.665-160.79-92.833-160.795 92.833zm160.795 278.498l160.79-92.833 160.79 92.833-160.79 92.832-160.79-92.832zm-481.841 92.523l160.255-92.523 321.586 185.665-160.26 92.524-321.581-185.666zM1768.7 743.661l-321.58-185.665 160.79-92.833 482.37 278.498-321.58 185.665-160.79-92.833 160.79-92.832zm-643.16 371.329l321.58-185.664 160.79 92.834-321.58 185.66-160.79-92.83zM803.954 186.665l160.791 92.833 160.795-92.833 160.79 92.833 160.79-92.833L1125.54 1 803.954 186.665zM321.581 836.493l-160.79-92.832 321.581-185.665 160.791 92.832-321.582 185.665z" stroke="#36578C" stroke-width=".619"/></svg>