<svg width="2252" height="1301" fill="none" xmlns="http://www.w3.org/2000/svg"><rect width="148" height="148" rx="46" transform="matrix(.86603 .5 -.86603 .5 736.172 897)" fill="#1E3966"/><rect width="359" height="359" rx="63" transform="matrix(.86603 .5 -.86603 .5 1310.9 144)" fill="#1E3966"/><rect width="312" height="312" rx="64" transform="matrix(.86603 .5 -.86603 .5 1513.2 587)" fill="#1E3966"/><path d="M964.745 465.163L803.954 372.33l-160.791 92.833 321.581 185.665 321.586-185.665-160.79-92.833-160.795 92.833zm160.795 278.498l160.79-92.833 160.79 92.833-160.79 92.832-160.79-92.832zm-481.841 92.523l160.255-92.523 321.586 185.665-160.26 92.524-321.581-185.666zM1768.7 743.661l-321.58-185.665 160.79-92.833 482.37 278.498-321.58 185.665-160.79-92.833 160.79-92.832zm-643.16 371.329l321.58-185.664 160.79 92.834-321.58 185.66-160.79-92.83zM803.954 186.665l160.791 92.833 160.795-92.833 160.79 92.833 160.79-92.833L1125.54 1 803.954 186.665zM321.582 836.493l-160.791-92.832 321.581-185.665 160.791 92.832-321.581 185.665z" stroke="#36578C" stroke-width=".619"/><path transform="matrix(.86603 .5 -.86603 .5 1653 227)" fill="url(#paint0_linear)" d="M0 0h51.962v51.962H0z"/><path transform="matrix(.86603 .5 0 1 1608 252.981)" fill="url(#paint1_linear)" d="M0 0h51.962v51.962H0z"/><path transform="matrix(.86603 -.5 0 1 1652.96 278.961)" fill="url(#paint2_linear)" d="M0 0h51.962v51.962H0z"/><path transform="matrix(.86603 .5 -.86603 .5 633 864)" fill="url(#paint3_linear)" d="M0 0h51.962v51.962H0z"/><path transform="matrix(.86603 .5 0 1 588 889.981)" fill="url(#paint4_linear)" d="M0 0h51.962v51.962H0z"/><path transform="matrix(.86603 -.5 0 1 632.963 915.961)" fill="url(#paint5_linear)" d="M0 0h51.962v51.962H0z"/><defs><linearGradient id="paint0_linear" x1="49.733" y1="2.229" x2="20.524" y2="60.646" gradientUnits="userSpaceOnUse"><stop stop-color="#EBEBEB"/><stop offset="1" stop-color="#FDFDFD"/></linearGradient><linearGradient id="paint1_linear" x1="0" y1="3.787" x2="30.701" y2="62.986" gradientUnits="userSpaceOnUse"><stop stop-color="#F4F4F4"/><stop offset="1" stop-color="#D8D8D8"/></linearGradient><linearGradient id="paint2_linear" x1="0" y1="5.608" x2="45.156" y2="-.377" gradientUnits="userSpaceOnUse"><stop stop-color="#D0D0D0"/><stop offset=".927" stop-color="#C4C4C4"/></linearGradient><linearGradient id="paint3_linear" x1="49.733" y1="2.229" x2="20.524" y2="60.646" gradientUnits="userSpaceOnUse"><stop stop-color="#EBEBEB"/><stop offset="1" stop-color="#FDFDFD"/></linearGradient><linearGradient id="paint4_linear" x1="0" y1="3.787" x2="30.701" y2="62.986" gradientUnits="userSpaceOnUse"><stop stop-color="#F4F4F4"/><stop offset="1" stop-color="#D8D8D8"/></linearGradient><linearGradient id="paint5_linear" x1="0" y1="5.608" x2="45.156" y2="-.377" gradientUnits="userSpaceOnUse"><stop stop-color="#D0D0D0"/><stop offset=".927" stop-color="#C4C4C4"/></linearGradient></defs></svg>