<svg width="2091" height="1209" fill="none" xmlns="http://www.w3.org/2000/svg"><rect width="216.889" height="216.889" rx="64" transform="matrix(.86603 .5 -.86603 .5 432.576 912)" fill="#F2F2F2"/><rect width="359" height="359" rx="63" transform="matrix(.86603 .5 -.86603 .5 1510.65 655)" fill="#F2F2F2"/><path d="M803.954 465.163L643.163 372.33l-160.791 92.833 321.582 185.665 321.586-185.665-160.796-92.833-160.79 92.833zm160.79 278.498l160.796-92.833 160.79 92.833-160.79 92.832-160.796-92.832zm-481.836 92.523l160.255-92.523 321.581 185.665-160.254 92.524-321.582-185.666zm1125.002-92.523l-321.58-185.665 160.79-92.833 482.37 278.498-321.58 185.665-160.79-92.833 160.79-92.832zM964.744 1114.99l321.586-185.664 160.79 92.834-321.58 185.66-160.796-92.83zM643.163 186.665l160.791 92.833 160.79-92.833 160.796 92.833 160.79-92.833L964.745 1 643.163 186.665z" stroke="#B4B4B4" stroke-width=".619"/><rect width="148" height="148" rx="46" transform="matrix(.86603 .5 -.86603 .5 573.916 229)" fill="#F2F2F2"/></svg>