<svg width="2107" height="2995" fill="none" xmlns="http://www.w3.org/2000/svg"><path d="M819.698 2251.16l-160.79-92.83-160.791 92.83 321.581 185.67 321.582-185.67-160.791-92.83-160.791 92.83zm160.791 278.5l160.791-92.83 160.79 92.83-160.79 92.83-160.791-92.83zm-481.836 92.52l160.255-92.52 321.581 185.67-160.255 92.52-321.581-185.67zm1124.997-92.52L1302.07 2344l160.79-92.84 482.37 278.5-321.58 185.67-160.79-92.84 160.79-92.83zm-643.161 371.33l321.581-185.66 160.79 92.83-321.58 185.66-160.791-92.83zm-321.581-928.32l160.79 92.83 160.791-92.83 160.791 92.83 160.79-92.83L980.489 1787l-321.581 185.67z" stroke="#B4B4B4" stroke-width=".619"/><rect width="216.889" height="216.889" rx="64" transform="matrix(.86603 .5 -.86603 .5 721.576 2168)" fill="#F2F2F2"/><rect width="216.889" height="216.889" rx="64" transform="matrix(.86603 .5 -.86603 .5 454.576 314)" fill="#F2F2F2"/><rect width="216.889" height="216.889" rx="64" transform="matrix(.86603 .5 -.86603 .5 432.575 912)" fill="#F2F2F2"/><rect width="359" height="359" rx="63" transform="matrix(.86603 .5 -.86603 .5 1510.65 655)" fill="#F2F2F2"/><path d="M803.953 465.163l-160.79-92.833-160.791 92.833 321.581 185.665 321.577-185.665-160.786-92.833-160.791 92.833zm160.791 278.498l160.786-92.833 160.8 92.833-160.8 92.832-160.786-92.832zm-481.836 92.523l160.255-92.523 321.581 185.665-160.255 92.524-321.581-185.666zm1125.002-92.523l-321.58-185.665 160.79-92.833 482.37 278.498-321.58 185.665-160.79-92.833 160.79-92.832zM964.744 1114.99l321.586-185.664 160.79 92.834-321.59 185.66-160.786-92.83zM643.163 186.665l160.79 92.833 160.791-92.833 160.786 92.833 160.8-92.833L964.744 1 643.163 186.665z" stroke="#B4B4B4" stroke-width=".619"/><rect width="148" height="148" rx="46" transform="matrix(.86603 .5 -.86603 .5 536.916 36)" fill="#F2F2F2"/></svg>