<svg width="2248" height="1299" fill="none" xmlns="http://www.w3.org/2000/svg"><rect width="204" height="204" rx="59" transform="matrix(.86603 .5 -.86603 .5 540.839 387)" fill="#1E3966"/><rect width="312" height="312" rx="64" transform="matrix(.86603 .5 -.86603 .5 1436.37 751)" fill="#1E3966"/><rect width="148" height="148" rx="46" transform="matrix(.86603 .5 -.86603 .5 589.342 915)" fill="#1E3966"/><rect width="359" height="359" rx="63" transform="matrix(.86603 .5 -.86603 .5 1250.07 178)" fill="#1E3966"/><path d="M960.914 465.163l-160.79-92.833-160.791 92.833 321.581 185.665L1282.5 465.163l-160.79-92.833-160.796 92.833zm160.796 278.498l160.79-92.833 160.79 92.833-160.79 92.832-160.79-92.832zm-481.841 92.523l160.255-92.523 321.586 185.665-160.26 92.524-321.581-185.666zm1125.001-92.523l-321.58-185.665 160.79-92.833 482.37 278.498-321.58 185.665-160.79-92.833 160.79-92.832zm-643.16 371.329l321.58-185.664 160.79 92.834-321.58 185.66-160.79-92.83zM800.124 186.665l160.79 92.833 160.796-92.833 160.79 92.833 160.79-92.833L1121.71 1 800.124 186.665z" stroke="#254B86"/><path d="M316.751 831.493L155.96 738.661l321.582-185.665 160.791 92.832-321.582 185.665z" stroke="#254B86" stroke-width=".619"/></svg>