<svg width="2248" height="1313" fill="none" xmlns="http://www.w3.org/2000/svg"><path d="M960.914 479.163l-160.79-92.833-160.791 92.833 321.581 185.665L1282.5 479.163l-160.79-92.833-160.796 92.833zm160.796 278.498l160.79-92.833 160.79 92.833-160.79 92.832-160.79-92.832zm-481.841 92.523l160.255-92.523 321.586 185.665-160.26 92.524-321.581-185.666zm1125.001-92.523l-321.58-185.665 160.79-92.833 482.37 278.498-321.58 185.665-160.79-92.833 160.79-92.832zm-643.16 371.329l321.58-185.664 160.79 92.834-321.58 185.66-160.79-92.83zM800.124 200.665l160.79 92.833 160.796-92.833 160.79 92.833 160.79-92.833L1121.71 15 800.124 200.665z" stroke="#3B73CC"/><path d="M316.751 845.493L155.96 752.661l321.582-185.665 160.791 92.832-321.582 185.665z" stroke="#254B86" stroke-width=".619"/><g filter="url(#filter0_f)"><path d="M640.006 195.415l-161.302-93.128L629.891 15l161.301 93.128-151.186 87.287z" stroke="#254B86"/></g><rect width="312" height="312" rx="64" transform="matrix(.86603 .5 -.86603 .5 446.904 195)" fill="#1E3966"/><g filter="url(#filter1_f)"><rect width="204" height="204" rx="59" transform="matrix(.86603 .5 -.86603 .5 1621.37 3)" fill="#1E3966"/></g><g filter="url(#filter2_f)"><rect width="148" height="148" rx="46" transform="matrix(.86603 .5 -.86603 .5 1389.88 771)" fill="#1E3966"/></g><defs><filter id="filter0_f" x="463.839" y=".5" width="342.22" height="209.415" filterUnits="userSpaceOnUse" color-interpolation-filters="sRGB"><feFlood flood-opacity="0" result="BackgroundImageFix"/><feBlend in="SourceGraphic" in2="BackgroundImageFix" result="shape"/><feGaussianBlur stdDeviation="7" result="effect1_foregroundBlur"/></filter><filter id="filter1_f" x="1460.64" y="6.281" width="321.476" height="197.439" filterUnits="userSpaceOnUse" color-interpolation-filters="sRGB"><feFlood flood-opacity="0" result="BackgroundImageFix"/><feBlend in="SourceGraphic" in2="BackgroundImageFix" result="shape"/><feGaussianBlur stdDeviation="7" result="effect1_foregroundBlur"/></filter><filter id="filter2_f" x="1261.04" y="760.473" width="257.671" height="169.054" filterUnits="userSpaceOnUse" color-interpolation-filters="sRGB"><feFlood flood-opacity="0" result="BackgroundImageFix"/><feBlend in="SourceGraphic" in2="BackgroundImageFix" result="shape"/><feGaussianBlur stdDeviation="12" result="effect1_foregroundBlur"/></filter></defs></svg>