<svg width="603" height="637" fill="none" xmlns="http://www.w3.org/2000/svg"><path fill="#C2D6F8" d="M275.451 223l54.45 31.437-54.45 31.437-54.45-31.437z"/><path fill="#88A8DD" d="M221 254.437l54.45 31.437v62.874L221 317.311z"/><path fill="#577BB4" d="M275.402 285.874l54.45-31.437v62.874l-54.45 31.437z"/><path fill="#C2D6F8" d="M329.451 0l54.45 31.437-54.45 31.437-54.45-31.437z"/><path fill="#88A8DD" d="M275 31.437l54.45 31.437v62.874L275 94.311z"/><path fill="#577BB4" d="M329.402 62.873l54.45-31.436V94.31l-54.45 31.438z"/><path fill="#C2D6F8" d="M274.451 32l54.45 31.437-54.45 31.437-54.45-31.437z"/><path fill="#88A8DD" d="M220 63.437l54.45 31.437v62.874L220 126.311z"/><path fill="#577BB4" d="M274.402 94.874l54.45-31.437v62.874l-54.45 31.437z"/><path fill="#C2D6F8" d="M219.451 64l54.45 31.437-54.45 31.437-54.45-31.437z"/><path fill="#88A8DD" d="M165 95.437l54.45 31.437v62.874L165 158.311z"/><path fill="#577BB4" d="M219.402 126.874l54.45-31.437v62.874l-54.45 31.437z"/><path fill="#C2D6F8" d="M274.451 96l54.45 31.437-54.45 31.437-54.45-31.437z"/><path fill="#88A8DD" d="M220 127.437l54.45 31.437v62.874L220 190.311z"/><path fill="#577BB4" d="M274.402 158.874l54.45-31.437v62.874l-54.45 31.437z"/><path fill="#C2D6F8" d="M164.451 223l54.45 31.437-54.45 31.437-54.45-31.437z"/><path fill="#88A8DD" d="M110 254.437l54.45 31.437v62.874L110 317.311z"/><path fill="#577BB4" d="M164.402 285.874l54.45-31.437v62.874l-54.45 31.437z"/><path fill="#C2D6F8" d="M109.451 255l54.45 31.437-54.45 31.437-54.45-31.437z"/><path fill="#88A8DD" d="M55 286.437l54.45 31.437v62.874L55 349.311z"/><path fill="#577BB4" d="M109.402 317.874l54.45-31.437v62.874l-54.45 31.437z"/><path fill="#C2D6F8" d="M54.45 287l54.451 31.437-54.45 31.437L0 318.437z"/><path fill="#88A8DD" d="M0 318.437l54.45 31.437v62.874L0 381.311z"/><path fill="#577BB4" d="M54.402 349.874l54.45-31.437v62.874l-54.45 31.437z"/><path fill="#C2D6F8" d="M329.451 128l54.45 31.437-54.45 31.437-54.45-31.437z"/><path fill="#88A8DD" d="M275 159.437l54.45 31.437v62.874L275 222.311z"/><path fill="#577BB4" d="M329.402 190.874l54.45-31.437v62.874l-54.45 31.437z"/><path fill="#C2D6F8" d="M219.451 255l54.45 31.437-54.45 31.437-54.45-31.437z"/><path fill="#88A8DD" d="M165 286.437l54.45 31.437v62.874L165 349.311z"/><path fill="#577BB4" d="M219.402 317.874l54.45-31.437v62.874l-54.45 31.437z"/><path fill="#C2D6F8" d="M274.451 160l54.45 31.437-54.45 31.437-54.45-31.437z"/><path fill="#88A8DD" d="M220 191.437l54.45 31.437v62.874L220 254.311z"/><path fill="#577BB4" d="M274.402 222.874l54.45-31.437v62.874l-54.45 31.437z"/><path fill="#C2D6F8" d="M438.451 191l54.45 31.437-54.45 31.437-54.45-31.437z"/><path fill="#88A8DD" d="M384 222.437l54.45 31.437v62.874L384 285.311z"/><path fill="#577BB4" d="M438.402 253.874l54.45-31.437v62.874l-54.45 31.437z"/><path fill="#C2D6F8" d="M383.451 223l54.45 31.437-54.45 31.437-54.45-31.437z"/><path fill="#88A8DD" d="M329 254.437l54.45 31.437v62.874L329 317.311z"/><path fill="#577BB4" d="M383.402 285.874l54.45-31.437v62.874l-54.45 31.437z"/><path fill="#C2D6F8" d="M493.451 223l54.45 31.437-54.45 31.437-54.45-31.437z"/><path fill="#88A8DD" d="M439 254.437l54.45 31.437v62.874L439 317.311z"/><path fill="#577BB4" d="M493.402 285.874l54.45-31.437v62.874l-54.45 31.437z"/><path fill="#C2D6F8" d="M548.451 255l54.45 31.437-54.45 31.437-54.45-31.437z"/><path fill="#88A8DD" d="M494 286.437l54.45 31.437v62.874L494 349.311z"/><path fill="#577BB4" d="M548.402 317.874l54.45-31.437v62.874l-54.45 31.437z"/><path fill="#C2D6F8" d="M493.451 287l54.45 31.437-54.45 31.437-54.45-31.437z"/><path fill="#88A8DD" d="M439 318.437l54.45 31.437v62.874L439 381.311z"/><path fill="#577BB4" d="M493.402 349.874l54.45-31.437v62.874l-54.45 31.437z"/><path fill="#FDA19C" d="M384.45 287l54.45 31.437-54.45 31.437L330 318.437z"/><path fill="#E9756F" d="M330 318.437l54.45 31.437v62.874L330 381.311z"/><path fill="#B45757" d="M384.407 349.874l54.45-31.437v62.874l-54.45 31.437z"/><path fill="#C2D6F8" d="M329.451 319l54.45 31.437-54.45 31.437-54.45-31.437z"/><path fill="#88A8DD" d="M275 350.437l54.45 31.437v62.874L275 413.311z"/><path fill="#577BB4" d="M329.402 381.874l54.45-31.437v62.874l-54.45 31.437z"/><path fill="#C2D6F8" d="M274.451 351l54.45 31.437-54.45 31.437-54.45-31.437z"/><path fill="#88A8DD" d="M220 382.437l54.45 31.437v62.874L220 445.311z"/><path fill="#577BB4" d="M274.402 413.874l54.45-31.437v62.874l-54.45 31.437z"/><path fill="#C2D6F8" d="M219.451 383l54.45 31.437-54.45 31.437-54.45-31.437z"/><path fill="#88A8DD" d="M165 414.437l54.45 31.437v62.874L165 477.311z"/><path fill="#577BB4" d="M219.402 445.874l54.45-31.437v62.874l-54.45 31.437z"/><path fill="#C2D6F8" d="M274.451 415l54.45 31.437-54.45 31.437-54.45-31.437z"/><path fill="#88A8DD" d="M220 446.437l54.45 31.437v62.874L220 509.311z"/><path fill="#577BB4" d="M274.402 477.874l54.45-31.437v62.874l-54.45 31.437z"/><path fill="#C2D6F8" d="M329.451 447l54.45 31.437-54.45 31.437-54.45-31.437z"/><path fill="#88A8DD" d="M275 478.437l54.45 31.437v62.874L275 541.311z"/><path fill="#577BB4" d="M329.402 509.874l54.45-31.437v62.874l-54.45 31.437z"/><path fill="#C2D6F8" d="M274.451 479l54.45 31.437-54.45 31.437-54.45-31.437z"/><path fill="#88A8DD" d="M220 510.437l54.45 31.437v62.874L220 573.311z"/><path fill="#577BB4" d="M274.402 541.874l54.45-31.437v62.874l-54.45 31.437z"/><path fill="#C2D6F8" d="M219.451 511l54.45 31.437-54.45 31.437-54.45-31.437z"/><path fill="#88A8DD" d="M165 542.437l54.45 31.437v62.874L165 605.311z"/><path fill="#577BB4" d="M219.402 573.874l54.45-31.437v62.874l-54.45 31.437z"/></svg>