<svg width="2252" height="1301" viewBox="0 0 2252 1301" fill="none" xmlns="http://www.w3.org/2000/svg">
<rect width="148" height="148" rx="46" transform="matrix(0.866025 0.5 -0.866025 0.5 736.172 897)" fill="#1E3966"/>
<rect width="359" height="359" rx="63" transform="matrix(0.866025 0.5 -0.866025 0.5 1310.9 144)" fill="#1E3966"/>
<rect width="312" height="312" rx="64" transform="matrix(0.866025 0.5 -0.866025 0.5 1513.2 587)" fill="#1E3966"/>
<path d="M964.745 465.163L803.954 372.33L643.163 465.163L964.744 650.828L1286.33 465.163L1125.54 372.33L964.745 465.163Z" stroke="#36578C" stroke-width="0.618884"/>
<path d="M1125.54 743.661L1286.33 650.828L1447.12 743.661L1286.33 836.493L1125.54 743.661Z" stroke="#36578C" stroke-width="0.618884"/>
<path d="M643.699 836.184L803.954 743.661L1125.54 929.326L965.28 1021.85L643.699 836.184Z" stroke="#36578C" stroke-width="0.618884"/>
<path d="M1768.7 743.661L1447.12 557.996L1607.91 465.163L2090.28 743.661L1768.7 929.326L1607.91 836.493L1768.7 743.661Z" stroke="#36578C" stroke-width="0.618884"/>
<path d="M1125.54 1114.99L1447.12 929.326L1607.91 1022.16L1286.33 1207.82L1125.54 1114.99Z" stroke="#36578C" stroke-width="0.618884"/>
<path d="M803.954 186.665L964.745 279.498L1125.54 186.665L1286.33 279.498L1447.12 186.665L1125.54 1L803.954 186.665Z" stroke="#36578C" stroke-width="0.618884"/>
<path d="M321.581 836.493L160.791 743.661L482.372 557.996L643.163 650.828L321.581 836.493Z" stroke="#36578C" stroke-width="0.618884"/>
</svg>
