<svg width="120" height="30" viewBox="0 0 120 30" fill="none" xmlns="http://www.w3.org/2000/svg">
<path d="M11.9998 6H29.5438V14.952H11.9998V6Z" fill="#E7002A"/>
<path d="M40.7996 14.736C40.982 14.7464 41.1645 14.7182 41.3352 14.6531C41.5059 14.5881 41.661 14.4877 41.7901 14.3585C41.9193 14.2294 42.0197 14.0743 42.0847 13.9036C42.1498 13.7329 42.178 13.5504 42.1676 13.368C42.1854 13.1668 42.1605 12.9641 42.0946 12.7732C42.0286 12.5824 41.923 12.4075 41.7849 12.2603C41.6466 12.113 41.4789 11.9966 41.2926 11.9186C41.1062 11.8407 40.9055 11.803 40.7036 11.808H36.9356V14.712L40.7996 14.736ZM40.7276 10.392C41.1343 10.3591 41.5434 10.4133 41.9275 10.5511C42.3116 10.6889 42.6618 10.907 42.9549 11.191C43.248 11.4749 43.477 11.8181 43.6268 12.1977C43.7766 12.5773 43.8437 12.9844 43.8236 13.392C43.8236 15.192 42.6236 16.224 40.7276 16.224H36.9596V19.152H35.3276V10.392H40.7276ZM49.8236 11.592C47.8076 11.592 46.4156 12.96 46.4156 14.736C46.4156 16.512 47.7356 17.88 49.8236 17.88C51.9116 17.88 53.2076 16.536 53.2076 14.736C53.2076 12.936 51.9116 11.592 49.8236 11.592ZM49.8236 19.344C47.0396 19.344 44.7356 17.496 44.7356 14.736C44.7356 11.976 47.0396 10.104 49.8236 10.104C52.6076 10.104 54.9116 12 54.9116 14.76C54.9116 17.52 52.6556 19.368 49.8476 19.368L49.8236 19.344ZM61.6316 19.368C58.7036 19.368 56.4956 17.52 56.4956 14.736C56.4956 11.952 58.7276 10.128 61.6316 10.128C63.0986 10.0891 64.5362 10.5457 65.7116 11.424L64.8476 12.72C63.9554 12.0088 62.8448 11.6273 61.7036 11.64C59.5676 11.64 58.2476 12.984 58.2476 14.736C58.2476 16.488 59.5916 17.832 61.7276 17.832C62.888 17.8516 64.0208 17.4796 64.9436 16.776L65.8076 18C64.5998 18.9077 63.1172 19.3736 61.6076 19.32L61.6316 19.368ZM80.3996 15.6H83.7596L82.1036 12L80.3996 15.6ZM79.7276 17.016L78.7196 19.128H76.9676L81.2156 10.392H82.9196L87.1916 19.128H85.4396L84.4316 17.016H79.7276ZM95.7596 19.152V15.384H90.0476V19.128H88.4396V10.392H90.0476V13.944H95.7596V10.392H97.3916V19.128L95.7596 19.152ZM99.7916 19.152V10.392H101.4V14.448L105.792 10.392H107.784L103.272 14.592L108 19.128H105.816L101.4 14.88V19.128L99.7916 19.152ZM73.1036 17.664H69.2156V15H73.1036C74.1116 15 74.6876 15.528 74.6876 16.32C74.6876 17.112 74.2316 17.64 73.1036 17.64V17.664ZM73.0076 13.56H69.2156V11.736H75.4556V10.368H67.5836V19.104H72.9836C74.8796 19.104 76.1996 18.072 76.1996 16.344C76.1996 14.616 74.8796 13.584 72.9836 13.584" fill="black"/>
<path d="M12.0001 14.7839H29.5441V23.5679H12.0001V14.7839Z" fill="black"/>
<path d="M15.0467 14.2322H26.4467V15.3122H15.0467V14.2322Z" fill="white"/>
</svg>
