<svg width="120" height="30" viewBox="0 0 120 30" fill="none" xmlns="http://www.w3.org/2000/svg">
<path d="M34.8712 13.4195L35.2577 12.2058L34.0007 12.2456C33.412 12.2239 32.8448 12.0252 32.3681 11.6749H32.5378C33.3036 11.6713 34.0043 11.2342 34.3438 10.5479L34.8965 9.36679C34.463 9.37039 34.0296 9.34507 33.5998 9.29089C33.188 9.19339 32.8196 8.96947 32.5414 8.65159C32.1658 8.25067 31.6457 8.02309 31.0966 8.01949C30.8835 8.01949 30.6704 8.05561 30.4645 8.12059C30.4934 8.02309 30.5187 7.92559 30.5368 7.82443C30.6235 7.12009 30.4248 6.40849 29.9877 5.84864L29.0341 4.67473L28.449 6.04729C28.3551 6.24235 28.2142 6.41215 28.0336 6.53491C27.9325 6.04369 27.6941 5.5958 27.3401 5.24182C26.7478 4.635 25.935 4.29547 25.0862 4.30269C24.9381 4.30269 24.79 4.31353 24.6455 4.3352L23.5041 4.55915C23.6017 4.17627 23.7569 3.81146 23.9665 3.47554L24.595 2.49667L23.0129 2.64477L22.5072 1.56116L21.532 2.09213L20.629 1.19995L19.7259 2.09213L18.7507 1.58644L18.245 2.64477L16.6629 2.46416L17.2914 3.44664C17.5009 3.78256 17.6562 4.14737 17.7538 4.53025L16.6702 4.31714H16.634C16.4823 4.29547 16.3306 4.28464 16.1789 4.28464C15.3301 4.27741 14.5174 4.61694 13.925 5.22376C13.5674 5.58136 13.3218 6.03649 13.2242 6.53491C13.0509 6.41575 12.91 6.25321 12.8161 6.06175L12.2273 4.67834L11.2666 5.85587C10.8367 6.41575 10.6453 7.12369 10.7284 7.82443C10.7464 7.92559 10.7717 8.02309 10.8006 8.12059C10.5947 8.05561 10.3816 8.01949 10.1685 8.01949C9.61944 8.02309 9.0993 8.25067 8.72364 8.65159C8.44914 8.96581 8.08434 9.18979 7.67616 9.29089C7.24272 9.35593 6.80208 9.38119 6.36138 9.36679L6.89958 10.566C7.23912 11.2522 7.93986 11.6893 8.70558 11.6929H8.87538C8.40582 12.0361 7.84596 12.2347 7.26438 12.26L6.00018 12.2058L6.38664 13.4195C6.67566 14.3695 7.49556 15.0666 8.48166 15.193C8.3805 15.8323 7.97598 16.385 7.39806 16.674L6.43002 17.0676L6.95016 17.9743C7.38 18.6425 8.12046 19.0398 8.9115 19.0326C9.11736 19.0326 9.32328 19.0109 9.52554 18.9676C9.57612 19.1879 9.6411 19.4082 9.71334 19.6213C9.89394 20.0982 9.9048 20.6183 9.74946 21.1023L9.2799 22.0884L10.331 22.3665C10.5658 22.4279 10.8114 22.4568 11.0534 22.4568C11.2268 22.4568 11.3966 22.4387 11.5663 22.399C11.6891 22.3701 11.812 22.334 11.9275 22.287C12.0612 22.529 12.2309 22.753 12.4224 22.9516C13.0942 23.6416 14.0478 23.9919 15.2578 23.9919H16.1211L14.3404 24.7324L15.6913 25.4006C16.2367 25.6679 16.793 25.9099 17.36 26.123L17.1975 26.5926L17.6635 26.8057C18.4364 27.1091 19.2563 27.2789 20.0872 27.3078H21.196C22.0232 27.2789 22.8395 27.1055 23.6089 26.8021L24.0604 26.5926L23.9014 26.123C24.4757 25.9027 25.0393 25.6534 25.5883 25.3753L26.9139 24.7324L25.1368 24.01H26.0036C27.2137 24.01 28.1709 23.6488 28.8391 22.9697C29.0341 22.771 29.2003 22.5471 29.3339 22.3051C29.4496 22.3521 29.5723 22.3882 29.6951 22.4171C29.8649 22.4568 30.0347 22.4749 30.2081 22.4749C30.4501 22.4749 30.6957 22.4424 30.9305 22.3846L31.9852 22.1064L31.5265 21.1384C31.3531 20.6472 31.3603 20.109 31.5445 19.6213C31.6204 19.401 31.6818 19.1771 31.7323 18.9531C31.9347 18.9965 32.1441 19.0182 32.35 19.0182C33.1483 19.0254 33.8923 18.6136 34.315 17.9346L34.8279 17.0388L33.8743 16.6486C33.2963 16.3597 32.8918 15.807 32.7907 15.1677C33.7768 15.0377 34.5967 14.3442 34.8857 13.3906L34.8712 13.4195Z" fill="white"/>
<path d="M24.971 17.2556H16.302V20.5064C16.302 21.8429 17.2665 22.6737 18.6932 22.6737C19.8852 22.6737 20.1995 22.7206 20.6401 23.1613C20.9183 22.8615 21.3119 22.6918 21.7237 22.699V22.6484L21.9983 21.8032L21.5323 21.2939C21.3444 21.3517 21.1494 21.3734 20.9544 21.3625C20.6618 21.3589 20.3728 21.33 20.0874 21.2722H19.9971C19.9574 21.2722 19.9574 21.2722 19.9466 21.2939L19.8924 21.3842L19.7949 21.5467L19.6071 21.5034L18.7727 21.3083L18.6571 21.4961V21.5179L18.7583 21.6298L18.7149 21.7743C18.639 21.9513 18.5307 22.1102 18.3934 22.2475L18.1839 22.4714L17.9925 22.233L17.8516 22.056C17.6999 21.8573 17.6638 21.5973 17.7505 21.3625L17.5157 21.46L17.411 21.2289L17.3532 21.0663C17.205 20.7232 17.317 20.3258 17.6168 20.1091L18.2886 19.7479L18.928 19.8743C18.928 19.813 18.9677 19.5926 18.9858 19.5385H18.9497L18.5885 19.6757L18.2273 19.4301C18.155 19.3579 18.1514 19.2386 18.2273 19.1628L18.5704 18.6427L17.6999 17.5591L19.0038 18.0719L19.0941 17.9636L19.2747 17.7469L19.4807 17.9419C19.5348 17.9961 19.571 18.0611 19.589 18.137C19.9502 18.2815 20.6184 18.704 20.6726 19.3903L20.4667 19.4734C20.492 19.5095 20.5245 19.5385 20.5643 19.5565L21.5178 19.6504L21.6045 19.6251C21.7671 19.5637 21.9404 19.5312 22.1138 19.5276C22.2872 19.5276 22.457 19.5673 22.6123 19.6432C22.6809 19.6179 22.7568 19.6034 22.829 19.5998H22.8759C23.3853 19.5998 23.6417 19.9827 23.844 20.2861L23.9487 20.4379C24.1257 20.6907 24.3605 21.0591 24.3713 21.0736L24.4761 21.2361L24.3461 21.3878C24.2268 21.5467 24.039 21.637 23.8404 21.637C23.7826 21.6406 23.7248 21.6406 23.667 21.637C23.6164 21.6262 23.5659 21.6118 23.5153 21.5901C23.5153 21.6406 23.5153 21.7021 23.4864 21.7526L23.3383 22.6051C24.3208 22.4064 25.0143 21.5251 24.9746 20.5209L24.971 17.2556ZM16.2912 16.9919H23.0421C22.7676 16.703 22.6737 16.2876 22.7965 15.9083C22.7062 15.865 22.6195 15.8072 22.5437 15.7422C22.28 15.9373 21.4601 16.5224 21.265 16.6705L21.2217 16.6994L18.5704 16.2298H18.5162C18.4295 16.2334 18.3429 16.2334 18.2562 16.2298C18.2309 16.349 18.1262 16.4321 18.0069 16.4321H17.9636C17.8227 16.4068 17.7252 16.2731 17.7469 16.1323V16.0745C17.4037 15.8289 17.2412 15.4027 17.3315 14.9909V14.9439L17.3712 14.915C17.3712 14.915 17.4218 14.8789 17.4904 14.8392L17.299 14.8103C17.2268 14.7958 17.1798 14.7308 17.1906 14.6586C17.2014 14.5864 17.2665 14.5394 17.3387 14.5502H17.3423L17.8011 14.6225L17.8444 13.0079L18.5271 12.2855L18.9533 13.1812L18.5054 14.7344L18.9099 14.7994C18.9822 14.8139 19.0292 14.8789 19.0183 14.9512C19.0075 15.0161 18.9533 15.0595 18.8883 15.0595H18.8666L18.5379 15.0053V15.0306C18.574 15.0956 18.6282 15.1462 18.6968 15.1787L20.7159 15.2112L21.2325 14.7019C20.8388 14.5646 20.5571 14.2179 20.5101 13.8025C20.2572 13.705 20.0514 13.5172 19.9358 13.2752C19.8383 13.0476 19.8202 12.7912 19.8888 12.5528C19.571 12.4264 19.282 12.2349 19.0472 11.9893H16.0492C16.1937 12.3433 16.2768 12.7189 16.2912 13.0982V16.9919Z" fill="#FCE527"/>
<path d="M39.5928 14.2033H42.5691V19.2602H44.7363V14.2033H47.7127V12.3684H39.5928V14.2033ZM50.5734 16.3706V12.3973H48.4785V19.2602H50.3278L53.9399 15.2436V19.2602H56.0349V12.3684H54.1855L50.5734 16.3706ZM63.0099 14.9257H59.6433V12.3973H57.5483V19.2602H59.6433V16.6884H63.0099V19.2602H65.1045V12.3973H63.0099V14.9257ZM72.4119 14.3912C71.9169 14.2394 71.3967 14.1781 70.8801 14.2033H68.7129V12.3973H66.6183V19.2602L70.8657 19.2313C71.3103 19.2385 71.7507 19.1879 72.1809 19.0724C73.2717 18.8051 74.0229 17.8118 73.9869 16.6884C74.0301 15.659 73.3905 14.7199 72.4119 14.3912ZM71.3427 17.4975C71.0787 17.5878 70.7973 17.6239 70.5189 17.5987H68.7129V15.8504H70.5189C70.7901 15.8324 71.0643 15.8649 71.3283 15.9371C71.6607 16.0346 71.8845 16.3417 71.8773 16.6884C71.8809 17.0424 71.6715 17.3639 71.3427 17.4975ZM82.7637 12.3973H80.1345L77.6061 14.9836H77.0283V12.3973H74.9331V19.2602H77.0283V16.6595H77.6061L80.1057 19.2602H82.8939L79.4121 15.6482L82.7637 12.3973Z" fill="#222220"/>
<path d="M87.2724 12.1806C84.4404 12.1806 82.7496 13.7699 82.7496 15.8215C82.7496 17.8731 84.4548 19.4624 87.2574 19.4624C90.0606 19.4624 91.7508 17.8731 91.7508 15.8215C91.7508 13.7699 90.1038 12.1806 87.2724 12.1806ZM87.2574 17.7864C85.8564 17.7864 84.9606 16.9485 84.9606 15.8215C84.9606 14.6946 85.8708 13.871 87.2574 13.871C88.6446 13.871 89.5548 14.6946 89.5548 15.8215C89.5548 16.9485 88.659 17.7864 87.2574 17.7864ZM98.6538 12.6718V11.9783H96.5586V12.6718C93.9288 12.7296 92.3544 13.8421 92.3544 15.807C92.3544 17.772 93.9288 18.7979 96.5586 18.8556V19.5491H98.6538V18.8556C101.297 18.7979 102.872 17.772 102.872 15.807C102.872 13.8421 101.301 12.7296 98.6538 12.6718ZM96.5586 17.3819C95.1138 17.3241 94.4778 16.7318 94.4778 15.807C94.4778 14.8824 95.1138 14.2178 96.5586 14.16V17.3819ZM98.6538 17.3819V14.16C100.113 14.2178 100.734 14.8824 100.734 15.807H100.738C100.738 16.7318 100.117 17.3241 98.6538 17.3819ZM109.782 12.6718V11.9783H107.687V12.6718C105.058 12.7296 103.483 13.8421 103.483 15.807C103.483 17.772 105.058 18.7979 107.687 18.8556V19.5491H109.782V18.8556C112.426 18.7979 114.001 17.772 114.001 15.807C114.001 13.8421 112.426 12.7296 109.782 12.6718ZM107.687 17.3819C106.243 17.3241 105.607 16.7318 105.607 15.807C105.607 14.8824 106.243 14.2178 107.687 14.16V17.3819ZM111.859 15.807C111.859 16.7318 111.242 17.3241 109.782 17.3819V14.16C111.242 14.2178 111.863 14.8824 111.863 15.807H111.859ZM19.0623 18.675C19.0189 18.675 18.9792 18.7076 18.9756 18.7509V18.7545C18.972 18.8015 19.0081 18.8448 19.055 18.8484H19.0586C19.1092 18.8484 19.1453 18.8087 19.1453 18.7617C19.1453 18.7112 19.1092 18.675 19.0623 18.675ZM19.0587 18.6714C19.0623 18.6714 19.0623 18.675 19.0623 18.675C19.0659 18.675 19.0659 18.6714 19.0695 18.6714H19.0587ZM24.9607 24.5952L24.4622 24.4037L24.5995 23.8872L24.7512 23.3237C24.0685 23.6741 23.3534 23.9558 22.6165 24.1653C22.2553 24.2664 21.9952 24.3134 21.9952 24.3134V24.6782C21.551 24.7505 21.1031 24.7902 20.6516 24.7938H20.6118C20.1603 24.7902 19.7124 24.7505 19.2682 24.6782V24.317C19.2682 24.317 19.0045 24.2664 18.6433 24.1653C17.9064 23.9558 17.1912 23.6741 16.5085 23.3237L16.6567 23.8872L16.7975 24.4037L16.2955 24.5952L15.7537 24.801C16.4977 25.1875 17.2743 25.509 18.0762 25.7618L17.8847 26.282C18.7552 26.6143 19.6871 26.7768 20.6191 26.7552H20.6407C21.5726 26.7768 22.5046 26.6143 23.375 26.282L23.1872 25.7618C23.9855 25.509 24.7621 25.1875 25.5061 24.801L24.9607 24.5952ZM16.3568 24.8336L17.1659 24.5627L16.924 23.768C17.4549 24.0317 18.004 24.252 18.571 24.4254L18.1737 25.509C17.5488 25.3428 16.9384 25.1153 16.3568 24.8336ZM20.6516 26.4987L20.6335 26.4843C19.8388 26.4806 19.0478 26.3723 18.2821 26.1628L18.7697 24.8408C19.3765 24.9925 20.0014 25.0755 20.6299 25.0791H20.6696C21.2981 25.0719 21.923 24.9925 22.5298 24.8408L23.0174 26.1628C22.2481 26.3795 21.4498 26.4915 20.6516 26.4987ZM23.1149 25.5307V25.5198L22.7176 24.4362C23.2847 24.2628 23.8337 24.0425 24.3647 23.7788L24.1227 24.5735L24.9427 24.848C24.3575 25.1334 23.7434 25.3645 23.1149 25.5307ZM20.6299 3.97763C21.4462 3.95596 22.2481 4.20158 22.9126 4.67476C23.0174 4.14017 23.216 3.62726 23.5014 3.16131L22.6815 3.25522L22.2553 2.34138L21.4281 2.7676L20.6299 1.97656L19.8316 2.7676L19.0044 2.34138L18.5782 3.25522L17.7583 3.16131C18.0436 3.62726 18.2423 4.14017 18.347 4.67476C19.0117 4.20158 19.8135 3.95596 20.6299 3.97763ZM18.5421 3.57308L18.7696 3.59837L18.8672 3.39248L19.1525 2.77844L19.6835 3.05295L19.8894 3.1577L20.0555 3.00599L20.6299 2.42446L21.2042 3.00599L21.3703 3.16853L21.5762 3.06379L22.1036 2.78927L22.3925 3.40332L22.49 3.6092L22.7176 3.58392L22.9343 3.55864C22.8476 3.7573 22.7718 3.96319 22.7104 4.17268C21.4064 3.50446 19.8569 3.50446 18.5529 4.17268C18.4915 3.96319 18.4157 3.7573 18.329 3.55864L18.5421 3.57308ZM31.3432 11.4329L31.2457 11.3137C30.5738 10.4576 29.9345 9.64492 28.7931 9.27286C28.8401 9.23314 28.887 9.19702 28.9376 9.1645C29.4794 8.85748 29.8622 8.33014 29.9851 7.7197C30.0465 7.16704 29.8912 6.61444 29.5516 6.17374L29.1904 5.72225L28.9628 6.26044C28.9628 6.29296 28.5619 7.15624 27.7528 7.15624H27.5144C27.5578 6.58912 27.3519 6.02926 26.951 5.62472C26.4634 5.12626 25.7915 4.84814 25.0944 4.85175C24.9643 4.85175 24.8343 4.86259 24.7079 4.88065L24.1552 4.98901L24.4984 5.44051C24.7657 5.80171 25.0077 6.42658 24.7223 6.76252C24.5851 6.88174 24.4298 6.97564 24.26 7.04062C23.8988 7.21042 23.3786 7.4524 23.3786 8.05924C23.3786 8.45296 23.6857 8.86474 24.2383 9.21508C25.8673 10.2482 26.8751 11.3137 27.3122 12.5129C27.9876 14.3406 27.1063 15.3809 26.2502 15.9299L25.8673 16.1755L26.2033 16.4825C26.5031 16.739 26.8715 16.8979 27.2652 16.9376H27.5939C27.9298 16.9376 28.2622 16.8907 28.5836 16.7931C28.5041 16.934 28.4066 17.0676 28.3019 17.1905C27.8143 17.7576 27.0918 18.0682 26.3441 18.0285H26.0227L25.9974 18.35C25.9938 18.8015 26.1925 19.2276 26.5356 19.5203C26.6259 19.5997 26.727 19.6647 26.8354 19.7153C26.3008 20.2354 25.9974 20.947 25.9865 21.6947C25.9865 22.1028 25.8926 22.5074 25.7156 22.8758L25.3544 23.4176H25.9974C27.0593 23.4176 27.872 23.1251 28.4355 22.5435C28.7281 22.2365 28.9448 21.8645 29.0712 21.4599C29.2807 21.6369 29.5264 21.7597 29.7937 21.8211C29.9201 21.85 30.0501 21.8645 30.1801 21.8645C30.3752 21.8645 30.5702 21.8391 30.758 21.7958L31.1698 21.6875L30.9892 21.3046C30.7616 20.6942 30.7616 20.0187 30.9892 19.4082C31.1228 19.0109 31.2168 18.5991 31.2673 18.1802C31.5924 18.3463 31.9537 18.4294 32.3185 18.4258C32.918 18.433 33.4779 18.1368 33.803 17.6348L34.0016 17.2736L33.6404 17.1218C32.4304 16.6198 32.1631 15.2689 32.1089 14.5392C32.2282 14.5645 32.3473 14.579 32.4701 14.5826L32.5713 14.6512C33.8861 14.6512 34.3267 13.3112 34.3448 13.2534L34.4929 12.7802H33.998C32.9578 12.744 31.9861 12.2528 31.3432 11.4329ZM32.5749 14.2864H32.5243C32.2607 14.29 32.0006 14.2178 31.7767 14.0805C31.7767 14.0805 31.5852 16.692 33.5321 17.5011V17.5119C33.2756 17.9021 32.835 18.1332 32.369 18.126C31.8416 18.1585 31.3324 17.9346 31.0001 17.5264C31.0109 18.1404 30.9098 18.7545 30.7039 19.3324C30.4402 20.0295 30.4402 20.8025 30.7039 21.4997C30.5413 21.5394 30.3788 21.561 30.2126 21.561C30.1115 21.561 30.0067 21.5502 29.9092 21.5249C29.4288 21.4094 29.0459 21.0554 28.8906 20.5894C28.8906 20.5894 28.9665 23.0961 26.0443 23.0961H26.0227C26.243 22.6772 26.3586 22.2112 26.355 21.738C26.4814 19.8851 27.7384 19.6214 27.7384 19.6214C27.3916 19.578 27.0629 19.4552 26.774 19.2602C26.5103 19.0398 26.3586 18.7148 26.3513 18.3716C27.1966 18.4077 28.0129 18.0573 28.5655 17.4144C28.8979 17.0352 29.1182 16.5728 29.2121 16.0779C28.7461 16.4283 28.1718 16.6053 27.5903 16.58H27.2941C26.9798 16.5476 26.6801 16.4247 26.438 16.2188C27.5506 15.4964 28.3307 14.2611 27.6409 12.3864C27.0846 10.8839 25.7518 9.76054 24.4117 8.91532C23.9674 8.64076 23.7001 8.33014 23.7001 8.06284C23.7001 7.43434 24.5923 7.41628 24.9607 6.97924C25.3834 6.48802 25.1197 5.69335 24.7512 5.21656C24.856 5.1985 24.9643 5.19128 25.0691 5.19128C25.6723 5.18405 26.2538 5.42606 26.6728 5.8595C27.0991 6.26404 27.2616 6.87448 27.0991 7.438L27.2941 7.47772C27.4133 7.49938 27.5325 7.51024 27.6553 7.51384H27.7348C28.7931 7.51384 29.2699 6.40492 29.2699 6.40492C29.2699 6.40492 30.3968 7.79194 28.7389 8.87554C28.4536 9.0598 28.3271 9.23674 28.3777 9.41734L28.403 9.53656L28.5222 9.55822C29.725 9.8833 30.3282 10.7141 31.0759 11.6568C31.7839 12.5562 32.8531 13.098 33.998 13.1378H34.0197C34.0197 13.1378 33.6585 14.2864 32.5749 14.2864Z" fill="#222220"/>
<path d="M30.2556 9.43535C30.6601 9.66653 31.0105 9.98081 31.285 10.3565C31.4909 10.6743 31.7835 10.9271 32.1302 11.0789C32.2602 11.1222 32.4011 11.1439 32.5384 11.1439C33.091 11.1439 33.5967 10.8296 33.8496 10.3384L34.059 9.86885L33.5498 9.83993C33.0007 9.73877 32.5059 9.45707 32.1411 9.03443C31.8702 8.74187 31.4909 8.57207 31.0899 8.56847C30.7793 8.57207 30.4795 8.66603 30.2195 8.83217L29.7499 9.16085L30.2556 9.43535ZM31.1008 8.91887L31.0899 8.92247C31.397 8.92247 31.6859 9.05609 31.8918 9.28367C32.3144 9.76769 32.8923 10.0892 33.5281 10.1939C33.333 10.5587 32.9538 10.7863 32.5384 10.7899C32.4372 10.7899 32.3361 10.7719 32.2386 10.7393C31.6535 10.5407 31.4475 9.65573 30.4326 9.12113C30.6312 8.99111 30.8624 8.92247 31.1008 8.91887ZM30.494 14.0913L30.4868 14.0841C30.1906 11.7001 28.4604 9.97721 26.5352 8.93333C26.3582 8.83577 26.192 8.75633 26.0331 8.68049C26.8278 8.84303 27.6549 8.64797 28.2942 8.14949C28.2942 8.14949 27.1781 8.96945 24.8953 8.22533C25.5275 8.63711 26.7555 9.21503 27.8789 10.1542C30.6818 12.6176 28.6772 15.0232 28.6772 15.0232C29.5151 14.2286 29.8077 13.0149 29.432 11.9241C30.0244 12.9101 30.3098 14.0516 30.2484 15.2002C30.1689 17.0929 29.1178 18.7472 28.0342 20.0656C27.7091 20.481 27.4851 20.9686 27.3912 21.4888C27.5754 20.9722 27.8536 20.4955 28.2148 20.0837C29.3887 18.7075 30.382 17.2807 30.5229 15.2255C30.6457 15.5867 31.1442 16.6378 31.9388 17.0315C31.9388 17.0315 30.9419 16.4319 30.494 14.0913ZM15.5402 22.9011C15.3668 22.5326 15.2729 22.1281 15.2693 21.7199C15.2584 20.9722 14.9514 20.2607 14.4168 19.7405C14.5251 19.69 14.6263 19.625 14.7166 19.5455C15.0597 19.2529 15.2584 18.8267 15.2548 18.3752L15.2331 18.0537H14.908C14.1639 18.0898 13.4415 17.7828 12.9539 17.2157C12.8492 17.0929 12.7553 16.9592 12.6722 16.8184C12.9936 16.9159 13.326 16.9629 13.6619 16.9629H13.9906C14.3843 16.9231 14.7563 16.7642 15.0561 16.5077L15.392 16.2007L15.0092 15.9551C14.1495 15.4061 13.2718 14.3658 13.9472 12.5381C14.3843 11.3498 15.392 10.277 17.0355 9.24395C17.5881 8.88275 17.8916 8.48183 17.8916 8.08811C17.8916 7.48127 17.3823 7.23929 17.0102 7.06949C16.8405 7.00445 16.6851 6.91055 16.5479 6.79139C16.259 6.45545 16.5009 5.81612 16.7718 5.46936L17.133 5.01786L16.5768 4.9095C16.4504 4.88783 16.3203 4.8806 16.1903 4.8806C15.486 4.85893 14.8069 5.12984 14.3084 5.62468C13.9003 6.02561 13.6872 6.58907 13.7269 7.15979H13.5102C12.6975 7.15979 12.3146 6.30011 12.3002 6.26399L12.0726 5.72582L11.7114 6.17735C11.3754 6.61799 11.2202 7.17065 11.2815 7.72325C11.4044 8.33369 11.7836 8.86109 12.3254 9.16811C12.376 9.20057 12.4266 9.23669 12.4699 9.27647C11.3285 9.63767 10.6892 10.4612 10.0173 11.3173L9.91978 11.4401C9.27688 12.26 8.30164 12.7513 7.26136 12.7874H6.76648L6.91822 13.2605C6.91822 13.3183 7.37332 14.6584 8.6917 14.6584H8.75674C8.87956 14.6548 8.99872 14.6404 9.11794 14.615C9.06376 15.3374 8.79646 16.6956 7.58284 17.1977L7.22164 17.3494L7.4203 17.7106C7.74538 18.2126 8.30524 18.5089 8.90482 18.5016C9.26962 18.5052 9.62722 18.4222 9.9523 18.256C10.0029 18.675 10.0968 19.0868 10.2305 19.4841C10.458 20.0945 10.458 20.77 10.2305 21.3804L10.0499 21.7633L10.4616 21.8716C10.6494 21.915 10.8445 21.9403 11.0396 21.9403C11.1696 21.9403 11.2996 21.9258 11.426 21.8969C11.6933 21.8355 11.939 21.7127 12.1484 21.5357C12.2748 21.9403 12.4916 22.3123 12.7842 22.6193C13.3512 23.2009 14.1639 23.4898 15.2223 23.4934H15.8652L15.5402 22.9011ZM15.2295 23.1034C12.3074 23.1034 12.3796 20.5966 12.3796 20.5966C12.2243 21.0625 11.8414 21.4165 11.361 21.5321C11.2635 21.5574 11.1587 21.5683 11.0576 21.5683C10.8914 21.5683 10.7289 21.5465 10.57 21.5068C10.8336 20.8097 10.8336 20.0367 10.57 19.3396C10.3641 18.7617 10.2666 18.1477 10.2774 17.5336C9.9451 17.9417 9.43582 18.1657 8.90842 18.1332H8.89036C8.4208 18.1404 7.98016 17.9056 7.72366 17.5155C9.6706 16.7064 9.47914 14.0949 9.47914 14.0949C9.25516 14.2322 8.99512 14.3044 8.73142 14.3008H8.6917C7.6081 14.3008 7.2469 13.1522 7.2469 13.1522H7.26856C8.4136 13.1161 9.48634 12.5743 10.1943 11.6749C10.9384 10.7321 11.5452 9.90131 12.7481 9.57623L12.8672 9.55457L12.8925 9.43541C12.925 9.25115 12.7986 9.07415 12.5313 8.89355C10.8734 7.80995 12.0003 6.42293 12.0003 6.42293C12.0003 6.42293 12.4699 7.53185 13.5354 7.53185H13.586C13.7088 7.52825 13.828 7.51739 13.9472 7.49573L14.1423 7.45601C13.9761 6.89249 14.1423 6.28205 14.5685 5.87753C14.9875 5.44408 15.569 5.20208 16.1723 5.2093C16.277 5.2093 16.3854 5.21652 16.4901 5.23458C16.1289 5.71499 15.8616 6.50963 16.2842 6.99725C16.6454 7.41989 17.5412 7.43795 17.5412 8.08085C17.5412 8.34815 17.292 8.65877 16.8477 8.93693C15.504 9.78215 14.1712 10.9055 13.6185 12.4081C12.9287 14.2828 13.7088 15.5289 14.8214 16.2405C14.5793 16.4428 14.2796 16.5692 13.9653 16.6017H13.6655C13.0839 16.627 12.5096 16.45 12.0437 16.0996C12.1376 16.5944 12.3579 17.0568 12.6866 17.4361C13.2393 18.0754 14.0592 18.4294 14.9044 18.3932C14.8972 18.7364 14.7455 19.0615 14.4818 19.2818C14.1929 19.4768 13.8641 19.5997 13.5174 19.643C13.5174 19.643 14.778 19.8995 14.9153 21.7597C14.9117 22.2328 15.0272 22.6988 15.2475 23.1178L15.2295 23.1034Z" fill="#222220"/>
<path d="M8.71583 11.1403H8.71949C8.85671 11.1403 8.99759 11.1187 9.12761 11.0754C9.47441 10.9236 9.76697 10.6708 9.97283 10.3529C10.2437 9.97729 10.5941 9.66301 10.9987 9.43183L11.5043 9.16093L11.0348 8.83225C10.7747 8.66611 10.4749 8.57215 10.1679 8.56855C9.76697 8.57215 9.38771 8.74195 9.11681 9.03811C8.75561 9.45715 8.25713 9.74251 7.71173 9.84361L7.20239 9.86893L7.40831 10.3385C7.66115 10.8297 8.16323 11.1367 8.71583 11.1403ZM9.36605 9.28375C9.56831 9.05617 9.85727 8.92255 10.1643 8.92255C10.3991 8.92615 10.6303 8.99839 10.8289 9.12481C9.80669 9.67021 9.59357 10.5444 9.02291 10.743C8.92895 10.7755 8.82785 10.7936 8.72669 10.7936C8.30771 10.7936 7.92485 10.5624 7.72979 10.194C8.36549 10.0893 8.94341 9.76777 9.36605 9.28375ZM11.0168 15.2148C10.9554 14.0661 11.2372 12.9247 11.8331 11.9386C11.4575 13.0294 11.75 14.2431 12.5881 15.0378C12.5881 15.0378 10.5797 12.6321 13.3863 10.1687C14.5096 9.22957 15.7342 8.65165 16.3663 8.23987C14.0834 8.98393 12.9673 8.16403 12.9673 8.16403C13.6066 8.66251 14.4302 8.85751 15.2248 8.69497C15.0659 8.77087 14.8997 8.85391 14.7227 8.94781C12.7975 9.99535 11.0566 11.7183 10.7712 14.1022V14.0842C10.3233 16.4248 9.32639 17.0244 9.32639 17.0244C10.1174 16.6342 10.6195 15.5796 10.7387 15.2184C10.8723 17.2772 11.8765 18.7039 13.0504 20.0766C13.408 20.4883 13.6897 20.9651 13.8739 21.4816C13.7764 20.9651 13.5524 20.4775 13.2238 20.0657C12.1402 18.7473 11.0927 17.093 11.0168 15.2148ZM19.9673 10.8658C20.0938 10.743 20.2708 10.6852 20.4478 10.7069V11.3896C20.4441 11.5593 20.4008 11.7219 20.3177 11.87H21.0004C20.9173 11.7219 20.874 11.5593 20.8704 11.3896V10.7069C21.0437 10.6852 21.2207 10.743 21.3472 10.8658V10.3927H19.9673V10.8658ZM19.682 7.58971H19.6748C19.7796 7.68001 19.9024 7.75225 20.036 7.79557L20.1227 7.83535V7.38745L19.3208 7.05151C19.3605 7.27543 19.4906 7.47049 19.682 7.58971ZM21.5856 7.58611L21.582 7.58971C21.7734 7.47049 21.9035 7.27543 21.9433 7.05151L21.1413 7.38745V7.83169L21.2244 7.79197C21.3581 7.74865 21.4809 7.67641 21.5856 7.58611Z" fill="#222220"/>
<path d="M23.0242 5.77642C23.0242 5.10096 21.8865 4.49414 20.6331 4.49414C19.3797 4.49414 18.2419 5.10096 18.2419 5.77642L18.2672 5.94257L18.7692 8.8322L18.2672 9.12476L16.956 9.86888C16.956 9.86888 16.6634 10.0206 16.5262 10.1109C16.0313 10.4721 15.9266 10.9561 16.2119 11.1656C16.2841 10.6743 16.714 10.3131 17.2125 10.3276C17.6278 10.3384 18.0144 10.5479 18.2491 10.891C18.3214 10.9777 18.3864 11.0716 18.4441 11.1656C18.52 11.2884 18.5959 11.3967 18.6717 11.5015H15.327C15.6087 11.9855 15.7713 12.5309 15.8074 13.0908V20.5207C15.8074 22.3268 17.1908 23.1756 18.697 23.1756C19.8529 23.1756 20.0082 23.1214 20.6439 23.7571C21.2796 23.1214 21.435 23.1756 22.5908 23.1756C24.0862 23.1756 25.4804 22.3195 25.4804 20.5207V13.098C25.5165 12.5382 25.6791 11.9928 25.9608 11.5087H22.5799C22.6558 11.404 22.7317 11.2956 22.8075 11.1728C22.8689 11.0789 22.9339 10.985 23.0026 10.8983C23.241 10.5552 23.6274 10.3456 24.0428 10.3348C24.5413 10.3204 24.9711 10.6816 25.0434 11.1728C25.3323 10.9669 25.2276 10.4504 24.7291 10.1181C24.5955 10.0242 24.3029 9.87608 24.3029 9.87608L23.0026 9.1103L22.5005 8.81774L23.0026 5.92812L23.0242 5.77642ZM18.7259 6.10874L20.4886 6.70472V9.47156L19.1919 8.78522L18.7259 6.10874ZM16.0494 11.9891H19.0871C19.3219 12.2347 19.6108 12.4298 19.9287 12.5526C19.8601 12.791 19.8781 13.0474 19.9756 13.275C20.0913 13.517 20.2971 13.7049 20.55 13.8024C20.5969 14.2177 20.8787 14.5645 21.2724 14.7018C21.0556 14.9221 20.8426 15.128 20.7559 15.211L18.7368 15.1786C18.6681 15.1461 18.6139 15.0955 18.5778 15.0304V15.0052L18.9065 15.0594H18.9282C18.9932 15.0594 19.0474 15.016 19.0582 14.951C19.069 14.8788 19.0221 14.8137 18.9498 14.7993L18.5453 14.7343L18.9932 13.1811L18.567 12.2853L17.8843 13.0077L17.841 14.6223L17.3822 14.5501C17.31 14.5356 17.245 14.5825 17.2305 14.6548V14.6584C17.2197 14.7307 17.2666 14.7957 17.3389 14.8101L17.5303 14.839C17.4617 14.8788 17.4147 14.9076 17.4111 14.9149L17.3714 14.9437V14.9907C17.2811 15.4025 17.4472 15.8287 17.7868 16.0743V16.1322C17.7651 16.273 17.8626 16.4067 18.0035 16.4319H18.0468C18.166 16.4319 18.2708 16.3489 18.2961 16.2297C18.3828 16.2333 18.4659 16.2333 18.5525 16.2297H18.6067L21.2543 16.7101L21.2977 16.6812C21.5072 16.5331 22.3126 15.9588 22.5763 15.7528C22.6522 15.8179 22.7389 15.8757 22.8292 15.919C22.7064 16.2983 22.8003 16.7137 23.0748 17.0026H16.2914V13.098C16.2769 12.7188 16.1938 12.3431 16.0494 11.9891ZM22.3488 15.5614C22.0743 15.7637 21.3988 16.2549 21.1532 16.4283L18.7512 16.0093V15.9443C18.7909 15.7818 18.8126 15.6156 18.8162 15.4495L20.8389 15.4819L20.8787 15.4422C20.9112 15.4097 21.5505 14.7921 21.8756 14.4345C21.9623 14.5428 22.0634 14.6331 22.179 14.7054C22.1212 15.0016 22.1826 15.3086 22.3488 15.5614ZM18.3358 15.128V15.1388C18.39 15.24 18.4695 15.3267 18.567 15.3844C18.5634 15.5325 18.5489 15.677 18.5236 15.8215C18.5236 15.854 18.5236 15.8865 18.4983 15.919V15.9696C18.3322 15.9696 18.1696 15.9443 18.0107 15.8937C17.7217 15.7384 17.5592 15.4206 17.6062 15.0955C17.7362 15.0052 17.8843 14.9474 18.0396 14.9257C18.1732 14.9221 18.2925 15.0016 18.3358 15.128ZM18.0866 14.6476L18.1263 13.1197L18.4875 12.7585L18.7078 13.2172L18.278 14.7054L18.0866 14.6476ZM22.3307 22.6952H21.984L22.2549 21.8103C22.2982 21.6874 22.0743 21.5285 21.9804 21.3876C22.2007 21.5213 22.4283 21.6405 22.663 21.7488C22.663 21.7777 22.3307 22.6952 22.3307 22.6952ZM23.259 21.7055L23.2301 21.6802L23.0423 22.6555C22.9231 22.6555 22.7967 22.6807 22.6811 22.688L22.8798 21.7488C22.9375 21.4707 22.1898 21.3876 21.8214 20.835C21.5794 21.0373 21.2688 21.1312 20.9581 21.0987C20.6836 21.0951 20.4127 21.0662 20.1454 21.012C20.0985 21.0084 20.0515 21.0084 20.0046 21.012C19.8926 21.0048 19.7842 21.0625 19.7265 21.1601L19.6723 21.2504L18.6428 21.0012L18.3972 21.4274C18.3575 21.4852 18.3647 21.5646 18.4153 21.6152L18.4839 21.691C18.4153 21.8247 18.3286 21.9475 18.2238 22.0522L18.0721 21.8644C17.9565 21.6766 17.9674 21.4346 18.0974 21.2576L18.502 20.5749L19.3653 20.705L19.2316 20.3979C19.051 19.9934 19.3255 19.4769 19.3544 19.1807C19.3544 19.271 19.2605 19.2891 19.1666 19.2891H18.9174C18.8993 19.2855 18.8776 19.2855 18.8595 19.2891L18.6247 19.4299L18.4405 19.2601C18.4117 19.206 18.4225 19.141 18.4659 19.1012L18.892 18.6208L18.3864 18.0321L19.1088 18.3933L19.3255 18.1332C19.3833 18.191 19.358 18.3427 19.358 18.3427C19.8817 18.4728 20.2466 18.9495 20.2321 19.4913V19.5961C20.3044 19.7116 20.4199 19.7911 20.55 19.8237L21.5289 19.9212C21.7239 19.8598 21.9226 19.82 22.1248 19.7947C22.2982 19.7947 22.4716 19.8489 22.6161 19.9428C22.6847 19.8959 22.7678 19.867 22.8508 19.8634H22.8834C23.3204 19.8634 23.5046 20.2607 23.7394 20.5858C23.9164 20.835 24.1548 21.2107 24.1548 21.2107C24.0862 21.3118 23.9742 21.3732 23.8514 21.3732C23.808 21.3768 23.7683 21.3768 23.725 21.3732C23.2554 21.2865 23.1868 20.3185 22.9195 20.2426H22.8762C22.8256 20.2426 22.7786 20.2715 22.7533 20.3185C22.8762 20.6472 22.8039 20.7808 22.9375 21.0409C23.035 21.1962 23.1579 21.3371 23.2987 21.4563C23.2987 21.4563 23.2807 21.6007 23.259 21.7055ZM17.9963 20.7592H17.989L18.0324 20.8711C18.0035 20.9686 17.6712 21.1095 17.6712 21.1095L17.5989 20.9506C17.505 20.7231 17.5737 20.463 17.7723 20.3149L18.3177 19.9825L18.8993 20.1054C18.8956 20.221 18.9318 20.3329 19.0004 20.4268L18.39 20.3113L18.0288 20.5641C17.971 20.6147 17.9601 20.6941 17.9963 20.7592ZM24.982 20.5243C25.0217 21.5285 24.3246 22.4098 23.3385 22.6049L23.5046 21.7308C23.5046 21.6802 23.5227 21.6188 23.5299 21.5682C23.5805 21.5899 23.6311 21.6043 23.6816 21.6152C23.7394 21.6188 23.7972 21.6188 23.855 21.6152C24.0537 21.6152 24.2415 21.5249 24.3607 21.366L24.4907 21.2143L24.3823 21.0662C24.3823 21.0662 24.1404 20.6833 23.9598 20.4304L23.8586 20.2788C23.6563 19.9753 23.3999 19.5925 22.8906 19.5925H22.8436C22.7714 19.5961 22.6956 19.6105 22.6269 19.6358C22.4716 19.56 22.3018 19.5202 22.1284 19.5202C21.955 19.5238 21.7817 19.5564 21.6192 19.6177L21.5325 19.6431L20.5789 19.5491C20.5392 19.531 20.5066 19.5022 20.4814 19.4661L20.6872 19.383C20.6295 18.6931 19.9648 18.2704 19.6036 18.1296C19.5856 18.0537 19.5495 17.9887 19.4953 17.9346L19.2894 17.7395L19.1088 17.9562L19.0185 18.0646L17.682 17.5155L18.5525 18.5992L18.2094 19.1193C18.1371 19.1915 18.1335 19.3107 18.2094 19.3866L18.5706 19.6322L18.9318 19.4949H18.9679C18.9679 19.5491 18.9282 19.7695 18.9101 19.8309L18.2816 19.7225L17.6098 20.0837C17.2992 20.3076 17.1908 20.7194 17.3533 21.0662L17.4292 21.2287L17.5339 21.4599L17.7687 21.3624C17.682 21.5971 17.7181 21.8572 17.8698 22.0559L18.0107 22.2365L18.1986 22.4749L18.408 22.2509C18.5453 22.1137 18.6537 21.9547 18.7295 21.7777L18.7729 21.6333L18.6717 21.5213V21.4996L18.7873 21.3118L19.6217 21.5068L19.8095 21.5502L19.9107 21.384L19.9648 21.2937C19.9648 21.2757 19.9648 21.2721 20.0154 21.2721H20.1057C20.3911 21.3298 20.68 21.3588 20.969 21.3624C21.164 21.3732 21.3591 21.3515 21.5469 21.2937L22.0092 21.8211L21.7347 22.6663V22.7169C21.3229 22.7097 20.9292 22.8794 20.6511 23.1792C20.2068 22.7385 19.8926 22.6916 18.7042 22.6916C17.2775 22.6916 16.3131 21.8572 16.3131 20.5243V17.2735H24.982V20.5243ZM25.2168 11.9891C25.0686 12.3395 24.9892 12.7152 24.9747 13.098V15.5325C24.6605 15.4639 24.4257 15.1966 24.404 14.8752V14.7631H24.2956C24.1078 14.7487 23.9344 14.662 23.8044 14.5284C23.6455 14.3442 23.5588 14.113 23.5552 13.871C23.3999 14.1238 23.4143 14.4489 23.595 14.6873C23.7358 14.8643 23.9417 14.9835 24.1656 15.0124C24.2307 15.4314 24.5665 15.7565 24.9856 15.8107V17.0026H23.4685C23.0712 16.8004 22.905 16.3272 23.082 15.919L23.1398 15.789L23.0062 15.7384C22.5727 15.5867 22.3343 15.1207 22.4716 14.6801L22.5005 14.5717L22.3993 14.5248C22.0201 14.3044 21.8106 13.8746 21.872 13.4412C21.6733 13.6434 21.6228 13.9504 21.7492 14.2033C21.6769 14.2864 21.583 14.3839 21.4783 14.4922C21.099 14.4128 20.8245 14.0841 20.8101 13.6976V13.6073L20.727 13.5748C20.5066 13.5098 20.326 13.3581 20.2213 13.1558C20.1526 12.9897 20.1382 12.8019 20.1852 12.6285C20.2574 12.6429 20.3296 12.6537 20.4019 12.661C20.4741 12.6646 20.55 12.6646 20.6222 12.661C21.2074 12.661 21.7636 12.4081 22.1537 11.9747L25.2168 11.9891ZM22.8762 9.52574L23.4685 9.88694L23.6166 9.97358C23.3096 10.0567 23.0314 10.2228 22.8111 10.454L22.7859 10.4757C22.7353 10.5298 22.6883 10.584 22.6414 10.6419L22.6125 10.678C22.5655 10.7358 22.5222 10.7971 22.4824 10.8622L22.4608 10.8947C22.4102 10.9669 22.3632 11.0464 22.3162 11.1258C21.9876 11.7796 21.3483 12.2167 20.6222 12.2889C19.8962 12.2167 19.2569 11.7796 18.9282 11.1258C18.8812 11.0464 18.8343 10.9705 18.7873 10.8947L18.7584 10.8549L18.6428 10.6671L18.6103 10.6274C18.5634 10.5696 18.5164 10.5154 18.4695 10.4649L18.4441 10.4395C18.2238 10.2084 17.9457 10.0422 17.6387 9.95918L17.7904 9.87248L18.3864 9.51128L18.9968 9.15008L20.6259 10.035L22.2549 9.17894L22.8762 9.52574ZM22.0743 8.80328L20.7775 9.48596V6.70832L22.5366 6.11234L22.0743 8.80328ZM20.6295 6.41576L18.7006 5.64277C18.8632 5.25267 19.6217 4.92036 20.6295 4.92036C21.6372 4.92036 22.3957 5.25267 22.5583 5.64277L20.6295 6.41576Z" fill="#222220"/>
</svg>
