<svg width="120" height="30" viewBox="0 0 120 30" fill="none" xmlns="http://www.w3.org/2000/svg">
<path d="M14.4714 5.47192H33.3054V24.3059H14.4714V5.47192Z" fill="#FFED00"/>
<path d="M56.1177 16.914L55.6317 19.914H58.5597L59.0457 16.914H61.1997L59.8797 24.984H57.7437L58.3017 21.522H55.3737L54.8157 24.984H52.6557L53.9997 16.914H56.1417H56.1177ZM64.6497 16.914H62.3997L61.0497 24.984H63.2577L63.8577 21.498L66.1377 25.008H68.9997L65.9997 20.754L70.0197 16.938H67.3197L64.0857 20.262L64.6497 16.914ZM49.3497 21.96L48.8817 19.38L47.5317 21.96H49.3497ZM49.6737 23.562H46.6257L45.8157 24.96H43.4637L48.0657 16.89H50.4657L52.3257 24.96H49.9797L49.6737 23.562ZM43.8837 22.536C43.8203 23.0783 43.5944 23.5886 43.2357 24C42.3777 24.882 41.0757 24.93 40.2357 24.954H37.0017L38.3997 16.914H43.9077L43.6497 18.492H40.3077L40.0497 20.094H41.0037C41.8169 20.0373 42.6242 20.2688 43.2837 20.748C43.5315 20.97 43.7172 21.2528 43.8225 21.5685C43.9276 21.8841 43.9488 22.2218 43.8837 22.548V22.536ZM40.3977 21.6H39.7977L39.4977 23.322H40.0557C41.3097 23.322 41.5677 22.974 41.6397 22.506C41.7117 22.038 41.6397 21.6 40.3857 21.6H40.3977ZM96.1857 9.43805H98.4177C98.3667 9.18893 98.2287 8.96591 98.0289 8.80883C97.8291 8.65169 97.5801 8.57063 97.3257 8.58005C97.0623 8.55317 96.7989 8.62661 96.5877 8.78567C96.3765 8.94473 96.2325 9.17771 96.1857 9.43805ZM100.2 10.356V10.566H96.1557C96.1365 10.7283 96.1539 10.8928 96.2079 11.0471C96.2613 11.2015 96.3489 11.3418 96.4647 11.4573C96.5799 11.5728 96.7203 11.6606 96.8745 11.7141C97.0287 11.7676 97.1937 11.7854 97.3557 11.766C97.5405 11.7818 97.7259 11.7415 97.8873 11.6505C98.0487 11.5596 98.1795 11.4221 98.2617 11.256H100.122C99.8217 12.558 98.6097 13.14 97.3797 13.14C95.5797 13.14 94.2417 12.12 94.2417 10.212C94.2189 9.81539 94.2813 9.41843 94.4253 9.04799C94.5687 8.67755 94.7907 8.34227 95.0745 8.06477C95.3589 7.78721 95.6997 7.57391 96.0735 7.43927C96.4473 7.30457 96.8457 7.25165 97.2417 7.28405C99.1257 7.28405 100.194 8.48405 100.194 10.356H100.2ZM46.8597 8.89205C46.6946 8.88371 46.5295 8.90963 46.3749 8.96807C46.2202 9.02657 46.0794 9.11633 45.961 9.23183C45.8427 9.34733 45.7496 9.48599 45.6874 9.63923C45.6252 9.79241 45.5953 9.95675 45.5997 10.122C45.5956 10.2847 45.6246 10.4465 45.6849 10.5976C45.7453 10.7487 45.8357 10.8859 45.9508 11.001C46.0658 11.116 46.2031 11.2065 46.3542 11.2668C46.5053 11.3271 46.6671 11.3562 46.8297 11.352C46.994 11.3626 47.1586 11.3381 47.3126 11.28C47.4667 11.2219 47.6065 11.1317 47.7229 11.0153C47.8393 10.8989 47.9296 10.759 47.9876 10.605C48.0457 10.451 48.0703 10.2863 48.0597 10.122C48.0638 9.95939 48.0348 9.79763 47.9745 9.64649C47.9141 9.49541 47.8237 9.35819 47.7086 9.24311C47.5936 9.12809 47.4563 9.03761 47.3052 8.97731C47.1541 8.91695 46.9924 8.88791 46.8297 8.89205H46.8597ZM49.9197 7.38005V12.87H47.9997V12.27C47.818 12.5291 47.5735 12.7377 47.2891 12.8762C47.0046 13.0148 46.6897 13.0787 46.3737 13.062C46.0015 13.0529 45.6349 12.9693 45.2955 12.8163C44.9561 12.6633 44.6508 12.4439 44.3974 12.171C44.1442 11.8982 43.948 11.5773 43.8206 11.2275C43.6933 10.8777 43.6372 10.5059 43.6557 10.134C43.6356 9.76349 43.6897 9.39263 43.8149 9.04331C43.9401 8.69393 44.1339 8.37317 44.3849 8.09981C44.6359 7.82645 44.939 7.60601 45.2764 7.45151C45.6139 7.29701 45.9788 7.21151 46.3497 7.20005C46.66 7.19279 46.9681 7.25285 47.253 7.37609C47.5378 7.49939 47.7926 7.68287 47.9997 7.91405V7.38005H49.9197ZM78.0297 8.89205C77.8671 8.88791 77.7051 8.91695 77.5539 8.97731C77.4033 9.03761 77.2659 9.12809 77.1507 9.24311C77.0355 9.35819 76.9455 9.49541 76.8849 9.64649C76.8243 9.79763 76.7955 9.95939 76.7997 10.122C76.7955 10.2847 76.8243 10.4465 76.8849 10.5976C76.9455 10.7487 77.0355 10.8859 77.1507 11.001C77.2659 11.116 77.4033 11.2065 77.5539 11.2668C77.7051 11.3271 77.8671 11.3562 78.0297 11.352C78.1941 11.3626 78.3585 11.3381 78.5127 11.28C78.6669 11.2219 78.8067 11.1317 78.9231 11.0153C79.0395 10.8989 79.1295 10.759 79.1877 10.605C79.2459 10.451 79.2705 10.2863 79.2597 10.122C79.2639 9.95939 79.2351 9.79763 79.1745 9.64649C79.1139 9.49541 79.0239 9.35819 78.9087 9.24311C78.7935 9.12809 78.6561 9.03761 78.5055 8.97731C78.3543 8.91695 78.1923 8.88791 78.0297 8.89205ZM81.1017 7.38005V12.87H79.1997V12.27C79.0179 12.5291 78.7737 12.7377 78.4893 12.8762C78.2049 13.0148 77.8899 13.0787 77.5737 13.062C77.2017 13.0529 76.8351 12.9693 76.4955 12.8163C76.1559 12.6633 75.8505 12.4439 75.5973 12.171C75.3441 11.8982 75.1479 11.5773 75.0207 11.2275C74.8935 10.8777 74.8371 10.5059 74.8557 10.134C74.8365 9.76349 74.8911 9.39281 75.0171 9.04373C75.1431 8.69471 75.3375 8.37437 75.5895 8.10161C75.8409 7.82879 76.1445 7.60907 76.4823 7.45529C76.8195 7.30145 77.1849 7.21673 77.5557 7.20605C77.8707 7.19603 78.1833 7.25531 78.4731 7.37975C78.7623 7.50413 79.0203 7.69067 79.2297 7.92605V7.38005H81.1017ZM37.3017 12.87V4.80005H40.5597C42.7437 4.80005 43.3737 6.36005 43.3737 7.45205C43.389 7.81949 43.3254 8.18591 43.1875 8.52677C43.0495 8.86763 42.8403 9.17507 42.5739 9.42851C42.3073 9.68189 41.9898 9.87539 41.6424 9.99605C41.295 10.1167 40.9259 10.1617 40.5597 10.128H39.3597V12.87H37.3017ZM39.3717 6.54605V8.40005H40.0677C41.0217 8.40005 41.1117 7.80005 41.1117 7.49405C41.1117 7.18805 40.9737 6.58805 40.0677 6.58805H39.4677L39.3957 6.54605H39.3717ZM51.1377 7.38605V12.876H52.9977L54.9057 9.87605V12.876H56.8377V7.38005H54.9777L53.0697 10.332V7.38005L51.1377 7.38605ZM54.1377 6.69005C54.5904 6.72647 55.0431 6.62201 55.4341 6.39113C55.8251 6.16019 56.1351 5.81402 56.3217 5.40005L55.0677 4.93205C55.0212 5.13343 54.9044 5.31164 54.7384 5.43478C54.5724 5.55791 54.3679 5.61791 54.1617 5.60405C53.9549 5.62044 53.7493 5.5614 53.5828 5.43786C53.4162 5.31432 53.3 5.13463 53.2557 4.93205L52.0017 5.40005C52.1908 5.80612 52.4983 6.14549 52.8838 6.37355C53.2693 6.60167 53.7148 6.70781 54.1617 6.67805L54.1377 6.69005ZM60.8097 15.258V12.96C59.6697 12.96 57.7617 12.492 57.7617 10.122C57.7617 7.75205 59.6457 7.30805 60.8097 7.30805V4.90805H62.7417V7.30805C63.9057 7.30805 65.7417 7.77605 65.7417 10.122C65.7417 12.468 63.8577 12.96 62.7417 12.96V15.288L60.8097 15.258ZM62.6097 8.65805V11.706C63.2637 11.706 63.9117 11.238 63.9117 10.17C63.9117 9.10205 63.2577 8.63405 62.6097 8.65805ZM60.9357 11.658V8.65805C60.2817 8.65805 59.6337 9.12605 59.6337 10.194C59.6337 11.262 60.2877 11.706 60.9357 11.682V11.658ZM69.4677 15.282V12.96C68.3277 12.96 66.4197 12.492 66.4197 10.122C66.4197 7.75205 68.3037 7.30805 69.4677 7.30805V4.90805H71.3997V7.30805C72.5637 7.30805 74.4477 7.77605 74.4477 10.122C74.4477 12.468 72.5637 12.96 71.3997 12.96V15.288H69.4677V15.282ZM71.2677 8.68205V11.73C71.9217 11.73 72.5697 11.262 72.5697 10.194C72.5697 9.12605 71.9157 8.65805 71.2677 8.68205ZM69.5697 11.682V8.68205C68.9157 8.68205 68.2437 9.15005 68.2437 10.218C68.2257 10.4056 68.2479 10.5947 68.3085 10.7732C68.3685 10.9516 68.4663 11.1153 68.5941 11.2535C68.7219 11.3916 68.8779 11.5013 69.0513 11.5751C69.2247 11.649 69.4113 11.6854 69.5997 11.682H69.5697ZM82.3617 7.38005V12.87H84.2217L86.1297 9.87005V12.87H88.0617V7.38005H86.2017L84.2697 10.308V7.38005H82.3617ZM85.3617 6.68405C85.8069 6.71207 86.2497 6.60437 86.6325 6.37505C87.0147 6.14579 87.3189 5.80579 87.5037 5.40005L86.2497 4.93205C86.2029 5.13343 86.0865 5.31164 85.9203 5.43478C85.7541 5.55791 85.5501 5.61791 85.3437 5.60405C85.1367 5.62307 84.9297 5.56505 84.7623 5.44108C84.5955 5.31711 84.4797 5.13588 84.4377 4.93205L83.1777 5.40005C83.3667 5.80612 83.6745 6.14549 84.0597 6.37355C84.4455 6.60167 84.8907 6.70781 85.3377 6.67805L85.3617 6.68405ZM89.5017 8.95805C89.9187 8.66921 90.4107 8.50673 90.9177 8.49005C91.1517 8.49005 91.6857 8.53805 91.6857 8.97605C91.6857 9.41405 91.2177 9.44405 91.0377 9.44405H90.0837V10.644H90.9237C91.2057 10.644 91.7157 10.644 91.7157 11.112C91.7157 11.298 91.6017 11.646 90.9237 11.646C90.3351 11.6447 89.7603 11.4671 89.2737 11.136L88.7997 12.45C89.5497 12.8806 90.4011 13.1042 91.2657 13.098C93.4737 13.098 93.7557 11.82 93.7557 11.4C93.7581 11.0797 93.6477 10.7688 93.4437 10.5219C93.2391 10.2749 92.9547 10.1079 92.6397 10.05C92.8839 9.94025 93.0897 9.75989 93.2313 9.53213C93.3723 9.30443 93.4419 9.03977 93.4317 8.77205C93.4317 7.49405 92.0817 7.23605 91.2477 7.23605C90.4659 7.25051 89.6967 7.43261 88.9917 7.77005L89.5017 8.95805ZM101.172 12.864H103.104V10.68H104.874V12.864H106.8V7.38005H104.868V9.31205H103.098V7.38005H101.166L101.172 12.864Z" fill="black"/>
<path d="M33.9596 24.96H13.7996V4.80005H33.9596V24.96ZM33.3056 5.47205H14.4716V24.306H33.3056V5.47205Z" fill="black"/>
<path d="M23.8914 17.1901L18.1014 22.9801L15.7974 20.6761L21.5994 14.8921L20.3994 13.6921V11.2921L19.5594 10.4521V12.5221L18.8394 13.2421L15.8874 10.3381L15.1674 11.0581C15.1713 10.413 15.3027 9.77513 15.5539 9.18101C15.8052 8.58689 16.1713 8.04827 16.6314 7.59611C17.0755 7.09853 17.6971 6.79523 18.3625 6.75143C19.028 6.70769 19.684 6.92699 20.1894 7.36211L23.1174 10.3141L22.3734 11.0581L23.8914 12.6001L25.4274 11.0641L24.6834 10.3201L27.5994 7.35611C28.1041 6.91949 28.7605 6.69923 29.4264 6.74303C30.0924 6.78683 30.7143 7.09114 31.1574 7.59011C31.6175 8.04227 31.9836 8.58089 32.2349 9.17501C32.4861 9.76913 32.6175 10.407 32.6214 11.0521L31.9014 10.3321L28.9494 13.2601L28.2294 12.5401V10.4521L27.3954 11.2921V13.6921L26.1954 14.8921L31.9854 20.6821L29.6814 22.9801L23.8914 17.1901Z" fill="black"/>
</svg>
