<svg width="140" height="34" viewBox="0 0 140 34" fill="none" xmlns="http://www.w3.org/2000/svg">
<path d="M29.7995 5.78003C27.8834 5.78003 26.0104 6.332 24.4172 7.36613C22.824 8.40021 21.5822 9.87003 20.849 11.5897C20.1157 13.3094 19.9239 15.2017 20.2977 17.0273C20.6715 18.8529 21.5942 20.5298 22.949 21.846C24.304 23.1621 26.0302 24.0585 27.9095 24.4216C29.7887 24.7847 31.7367 24.5984 33.5069 23.8861C35.2772 23.1738 36.7903 21.9675 37.8548 20.4198C38.9193 18.8721 39.4875 17.0526 39.4875 15.1912C39.4884 13.9551 39.2385 12.7309 38.752 11.5887C38.2654 10.4465 37.5518 9.40858 36.652 8.53451C35.7523 7.66044 34.6838 6.96724 33.5081 6.4946C32.3322 6.02196 31.0721 5.77914 29.7995 5.78003ZM28.3995 19.1828L27.6995 21.2228C26.3898 20.7794 25.2552 19.9501 24.4538 18.8505C23.6523 17.7508 23.2241 16.4356 23.2288 15.0883C23.2334 13.741 23.6706 12.4286 24.4796 11.3342C25.2885 10.2397 26.4288 9.41776 27.7415 8.98283L28.4415 11.0228C27.5751 11.3069 26.8235 11.85 26.2941 12.5743C25.7648 13.2986 25.4849 14.167 25.4945 15.0552C25.4396 15.9605 25.6968 16.8578 26.2255 17.6052C26.754 18.3527 27.524 18.9078 28.4135 19.1828H28.3995ZM31.7035 21.3112L31.0035 19.2304C31.884 18.9536 32.6521 18.414 33.1984 17.6883C33.7446 16.9626 34.0412 16.088 34.0459 15.189C34.0505 14.29 33.763 13.4126 33.2243 12.6816C32.6856 11.9506 31.923 11.4034 31.0455 11.118L31.7455 9.03723C33.0764 9.46781 34.2328 10.2965 35.0491 11.4047C35.8654 12.5129 36.2996 13.8437 36.2894 15.2063C36.2794 16.569 35.8255 17.8936 34.9929 18.9902C34.1602 20.0869 32.9917 20.8994 31.6545 21.3112H31.7035Z" fill="#00BEF0"/>
<path d="M46.3677 30.8993H44.8487V26.5609H47.4807V26.9961H45.3807V28.3561H46.3607C47.2567 28.3561 47.8377 28.7029 47.8377 29.5733V29.6141C47.8377 30.4641 47.2567 30.8993 46.3677 30.8993ZM46.3677 30.5117C47.0677 30.5117 47.3057 30.2057 47.3057 29.6889V29.6481C47.3057 29.1245 46.9907 28.8253 46.3257 28.8253H45.3807V30.5185L46.3677 30.5117ZM48.3347 30.0357C48.3347 29.3013 49.1397 29.0361 49.9867 29.0361H50.4767V28.8185C50.4767 28.2949 50.2947 28.0841 49.7767 28.0841C49.2587 28.0841 49.0767 28.2609 49.0207 28.6485H48.4817C48.4972 28.4995 48.5434 28.3551 48.6173 28.2237C48.6913 28.0923 48.7915 27.9766 48.9122 27.8834C49.0329 27.7903 49.1715 27.7215 49.32 27.6813C49.4685 27.641 49.6237 27.63 49.7767 27.6489C49.9363 27.6275 50.0988 27.6415 50.2521 27.6901C50.4052 27.7386 50.5451 27.8203 50.6611 27.929C50.777 28.0378 50.866 28.1706 50.9214 28.3177C50.9768 28.4647 50.997 28.622 50.9807 28.7777V30.8585H50.3997V30.4641C50.2852 30.6231 50.1302 30.7505 49.9498 30.8339C49.7695 30.9174 49.5699 30.954 49.3707 30.9401C48.8247 30.9401 48.2997 30.6817 48.2997 30.0289L48.3347 30.0357ZM50.4767 29.8181V29.4305H50.0287C49.3287 29.4305 48.9157 29.6073 48.9157 30.0357C48.9157 30.4641 49.0977 30.5593 49.5387 30.5593C49.9797 30.5593 50.4767 30.2873 50.4767 29.8113V29.8181ZM53.9767 29.5121H52.3667V30.9401H51.7997V27.7713H52.3387V29.1313H53.9487V27.7713H54.4877V30.9401H53.9487L53.9767 29.5121ZM55.9437 29.2945V30.8993H55.4047V27.7305H55.9437V29.2061L57.2807 27.7305H57.9037L56.5037 29.2061L58.0227 30.8993H57.3997L55.9437 29.2945ZM118.482 16.8845L119.553 18.1425C119.083 18.6101 118.519 18.9787 117.897 19.2256C117.274 19.4724 116.606 19.5922 115.934 19.5773C115.074 19.6052 114.219 19.4424 113.435 19.1013C112.741 18.7384 112.17 18.1884 111.792 17.5176C111.413 16.8467 111.242 16.0836 111.3 15.3205C111.3 12.7637 113.085 10.8529 115.724 10.8529C118.671 10.8529 120.099 12.9813 119.875 15.7557H113.176C113.198 16.0966 113.303 16.4275 113.482 16.7216C113.661 17.0158 113.909 17.2649 114.205 17.4489C114.759 17.7656 115.397 17.917 116.039 17.8841C116.494 17.8883 116.947 17.8018 117.367 17.6299C117.787 17.458 118.166 17.2043 118.482 16.8845ZM113.26 14.2393H117.992C117.915 13.7022 117.634 13.2127 117.203 12.8676C116.773 12.5226 116.225 12.3471 115.668 12.3761C115.103 12.3565 114.55 12.5335 114.109 12.8752C113.668 13.2169 113.366 13.7007 113.26 14.2393ZM68.2497 19.3597H70.6576L66.8637 15.0621L70.6156 11.0297H68.2497L65.3937 14.2393H64.5397V11.0297H62.7127V19.3121H64.5397V16.0209H65.3867L68.2497 19.3597ZM76.1526 12.5597C75.7998 12.5563 75.4505 12.6233 75.1264 12.7567C74.8016 12.8902 74.5083 13.0871 74.2654 13.3352C74.0225 13.5834 73.8349 13.8774 73.7138 14.199C73.5927 14.5207 73.5416 14.863 73.5626 15.2049C73.5416 15.5467 73.5927 15.8891 73.7138 16.2107C73.8349 16.5324 74.0225 16.8264 74.2654 17.0745C74.5083 17.3227 74.8016 17.5195 75.1264 17.653C75.4505 17.7864 75.7998 17.8535 76.1526 17.8501C76.504 17.856 76.8526 17.7903 77.1767 17.6572C77.5001 17.5241 77.7913 17.3265 78.0314 17.0772C78.2715 16.8279 78.4549 16.5325 78.5704 16.21C78.6859 15.8875 78.73 15.5451 78.7006 15.2049C78.7321 14.8636 78.6894 14.5197 78.5753 14.1956C78.4605 13.8714 78.2771 13.5743 78.037 13.3235C77.7969 13.0727 77.505 12.8738 77.1802 12.7399C76.8554 12.606 76.5054 12.54 76.1526 12.5461V12.5597ZM76.4676 10.8665C78.8756 10.8665 80.6676 12.6889 80.6676 15.2049C80.6676 17.7209 78.9246 19.5841 76.4676 19.5841C75.9489 19.6071 75.4309 19.5227 74.9479 19.3363C74.4649 19.1498 74.0288 18.8657 73.6676 18.5029V22.8413H71.8196V11.0297H73.6536V12.0293C73.9966 11.6381 74.4292 11.3305 74.9164 11.1309C75.4043 10.9314 75.9328 10.8455 76.4606 10.8801L76.4676 10.8665ZM100.758 11.0433H93.0996V12.6889H96.0046V19.3121H97.8806V12.7161H100.8V11.0297L100.758 11.0433ZM61.4177 11.0433H53.7807V12.6889H56.6997V19.3121H58.5757V12.7161H61.4597V11.0297L61.4177 11.0433ZM51.4987 15.1913C51.4987 14.5005 51.2162 13.8381 50.7134 13.3497C50.2106 12.8613 49.5287 12.5869 48.8177 12.5869C48.1066 12.5869 47.4247 12.8613 46.9219 13.3497C46.4191 13.8381 46.1367 14.5005 46.1367 15.1913C46.1367 15.882 46.4191 16.5444 46.9219 17.0329C47.4247 17.5213 48.1066 17.7957 48.8177 17.7957C49.5287 17.7957 50.2106 17.5213 50.7134 17.0329C51.2162 16.5444 51.4987 15.882 51.4987 15.1913ZM44.2677 15.1913C44.2496 14.3041 44.5039 13.4318 44.9981 12.6856C45.4923 11.9394 46.2041 11.353 47.0427 11.0013C47.8813 10.6495 48.8087 10.5483 49.7068 10.7106C50.6048 10.8729 51.4328 11.2913 52.0851 11.9124C52.7374 12.5336 53.1846 13.3293 53.3695 14.1983C53.5545 15.0672 53.4688 15.97 53.1236 16.7915C52.7784 17.613 52.1891 18.316 51.4309 18.811C50.6728 19.3059 49.7801 19.5703 48.8667 19.5705C48.264 19.5937 47.6628 19.4971 47.1 19.2864C46.5372 19.0757 46.0247 18.7555 45.594 18.3453C45.1633 17.9352 44.8234 17.4439 44.5953 16.9014C44.3672 16.359 44.2557 15.777 44.2677 15.1913ZM109.823 11.0297V19.3121H107.989V13.9809L103.523 19.3189H102.046V11.0297H103.88V16.4085L108.346 11.0705H109.823V11.0297ZM91.8676 19.3597H90.0336V11.0297H91.8676V19.3597ZM87.0866 16.4969C87.095 16.3329 87.0691 16.169 87.0096 16.0152C86.9508 15.8615 86.8591 15.7213 86.7415 15.6033C86.6239 15.4852 86.4832 15.392 86.3264 15.3293C86.1703 15.2666 86.0023 15.2359 85.8336 15.2389H83.9996V17.7957H85.8756C86.045 17.7924 86.2116 17.7557 86.3656 17.6878C86.5196 17.6199 86.6582 17.5222 86.7723 17.4007C86.8857 17.2791 86.9732 17.1363 87.0285 16.9809C87.0838 16.8255 87.1062 16.6608 87.0936 16.4969H87.0866ZM88.9626 16.4969C88.971 16.8809 88.8975 17.2624 88.7463 17.6172C88.5951 17.9719 88.369 18.2923 88.0834 18.5577C87.7978 18.8232 87.4583 19.0279 87.0866 19.1589C86.7149 19.29 86.3194 19.3444 85.9246 19.3189H82.1306V11.0297H83.9996V13.7497H86.0996C86.479 13.7274 86.8591 13.7828 87.2147 13.9124C87.5703 14.042 87.8944 14.2429 88.1646 14.502C88.4355 14.761 88.6469 15.0726 88.7855 15.4162C88.9241 15.76 88.9871 16.1281 88.9696 16.4969H88.9626Z" fill="black"/>
</svg>
