<svg width="120" height="30" viewBox="0 0 120 30" fill="none" xmlns="http://www.w3.org/2000/svg">
<path d="M38.6587 4.00806L31.3267 11.3341H38.6587V25.9921L45.9847 18.6841V4.00806H38.6587Z" fill="#EA5616"/>
<path d="M31.3261 25.9921L38.6581 18.6661H31.3261V4.00806L24.0001 11.3161V25.9921H31.3261ZM53.3161 22.3261H57.1621V10.9681H63.0001V22.3261H66.8461V7.67406H53.3161V22.3261ZM90.6901 13.1581H87.4021V10.9681H94.7221V7.66806H83.5501V22.3261H90.8701C93.8041 22.3261 96.0001 20.8561 96.0001 17.7421C96.0001 14.6281 93.8041 13.1581 90.6841 13.1581H90.6901ZM90.3181 19.2001H87.3961V16.2841H90.3181C91.2241 16.2841 92.1181 16.6441 92.1181 17.7421C92.1181 18.8401 91.2001 19.2001 90.3181 19.2001ZM76.2841 19.2001C73.7161 19.2001 72.2701 17.3161 72.2701 15.0001C72.2701 13.1341 73.3201 10.8001 76.2061 10.8001C76.8529 10.8056 77.4907 10.9531 78.0745 11.2319C78.6577 11.5108 79.1731 11.9143 79.5841 12.4141L81.9241 10.0741C81.2029 9.21114 80.3005 8.51718 79.2811 8.04132C78.2623 7.5654 77.1511 7.31922 76.0261 7.32006C75.0127 7.2933 74.0047 7.47408 73.0639 7.8513C72.1231 8.22846 71.2693 8.79408 70.5547 9.51342C69.8407 10.2327 69.2809 11.0905 68.9107 12.034C68.5399 12.9776 68.3665 13.987 68.4001 15.0001C68.3875 16.6159 68.8879 18.1941 69.8299 19.5072C70.7713 20.8204 72.1057 21.8008 73.6399 22.3072C75.1747 22.8136 76.8301 22.8198 78.3685 22.325C79.9069 21.8303 81.2485 20.86 82.2001 19.5541L79.8481 17.2021C79.4749 17.8212 78.9463 18.3322 78.3145 18.6847C77.6833 19.0372 76.9711 19.219 76.2481 19.2121" fill="#2C2D84"/>
</svg>
