<svg width="104" height="23" viewBox="0 0 104 23" fill="none" xmlns="http://www.w3.org/2000/svg">
<path d="M35.9294 5.33223C35.7301 4.81493 35.4908 4.69555 34.8926 4.69555H33.3374C32.7791 4.69555 32.5399 4.81493 32.3405 5.37202L27.4755 18.2648C27.2761 18.8219 27.3957 19.0606 28.0337 19.0606H29.4294C30.4264 19.0606 30.7055 18.9014 30.9049 18.3046L31.5429 16.3945H36.5675L37.2055 18.3046C37.4049 18.9014 37.684 19.0606 38.7208 19.0606H40.2362C40.8343 19.0606 40.9939 18.7821 40.7945 18.2648L35.9294 5.33223ZM32.4202 13.7284L33.4969 10.5848C33.9755 9.1523 33.9755 8.1177 33.9755 8.1177H34.1748C34.1748 8.1177 34.2147 9.1523 34.6932 10.6246L35.7301 13.7682H32.4202V13.7284ZM49.7669 4.65576H40.1166C39.4785 4.65576 39.2791 4.85472 39.2791 5.4914V6.84434C39.2791 7.44123 39.4785 7.64019 40.1166 7.64019H43.3067V18.1852C43.3067 18.8219 43.5061 19.0208 44.1043 19.0208H45.7393C46.3773 19.0208 46.5767 18.8219 46.5767 18.1852V7.67998H49.727C50.365 7.67998 50.5644 7.48102 50.5644 6.88414V5.53119C50.5644 4.89452 50.365 4.65576 49.7669 4.65576ZM58.4202 9.94815H55.1503V7.6004H61.2515C61.8497 7.6004 62.0889 7.36164 62.0889 6.76476V5.4914C62.0889 4.85472 61.8497 4.65576 61.2515 4.65576H52.638C52.0399 4.65576 51.8006 4.85472 51.8006 5.4914V18.2648C51.8006 18.8616 52.0399 19.0606 52.5981 19.0606H58.3804C61.1718 19.0606 63.0061 17.3097 63.0061 14.5243C63.046 11.699 61.2116 9.94815 58.4202 9.94815ZM57.9417 16.116H55.1104V12.8928H57.9417C59.0184 12.8928 59.6166 13.5295 59.6166 14.5243C59.6564 15.4793 59.0184 16.116 57.9417 16.116Z" fill="#373A36"/>
<path d="M69.4264 21.5676H69.6657V2.14893H69.4264V21.5676ZM76.9233 7.71986C76.7239 7.71986 76.4049 7.64028 76.2454 7.48111L76.1258 7.68007C76.2853 7.83924 76.6841 7.95861 76.9632 7.95861C77.4816 7.95861 77.8405 7.71986 77.8405 7.32194C77.8405 7.08318 77.681 6.84443 77.362 6.80464C77.6411 6.68526 77.7607 6.4863 77.7607 6.28733C77.7607 5.9292 77.4816 5.73024 76.9632 5.73024C76.6442 5.73024 76.3252 5.84962 76.1657 6.00879L76.2853 6.20775C76.4448 6.08837 76.6442 5.969 76.9632 5.969C77.2822 5.969 77.5215 6.08837 77.5215 6.32713C77.5215 6.56588 77.3221 6.72505 77.0828 6.72505H76.7239V6.92401H77.0828C77.4018 6.92401 77.6012 7.04339 77.6012 7.28214C77.5614 7.56069 77.3221 7.71986 76.9233 7.71986ZM87.7699 5.77003H87.5307V7.91882H87.7699V5.77003ZM93.3926 6.60567H92.2761V6.84443H93.3926V6.60567ZM89.365 7.91882L88.2086 6.80464L89.2853 5.77003H88.9663L87.9295 6.80464L89.046 7.91882H89.365ZM80.1135 6.12816V7.91882H80.3528V5.77003H80.1135L78.6779 7.56069V5.77003H78.4387V7.91882H78.6779L80.1135 6.12816ZM73.3742 6.76484H74.9693L75.4479 7.91882H75.727L74.2515 4.53647H74.0522L72.5767 7.91882H72.8558L73.3742 6.76484ZM74.1718 4.8946L74.8497 6.52609H73.454L74.1718 4.8946ZM83.7822 7.91882H84.0215V6.00879H84.8988V5.77003H82.9448V6.00879H83.8221V7.91882H83.7822ZM90.6411 5.69045C89.9632 5.69045 89.5245 6.16796 89.5245 6.80464C89.5245 7.44131 90.0031 7.91882 90.6411 7.91882C91.319 7.91882 91.7577 7.44131 91.7577 6.80464C91.7577 6.16796 91.319 5.69045 90.6411 5.69045ZM90.6411 7.71986C90.1227 7.71986 89.7638 7.36173 89.7638 6.84443C89.7638 6.32713 90.1227 5.969 90.6411 5.969C91.1595 5.969 91.5184 6.32713 91.5184 6.84443C91.4785 7.36173 91.1196 7.71986 90.6411 7.71986ZM81.7485 5.69045C81.5092 5.69045 81.2699 5.77003 81.0706 5.88941L81.1503 6.08837C81.3497 5.96899 81.5092 5.9292 81.7485 5.9292C82.3068 5.9292 82.3068 6.24754 82.3068 6.76484C82.1472 6.64547 81.908 6.60567 81.7086 6.60567C81.2301 6.60567 80.8712 6.84443 80.8712 7.28214C80.8712 7.68007 81.1503 7.91882 81.5491 7.91882C81.9479 7.91882 82.1472 7.75965 82.3068 7.56069V7.87903H82.546V6.52609C82.546 6.00879 82.3466 5.69045 81.7485 5.69045ZM82.3068 7.36173C82.1871 7.5209 82.0276 7.71986 81.6288 7.71986C81.3497 7.71986 81.1503 7.56069 81.1503 7.28214C81.1503 6.9638 81.4295 6.84443 81.7485 6.84443C81.9877 6.84443 82.1472 6.88422 82.3068 7.0036V7.36173ZM87.0522 7.60048L86.9325 7.40152C86.773 7.56069 86.5338 7.68007 86.2546 7.68007C85.7362 7.68007 85.3374 7.32194 85.3374 6.80464C85.3374 6.28733 85.7362 5.9292 86.1749 5.9292C86.4141 5.9292 86.6534 6.00879 86.8528 6.16796L86.9724 5.969C86.773 5.77003 86.454 5.69045 86.135 5.69045C85.5368 5.69045 85.0583 6.16796 85.0583 6.80464C85.0583 7.48111 85.5368 7.91882 86.2147 7.91882C86.5337 7.95861 86.8528 7.83924 87.0522 7.60048ZM90.7209 11.1022C90.4816 11.1022 90.2423 11.1818 90.043 11.3012L90.1227 11.5001C90.3221 11.3808 90.4816 11.341 90.7209 11.341C91.2791 11.341 91.2791 11.6593 91.2791 12.1766C91.1196 12.0572 90.8804 12.0174 90.681 12.0174C90.2025 12.0174 89.8436 12.2562 89.8436 12.6939C89.8436 13.0918 90.1227 13.3306 90.5215 13.3306C90.9203 13.3306 91.1196 13.1714 91.2791 12.9725V13.2908H91.5184V11.9379C91.5583 11.4206 91.3589 11.1022 90.7209 11.1022ZM91.2791 12.7735C91.1595 12.9327 91 13.1316 90.6012 13.1316C90.3221 13.1316 90.1227 12.9725 90.1227 12.6939C90.1227 12.3756 90.4018 12.2562 90.7209 12.2562C90.9601 12.2562 91.1196 12.296 91.2791 12.4154V12.7735ZM87.2515 11.142H86.9325L85.8957 12.1766L87.0123 13.2908H87.3313L86.1749 12.1766L87.2515 11.142ZM93.8712 12.097H92.4755V11.142H92.2362V13.2908H92.4755V12.3358H93.8712V13.3306H94.1104V11.142H93.8712V12.097ZM88.5276 11.1022C87.8098 11.1022 87.4509 11.5797 87.4509 12.2164C87.4509 12.8929 87.9295 13.3306 88.6074 13.3306C88.8865 13.3306 89.2055 13.2112 89.4049 13.0122L89.3252 12.8133C89.1657 12.9725 88.9264 13.0918 88.6074 13.0918C88.089 13.0918 87.7301 12.7735 87.7301 12.2562H89.5245C89.5245 12.2164 89.5245 12.1368 89.5245 12.0572C89.5245 11.5001 89.0859 11.1022 88.5276 11.1022ZM87.6902 12.0572C87.7301 11.6195 88.0092 11.341 88.4877 11.341C88.9264 11.341 89.2454 11.6195 89.2454 12.0572H87.6902ZM99.6534 12.9327V11.142H99.4141V13.2908H99.6534L101.089 11.5001V13.2908H101.328V11.142H101.089L99.6534 12.9327ZM103.761 11.142L102.325 12.9327V11.142H102.086V13.2908H102.325L103.761 11.5001V13.2908H104V11.142H103.761ZM103.043 10.6247C103.442 10.6247 103.681 10.3462 103.681 10.0278H103.442C103.442 10.2666 103.282 10.4655 103.003 10.4655C102.724 10.4655 102.564 10.2666 102.564 10.0278H102.325C102.405 10.386 102.644 10.6247 103.043 10.6247ZM73.8528 13.2908H74.1319V10.187H75.3681V9.94823H72.6166V10.187H73.8528V13.2908ZM95.8252 13.1316C95.3068 13.1316 94.908 12.7735 94.908 12.2562C94.908 11.7389 95.3068 11.3808 95.7454 11.3808C95.9847 11.3808 96.2239 11.4603 96.4233 11.6195L96.543 11.4206C96.3436 11.2216 96.0245 11.142 95.7055 11.142C95.1074 11.142 94.6288 11.6195 94.6288 12.2562C94.6288 12.9327 95.1074 13.3704 95.7853 13.3704C96.1043 13.3704 96.4233 13.251 96.5828 13.0122L96.4632 12.8133C96.3834 12.9725 96.1043 13.1316 95.8252 13.1316ZM98.8957 11.142H98.5767L97.5399 12.1766L98.6564 13.2908H98.9755L97.819 12.1766L98.8957 11.142ZM97.1012 13.2908H97.3405V11.142H97.1012V13.2908ZM83.7822 11.1022C83.1043 11.1022 82.6657 11.5797 82.6657 12.2164C82.6657 12.8531 83.1442 13.3306 83.7822 13.3306C84.4601 13.3306 84.8988 12.8531 84.8988 12.2164C84.8988 11.5797 84.4601 11.1022 83.7822 11.1022ZM83.7822 13.1316C83.2638 13.1316 82.9049 12.7735 82.9049 12.2562C82.9049 11.7389 83.2638 11.3808 83.7822 11.3808C84.3006 11.3808 84.6595 11.7389 84.6595 12.2562C84.6595 12.7337 84.2607 13.1316 83.7822 13.1316ZM82.1871 12.2164C82.1871 11.5797 81.7086 11.1022 81.0706 11.1022C80.3926 11.1022 79.954 11.5797 79.954 12.2164C79.954 12.8531 80.4325 13.3306 81.0706 13.3306C81.7485 13.3306 82.1871 12.8929 82.1871 12.2164ZM80.1933 12.2164C80.1933 11.6991 80.5522 11.341 81.0706 11.341C81.589 11.341 81.9479 11.6991 81.9479 12.2164C81.9479 12.7337 81.589 13.0918 81.0706 13.0918C80.5522 13.1316 80.1933 12.7337 80.1933 12.2164ZM85.4571 13.2908H85.6963V11.142H85.4571V13.2908ZM79.4356 13.2908H79.7546L78.8773 12.1766L79.6749 11.142H79.3957L78.7178 12.0174L78.0399 11.142H77.7209L78.5184 12.1766L77.6411 13.2908H77.9203L78.6779 12.3358L79.4356 13.2908ZM76.9233 13.2908H77.1626V11.142H76.9233L75.4877 12.9327V11.142H75.2485V13.2908H75.4877L76.9233 11.5001V13.2908ZM82.3466 16.5538H82.0276L80.9908 17.5884L82.1074 18.7026H82.4264L81.2699 17.5884L82.3466 16.5538ZM76.5245 16.4742C76.2853 16.4742 76.046 16.5538 75.8466 16.6731L75.9264 16.8721C76.1258 16.7527 76.2853 16.7129 76.5245 16.7129C77.043 16.7129 77.0828 17.0313 77.0828 17.5486C76.9233 17.4292 76.6841 17.3894 76.4847 17.3894C76.0061 17.3894 75.6472 17.6282 75.6472 18.0659C75.6472 18.4638 75.9264 18.7026 76.3252 18.7026C76.7239 18.7026 76.9233 18.5434 77.0828 18.3444V18.7026H77.3221V17.3496C77.3221 16.7925 77.1227 16.4742 76.5245 16.4742ZM77.043 18.1455C76.9233 18.3046 76.7638 18.5036 76.365 18.5036C76.0859 18.5036 75.8865 18.3444 75.8865 18.0659C75.8865 17.7475 76.1657 17.6282 76.4847 17.6282C76.7239 17.6282 76.8834 17.668 77.043 17.7873V18.1455ZM80.592 18.7026H80.8313V16.5538H80.592V18.7026ZM79.635 17.469H78.2393V16.514H78V18.7026H78.2393V17.7077H79.635V18.7026H79.8742V16.5538H79.635V17.469ZM73.9724 16.7129C73.8528 16.7129 73.6135 16.7129 73.4141 16.7527V15.5988H75.0092V15.36H73.1749V18.7026C73.3742 18.7026 73.6135 18.7026 73.9325 18.7026C74.7301 18.7026 75.2086 18.3444 75.2086 17.668C75.1687 17.0711 74.7699 16.7129 73.9724 16.7129ZM73.9325 18.4638C73.7331 18.4638 73.5736 18.4638 73.4141 18.4638V16.9915C73.6135 16.9517 73.8129 16.9517 73.9724 16.9517C74.6104 16.9517 74.9295 17.2302 74.9295 17.668C74.9295 18.1853 74.5706 18.4638 73.9325 18.4638Z" fill="#373A36"/>
<path d="M19.2209 0H3.82822C1.71472 0 0 1.71107 0 3.82007V19.1799C0 21.2889 1.71472 23 3.82822 23H19.181C21.2945 23 23.0092 21.2889 23.0092 19.1799V3.82007C23.0491 1.71107 21.3344 0 19.2209 0ZM21.8528 18.782C21.8129 18.8218 21.7331 18.8616 21.6933 18.8218C18.7423 17.0311 15.2331 15.9965 11.5245 15.9965C7.81595 15.9965 4.30675 17.0311 1.35583 18.8218C1.31595 18.8616 1.2362 18.8218 1.19632 18.782C1.15644 18.7024 1.19632 18.6626 1.2362 18.6228C3.94785 16.5536 6.26074 13.9273 8.05522 10.8235C9.84969 7.71972 10.9663 4.37716 11.4049 1.0346C11.4049 0.99481 11.4448 0.915225 11.5245 0.915225C11.6043 0.915225 11.6442 0.955017 11.6442 1.0346C12.0828 4.37716 13.1994 7.71972 14.9939 10.8235C16.7883 13.9273 19.1411 16.5536 21.8129 18.583C21.8926 18.6626 21.8926 18.7024 21.8528 18.782Z" fill="#FE5000"/>
</svg>
