<svg width="140" height="36" viewBox="0 0 140 36" fill="none" xmlns="http://www.w3.org/2000/svg">
<g clip-path="url(#clip0)">
<path d="M65.3096 12.7441L60.8996 17.3521H59.1496V12.7441H57.3996V23.7601H59.1496V19.1521H60.8996L65.3096 23.7601H67.6196L62.3696 18.2881L67.6896 12.7441H65.3096ZM23.7996 15.9121C24.1496 15.4081 24.6396 14.9761 25.1996 14.6881C25.7596 14.4001 26.3896 14.2561 27.0196 14.2561C27.9296 14.2561 28.9096 14.6161 29.6096 15.2641L31.0096 13.8241C30.3096 13.1761 29.4696 12.6721 28.5596 12.4561C27.6496 12.2401 26.6696 12.1681 25.7596 12.4561C24.8496 12.6721 24.0096 13.1041 23.2396 13.7521C22.5396 14.4001 21.9796 15.1921 21.6296 16.1281C21.2796 17.0641 21.1396 18.0001 21.2796 19.0081C21.4196 19.9441 21.6996 20.8801 22.2596 21.6721C22.8196 22.4641 23.5196 23.1121 24.3596 23.6161C25.1996 24.1201 26.1096 24.3361 27.0896 24.3361C28.4896 24.3361 29.8896 23.8321 30.9396 22.8241L29.5396 21.4561C29.0496 21.8881 28.4896 22.1761 27.8596 22.2481C27.2296 22.3921 26.5996 22.3921 26.0396 22.1761C25.4096 22.0321 24.9196 21.6721 24.4296 21.2401C23.9396 20.8081 23.6596 20.2321 23.4496 19.6561C23.2396 19.0801 23.1696 18.4321 23.2396 17.7841C23.2396 17.0641 23.4496 16.4161 23.7996 15.9121ZM2.51963 11.9521C0.909634 13.6081 -0.000366211 15.9121 -0.000366211 18.2161C-0.000366211 20.5201 0.909634 22.8241 2.51963 24.4801C4.12963 26.1361 6.36963 27.0721 8.60963 27.0721H8.95963V23.7601H8.60963C7.20963 23.6881 5.87963 23.1121 4.96963 22.1041C3.98963 21.0961 3.49963 19.7281 3.49963 18.2881C3.49963 16.8481 4.05963 15.4801 4.96963 14.4721C5.94963 13.4641 7.27963 12.8161 8.60963 12.8161H8.95963V9.36011H8.60963C6.36963 9.36011 4.12963 10.2961 2.51963 11.9521ZM42.1396 13.9681C41.0196 12.8161 39.5496 12.2401 38.0096 12.2401C36.8896 12.2401 35.6996 12.6001 34.7896 13.2481C33.8096 13.8961 33.1096 14.8321 32.6196 15.9121C32.1996 16.9921 32.0596 18.2161 32.2696 19.3681C32.4796 20.5201 33.0396 21.6001 33.8796 22.4641C34.7196 23.3281 35.6996 23.9041 36.8896 24.1201C38.0096 24.3361 39.1996 24.2641 40.2496 23.7601C41.2996 23.3281 42.2096 22.5361 42.8396 21.5281C43.4696 20.5201 43.8196 19.3681 43.8196 18.2161C43.8896 16.6321 43.2596 15.1201 42.1396 13.9681ZM41.6496 19.8001C41.4396 20.3041 41.1596 20.7361 40.8096 21.0961C40.4596 21.4561 40.0396 21.7441 39.5496 21.9601C39.0596 22.1761 38.5696 22.2481 38.0796 22.2481C37.3096 22.2481 36.5396 22.0321 35.9096 21.6001C35.2796 21.1681 34.7896 20.5201 34.4396 19.8001C34.1596 19.0801 34.0896 18.2881 34.2296 17.4961C34.3696 16.7041 34.7196 15.9841 35.2796 15.4081C35.8396 14.8321 36.5396 14.4721 37.3096 14.3281C38.0796 14.1841 38.8496 14.2561 39.5496 14.5441C40.2496 14.8321 40.8796 15.3361 41.2996 16.0561C41.7196 16.7041 41.9296 17.4961 41.9296 18.2881C41.9296 18.7921 41.7896 19.2961 41.6496 19.8001Z" fill="#FF4B5F"/>
<path d="M77.6295 13.968C76.5095 12.816 75.0395 12.24 73.4995 12.24C72.3795 12.24 71.1895 12.6 70.2795 13.248C69.2995 13.896 68.5995 14.832 68.1095 15.912C67.6895 16.992 67.5495 18.216 67.7595 19.368C67.9695 20.52 68.5295 21.6 69.3695 22.464C70.2095 23.328 71.1895 23.904 72.3795 24.12C73.4995 24.336 74.6895 24.264 75.7395 23.76C76.7895 23.328 77.6995 22.536 78.3295 21.528C78.9595 20.52 79.3095 19.368 79.3095 18.216C79.3795 16.632 78.7495 15.12 77.6295 13.968ZM77.1395 19.8C76.9295 20.304 76.6495 20.736 76.2995 21.096C75.9495 21.456 75.5295 21.744 75.0395 21.96C74.5495 22.176 74.0595 22.248 73.5695 22.248C72.7995 22.248 72.0295 22.032 71.3995 21.6C70.7695 21.168 70.2795 20.52 69.9295 19.8C69.6495 19.08 69.5795 18.288 69.7195 17.496C69.8595 16.704 70.2095 15.984 70.7695 15.408C71.3295 14.832 72.0295 14.472 72.7995 14.328C73.5695 14.184 74.3395 14.256 75.0395 14.544C75.7395 14.832 76.3695 15.336 76.7895 16.056C77.2095 16.704 77.4195 17.496 77.4195 18.288C77.4195 18.792 77.3495 19.296 77.1395 19.8ZM91.5595 12.744L87.2195 18.072L82.8795 12.744V12.816V12.744H81.1295V23.76H82.8795V15.696L87.2195 21.024L91.5595 15.768V23.76H93.2395V12.744H91.5595ZM54.2495 18.216C54.5295 17.928 54.8095 17.568 54.9495 17.136C55.0895 16.704 55.2295 16.344 55.2295 15.912C55.2295 15.48 55.1595 15.048 55.0195 14.688C54.8795 14.328 54.6695 13.968 54.3195 13.68C54.0395 13.392 53.6895 13.176 53.3395 12.96C52.9895 12.816 52.5695 12.744 52.1495 12.744H45.8495V23.76H52.1495C52.9895 23.76 53.7595 23.4 54.3195 22.824C54.8795 22.248 55.2295 21.456 55.2295 20.592C55.2295 20.16 55.1595 19.728 54.9495 19.296C54.8095 18.864 54.5295 18.504 54.2495 18.216ZM53.1295 21.6C52.8495 21.888 52.4995 22.032 52.1495 22.032H47.5995V19.152H52.1495C52.4995 19.152 52.8495 19.296 53.1295 19.584C53.4095 19.872 53.5495 20.232 53.5495 20.592C53.5495 20.952 53.4095 21.312 53.1295 21.6ZM53.6895 16.56C53.6195 16.776 53.4795 16.92 53.3395 17.064C53.1995 17.208 52.9895 17.28 52.7795 17.352C52.5695 17.424 52.3595 17.424 52.1495 17.352H47.5995V14.544H52.1495C52.3595 14.472 52.5695 14.472 52.7795 14.544C52.9895 14.616 53.1995 14.688 53.3395 14.832C53.4795 14.976 53.6195 15.12 53.6895 15.336C53.7595 15.552 53.8295 15.768 53.8295 15.984C53.8295 16.2 53.7595 16.344 53.6895 16.56Z" fill="#FF4B5F"/>
<path d="M10.3595 9.57593V14.1839H8.60951C7.55951 14.1839 6.57951 14.6159 5.80951 15.4079C5.03951 16.1999 4.61951 17.2079 4.61951 18.2879C4.61951 19.3679 5.03951 20.3759 5.80951 21.1679C6.57951 21.9599 7.55951 22.3919 8.60951 22.3919H10.3595V26.9999C12.3195 26.5679 14.0695 25.4879 15.3295 23.9039C16.5895 22.3199 17.2895 20.3039 17.2895 18.2879C17.2895 16.2719 16.5895 14.2559 15.3295 12.6719C14.0695 11.0159 12.3195 9.93593 10.3595 9.57593ZM111.929 12.7439H109.97L105.279 23.7599H107.1L108.149 21.3839H113.679L114.729 23.7599H116.62L111.929 12.7439ZM108.92 19.6559L110.95 14.9759L112.979 19.6559H108.92ZM139.999 12.7439H137.689L133.21 17.3519H131.46V12.7439H129.71V23.7599H131.46V19.1519H133.21L137.62 23.7599H139.929L134.749 18.2879L139.999 12.7439ZM104.37 19.2959C104.23 18.9359 103.95 18.5759 103.67 18.2879C103.39 17.9999 103.04 17.7839 102.62 17.5679C102.27 17.4239 101.849 17.3519 101.429 17.3519H96.8795V14.4719H103.529V12.6719H95.1995V23.7599H101.429C102.269 23.7599 103.039 23.3999 103.6 22.8239C104.16 22.2479 104.51 21.3839 104.51 20.5919C104.65 20.1599 104.58 19.7279 104.37 19.2959ZM102.479 21.5999C102.199 21.8879 101.85 22.0319 101.5 22.0319H97.0195V19.1519H101.5C101.85 19.1519 102.199 19.2959 102.479 19.5839C102.759 19.8719 102.899 20.2319 102.899 20.5919C102.899 20.9519 102.759 21.3119 102.479 21.5999ZM125.86 17.3519H119.629V12.7439H117.879V23.7599H119.629V19.1519H125.86V23.7599H127.61V12.7439H125.86V17.3519Z" fill="#003791"/>
</g>
<defs>
<clipPath id="clip0">
<rect width="140" height="36" fill="white"/>
</clipPath>
</defs>
</svg>
