<svg width="2091" height="1514" viewBox="0 0 2091 1514" fill="none" xmlns="http://www.w3.org/2000/svg">
<rect width="216.889" height="216.889" rx="64" transform="matrix(0.866025 0.5 -0.866025 0.5 474.831 18)" fill="#F2F2F2"/>
<rect width="359" height="359" rx="63" transform="matrix(0.866025 0.5 -0.866025 0.5 743.903 1155)" fill="#F2F2F2"/>
<path d="M804.209 672.163L643.418 579.33L482.628 672.163L804.209 857.828L1125.79 672.163L965 579.33L804.209 672.163Z" stroke="#B4B4B4" stroke-width="0.618884"/>
<path d="M965 950.661L1125.79 857.828L1286.58 950.661L1125.79 1043.49L965 950.661Z" stroke="#B4B4B4" stroke-width="0.618884"/>
<path d="M483.164 1043.18L643.418 950.661L965 1136.33L804.745 1228.85L483.164 1043.18Z" stroke="#B4B4B4" stroke-width="0.618884"/>
<path d="M1608.16 950.661L1286.58 764.996L1447.37 672.163L1929.74 950.661L1608.16 1136.33L1447.37 1043.49L1608.16 950.661Z" stroke="#B4B4B4" stroke-width="0.618884"/>
<path d="M965 1321.99L1286.58 1136.33L1447.37 1229.16L1125.79 1414.82L965 1321.99Z" stroke="#B4B4B4" stroke-width="0.618884"/>
<path d="M643.418 393.665L804.209 486.498L965 393.665L1125.79 486.498L1286.58 393.665L965 208L643.418 393.665Z" stroke="#B4B4B4" stroke-width="0.618884"/>
<rect width="148" height="148" rx="46" transform="matrix(0.866025 0.5 -0.866025 0.5 1616.17 0)" fill="#F2F2F2"/>
</svg>
