<svg xmlns="http://www.w3.org/2000/svg" width="64" height="64" viewBox="0 0 64 64"><defs><clipPath id="88p0a"><path fill="#fff" d="M64 32c0 17.673-14.327 32-32 32C14.327 64 0 49.673 0 32 0 14.327 14.327 0 32 0c17.673 0 32 14.327 32 32z"/></clipPath></defs><g><g><g><path fill="#fff" d="M64 32c0 17.673-14.327 32-32 32C14.327 64 0 49.673 0 32 0 14.327 14.327 0 32 0c17.673 0 32 14.327 32 32z"/><path fill="none" stroke="#000" stroke-miterlimit="20" stroke-width="8" d="M64 32c0 17.673-14.327 32-32 32C14.327 64 0 49.673 0 32 0 14.327 14.327 0 32 0c17.673 0 32 14.327 32 32z" clip-path="url(&quot;#88p0a&quot;)"/></g><g><g/><g transform="rotate(178.29 30.5 30.5)"><path d="M15.765 56.685l-8.9-2.957-4.721-8.835-1.364-1.23 1.038-1.49L5.517 36.6l2.335-6.932c-.72-1.102-1.297-2.293-1.364-3.694v-.195l.067-.193S7.81 15.487 8.5 11.98c.268-1.376.797-3.052 1.752-4.598.957-1.55 2.53-3.119 4.799-3.241l33.673 1.678 8.885 12.517 2.33 5.72-6.615 2.76c-3.114 1.199-4.718 3.467-6.553 5.574-.006.016.01.047 0 .064-1.279 1.474-2.317 2.828-3.695 4.018-1.395 1.205-3.164 2.13-5.58 2.656-1.127 4.826-3.803 7.53-5.644 8.94-1.727 1.32-3.485 1.613-5.577 2.591-2.093.981-4.606 2.48-7.656 5.833l-1.361 1.49zm1.362-4.407c2.758-2.665 5.328-4.406 7.396-5.378 2.474-1.16 4.207-1.684 4.799-2.138 2.142-1.636 4.882-3.848 4.542-11.534V21.18c-.455.098-.52-.016-1.038.193-1.565.624-2.823 1.5-3.114 3.76v8.033h-2.076l-13.102.064h-.13c-1.122.042-2.132-.242-3.114-.646l-1.881 5.57-.066.324-.193.197-2.855 4.209s-.42 5.518 3.328 7.637c4.35 2.625 7.504 1.759 7.504 1.759zM40.35 33.295c.943-.809 1.906-2.024 3.31-3.629 1.353-1.546 12.387-9.281 12.387-9.281L50.47 8.287H15.31c-.435.025-.923.373-1.49 1.295-.53.887-.923 1.848-1.169 2.851h6.682v4.147h-7.33c-.228 1.538-.429 2.544-.649 4.146h7.98v4.147h-8.499c-.025.17-.12.94-.129.972a3.445 3.445 0 0 0 3.633 3.239h.064l11.158-.064v-4.406c.51-3.896 3.39-6.114 5.772-7.062 2.385-.947 4.606-.972 4.606-.972h2.076v16.586c.025.494-.122.825-.13 1.296.884-.34 1.849-.64 2.465-1.167z"/></g></g></g></g></svg>