<svg width="62" height="62" viewBox="0 0 62 62" fill="none" xmlns="http://www.w3.org/2000/svg">
<rect width="11.499" height="11.499" transform="matrix(0.866026 0.5 -0.866026 0.5 29.9591 6)" fill="#C2D6F8"/>
<rect width="11.499" height="11.499" transform="matrix(0.866025 0.5 -2.20305e-08 1 20.0005 11.7495)" fill="#88A8DD"/>
<rect width="11.499" height="11.499" transform="matrix(0.866025 -0.5 2.20305e-08 1 29.9503 17.499)" fill="#577BB4"/>
<rect width="11.499" height="11.499" transform="matrix(0.866026 0.5 -0.866026 0.5 16.9591 30)" fill="#C2D6F8"/>
<rect width="11.499" height="11.499" transform="matrix(0.866025 0.5 -2.20305e-08 1 7.00049 35.7495)" fill="#88A8DD"/>
<rect width="11.499" height="11.499" transform="matrix(0.866025 -0.5 2.20305e-08 1 16.9503 41.499)" fill="#577BB4"/>
<rect width="11.499" height="11.499" transform="matrix(0.866026 0.5 -0.866026 0.5 42.9591 30)" fill="#C2D6F8"/>
<rect width="11.499" height="11.499" transform="matrix(0.866025 0.5 -2.20305e-08 1 33.0005 35.7495)" fill="#88A8DD"/>
<rect width="11.499" height="11.499" transform="matrix(0.866025 -0.5 2.20305e-08 1 42.9503 41.499)" fill="#577BB4"/>
<rect width="11.499" height="11.499" transform="matrix(0.866026 0.5 -0.866026 0.5 29.9591 37)" fill="#C2D6F8"/>
<rect width="11.499" height="11.499" transform="matrix(0.866025 0.5 -2.20305e-08 1 20.0005 42.7495)" fill="#88A8DD"/>
<rect width="11.499" height="11.499" transform="matrix(0.866025 -0.5 2.20305e-08 1 29.9503 48.499)" fill="#577BB4"/>
<rect width="11.499" height="11.499" transform="matrix(0.866026 0.5 -0.866026 0.5 42.9591 14)" fill="#C2D6F8"/>
<rect width="11.499" height="11.499" transform="matrix(0.866025 0.5 -2.20305e-08 1 33.0005 19.7495)" fill="#88A8DD"/>
<rect width="11.499" height="11.499" transform="matrix(0.866025 -0.5 2.20305e-08 1 42.9503 25.499)" fill="#577BB4"/>
<rect width="11.499" height="11.499" transform="matrix(0.866026 0.5 -0.866026 0.5 16.9591 14)" fill="#C2D6F8"/>
<rect width="11.499" height="11.499" transform="matrix(0.866025 0.5 -2.20305e-08 1 7.00049 19.7495)" fill="#88A8DD"/>
<rect width="11.499" height="11.499" transform="matrix(0.866025 -0.5 2.20305e-08 1 16.9503 25.499)" fill="#577BB4"/>
<rect width="11.499" height="11.499" transform="matrix(0.866025 0.5 -0.866025 0.5 29.959 22)" fill="#FDA19C"/>
<rect width="11.499" height="11.499" transform="matrix(0.866025 0.5 -2.20305e-08 1 20.0006 27.7495)" fill="#E9756F"/>
<rect width="11.4991" height="11.499" transform="matrix(0.866026 -0.5 2.20305e-08 1 29.9509 33.4988)" fill="#B45757"/>
</svg>
